<svg width="480" height="362" viewBox="0 0 480 362" fill="none" xmlns="http://www.w3.org/2000/svg">
<path fill-rule="evenodd" clip-rule="evenodd" d="M234.871 335.008C286.566 297.21 307.076 226.181 361.117 191.821C388.832 174.2 423.187 167.875 448.53 146.985C468 130.932 480.716 105.939 478.96 80.7536C477.201 55.5681 459.504 31.3992 435.081 24.9827C412.51 19.0513 388.689 28.1183 368.656 40.0688C348.625 52.0179 330.165 67.1153 308.234 75.065C286.303 83.0118 258.833 82.0007 243.02 64.826C228.212 48.7434 226.947 22.506 209.74 9.01858C191.078 -5.60975 163.85 2.11418 142.497 12.3794C83.1359 40.9117 29.2519 87.5487 7.88861 149.856C-35.7796 277.217 115.644 422.185 234.871 335.008" fill="#F0EFFF"/>
</svg>
