<svg width="59" height="37" viewBox="0 0 59 37" fill="none" xmlns="http://www.w3.org/2000/svg">
<path fill-rule="evenodd" clip-rule="evenodd" d="M12.7304 3C7.36495 3 3 7.26164 3 12.5C3 17.7384 7.36495 22 12.7304 22C16.2232 22 19.2824 20.1885 21 17.484C19.655 15.3471 17.9119 11.4868 19.9641 6.16731C18.1804 4.22921 15.6037 3 12.7304 3Z" fill="#FF75AD"/>
<path fill-rule="evenodd" clip-rule="evenodd" d="M19.8743 20.3782C19.7548 20.4707 19.6084 20.578 19.4463 20.6905C18.4906 23.1888 16.0488 24.9694 13.1784 24.9694C10.2851 24.9694 7.82687 23.1616 6.88757 20.6323C6.58366 20.4183 6.35064 20.2366 6.21477 20.1254C6.1662 20.0821 6.11434 20.0433 6.06642 20L5.98306 20.0711C-0.0892215 25.2435 -0.00520324 34.2966 0.000704287 34.6793L0.00595542 35H15.4561C15.6918 31.4918 16.7446 25.2506 21 20.6343C20.6915 20.3563 20.4316 20.1616 20.2622 20.0485C20.1775 20.1241 20.0902 20.1985 20.0029 20.2722C19.9603 20.3084 19.917 20.3427 19.8743 20.3782Z" fill="#FF75AD"/>
<path fill-rule="evenodd" clip-rule="evenodd" d="M34.573 28.0833L30.4999 26.005L26.4268 28.0833V23.0371L30.4999 25.2159L34.573 23.0371V28.0833ZM38.6032 20.055C38.5079 20.1408 38.4107 20.2253 38.3134 20.3085C38.2661 20.3495 38.2181 20.3885 38.1702 20.4282C37.2414 21.1681 35.1032 22.5609 32.2838 23.007C32.0036 23.0454 31.7267 23.0902 31.4414 23.1081C31.2009 23.1222 30.9591 23.1325 30.7141 23.1325C29.827 23.1325 28.9648 23.0268 28.1346 22.8387C25.5083 22.1692 23.5024 20.6196 22.9332 20.1421C22.8795 20.0934 22.82 20.0493 22.7675 20L22.6741 20.0806C15.9006 25.943 15.9927 36.2025 16.001 36.6364L16.0068 37H45L44.984 36.6153C44.503 24.7614 39.766 20.8423 38.6032 20.055Z" fill="#FF75AD"/>
<path fill-rule="evenodd" clip-rule="evenodd" d="M20 11.0036C20.0026 17.0667 24.9365 22 30.9997 22H31.0029C33.936 21.9987 36.6972 20.8526 38.7762 18.773C40.8552 16.6914 42.0013 13.9302 42 10.9971C41.9987 4.9339 37.0642 0 30.9997 0C24.932 0.00193816 19.9987 4.93777 20 11.0036Z" fill="#FF75AD"/>
<path fill-rule="evenodd" clip-rule="evenodd" d="M46.3491 34.9968L58.9952 35L58.9998 34.7117C59.0058 34.3686 58.884 26.7012 53.3824 22.0632L53.3076 22C53.1296 22.1606 52.9455 22.3141 52.7569 22.4612L48.844 29.8822L48.149 25.528L49.263 23.773C48.5534 23.9388 47.8127 24.0297 47.0508 24.0297C46.8528 24.0297 46.6556 24.0207 46.4603 24.0084C46.1028 23.9872 45.75 23.9452 45.4031 23.8859C45.2681 23.862 45.1337 23.8369 45 23.8078L46.0975 25.5267L45.3661 29.6726C45.9545 31.699 46.224 33.6546 46.3491 34.9968Z" fill="#FF75AD"/>
<path fill-rule="evenodd" clip-rule="evenodd" d="M47.3249 22C52.1064 22.0006 55.9987 18.1892 56 13.5025C56.0007 8.8159 52.1122 5.00191 47.3294 5C45.3836 5 43.5838 5.63206 42.1355 6.69694C42.5862 7.91332 42.833 9.22581 42.833 10.593C42.8317 13.437 41.762 16.0378 40 18.039C41.5386 20.4164 44.2457 21.9987 47.3249 22Z" fill="#FF75AD"/>
</svg>
