<svg width="89" height="90" viewBox="0 0 89 90" fill="none" xmlns="http://www.w3.org/2000/svg">
<path fill-rule="evenodd" clip-rule="evenodd" d="M44.115 6.962L44 44.6555L77 26.8583C77 26.8583 72.8263 17.7935 64.0359 12.8084C58.0091 9.39062 49.9173 6.73519 44.115 6.962Z" fill="#8184EB"/>
<path fill-rule="evenodd" clip-rule="evenodd" d="M68 45.333C68 58.3113 57.479 68.8328 44.5 68.8328C31.5215 68.8328 21 58.3113 21 45.333C21 32.3542 31.5215 21.8328 44.5 21.8328C57.479 21.8328 68 32.3542 68 45.333" fill="#00CCCC"/>
<path d="M68 45.333C68 58.3113 57.479 68.8328 44.5 68.8328C31.5215 68.8328 21 58.3113 21 45.333C21 32.3542 31.5215 21.8328 44.5 21.8328C57.479 21.8328 68 32.3542 68 45.333" stroke="#00CCCC" stroke-width="2"/>
<path fill-rule="evenodd" clip-rule="evenodd" d="M35.5739 33.6241C35.0792 33.8111 34.5845 33.9442 34.0892 33.9442C32.9625 33.9442 32 33.1443 32 31.9709C32 31.091 32.5496 30.184 33.8147 29.8378L37.8559 28.771C38.8728 28.771 39.5327 29.3841 39.7803 30.0238C39.9176 30.2107 40 30.7976 40 31.6508V46.5575C40 47.8383 39.1204 48.771 37.8009 48.771C36.454 48.771 35.5739 47.8383 35.5739 46.5575V33.6241Z" fill="white"/>
<path fill-rule="evenodd" clip-rule="evenodd" d="M51.7046 38.8405C51.7046 36.4334 51.0146 32.8337 49.0794 32.8337C46.905 32.8337 46.3484 36.6612 46.3484 38.7904C46.3484 41.0967 47.0639 44.62 49.053 44.62C51.0146 44.62 51.7046 40.8684 51.7046 38.8405V38.8405ZM49.1059 28.7788C54.3027 28.7788 56 34.5569 56 38.7139C56 42.7692 54.1703 48.6246 49.053 48.6246C43.7233 48.6246 42 43.0228 42 38.765C42 34.6333 43.8027 28.7788 49 28.7788H49.1059Z" fill="white"/>
<path fill-rule="evenodd" clip-rule="evenodd" d="M48 53.2762C48 52.9605 48.1436 52.803 48.4305 52.803C48.7293 52.803 48.873 52.9605 48.873 53.2762V53.738C49.2677 53.0094 49.9618 52.6812 50.6675 52.6812C51.8157 52.6812 53 53.556 53 55.001V59.2024C53 59.494 52.8564 59.6398 52.5575 59.6398C52.2707 59.6398 52.127 59.494 52.127 59.2024V55.3895C52.127 54.1628 51.325 53.5678 50.5239 53.5678C49.6986 53.5678 48.873 54.1873 48.873 55.3895V59.2024C48.873 59.494 48.7293 59.6398 48.4305 59.6398C48.1436 59.6398 48 59.494 48 59.2024V53.2762Z" fill="white"/>
<path fill-rule="evenodd" clip-rule="evenodd" d="M45.6503 52.9151C45.6503 52.5982 45.78 52.4466 46.0198 52.4466C46.2703 52.4466 46.4098 52.5982 46.4098 52.9151V59.1707C46.4098 59.4876 46.28 59.6396 46.0302 59.6396C45.78 59.6396 45.6503 59.4876 45.6503 59.1707V52.9151ZM46 49.6987C46.28 49.6987 46.5 49.9769 46.5 50.3315C46.5 50.6862 46.28 50.9648 46 50.9648C45.72 50.9648 45.5 50.6862 45.5 50.3315C45.5 49.9769 45.72 49.6987 46 49.6987V49.6987Z" fill="white"/>
<path fill-rule="evenodd" clip-rule="evenodd" d="M34 53.3262C34 52.9733 34.1638 52.7909 34.5047 52.7909C34.8318 52.7909 35.0098 52.9615 35.0098 53.2899V53.764C35.3781 53.1193 36.1824 52.6812 36.9877 52.6812C37.8882 52.6812 38.7067 53.1924 39.0476 53.9586C39.4841 53.1924 40.4257 52.6812 41.4487 52.6812C42.8401 52.6812 44 53.5575 44 54.8345V59.1898C44 59.4815 43.8362 59.6276 43.4949 59.6276C43.154 59.6276 42.9765 59.4815 42.9765 59.1898V55.2237C42.9765 54.3482 42.3899 53.6179 41.3938 53.6179C40.2344 53.6179 39.4841 54.5061 39.4841 55.5281V59.1898C39.4841 59.4937 39.3207 59.6398 38.9931 59.6398C38.6518 59.6398 38.488 59.4937 38.488 59.1898V55.2237C38.488 54.336 37.8882 53.6424 36.8916 53.6424C35.7322 53.6424 34.9956 54.5061 34.9956 55.5281V59.1898C34.9956 59.4937 34.8318 59.6398 34.5047 59.6398C34.1638 59.6398 34 59.4937 34 59.1898V53.3262Z" fill="white"/>
</svg>
