<svg width="89" height="90" viewBox="0 0 89 90" fill="none" xmlns="http://www.w3.org/2000/svg">
<path fill-rule="evenodd" clip-rule="evenodd" d="M44.0793 6.95996L44 44.7355H81.9964C81.9964 44.7355 82.618 25.785 67.5295 15.0034C61.8998 10.9807 55.9856 7.31682 44.0793 6.95996" fill="#8184EB"/>
<path fill-rule="evenodd" clip-rule="evenodd" d="M68 45.333C68 58.3113 57.479 68.8328 44.5 68.8328C31.5215 68.8328 21 58.3113 21 45.333C21 32.3542 31.5215 21.8328 44.5 21.8328C57.479 21.8328 68 32.3542 68 45.333" fill="#00CCCC"/>
<path d="M68 45.333C68 58.3113 57.479 68.8328 44.5 68.8328C31.5215 68.8328 21 58.3113 21 45.333C21 32.3542 31.5215 21.8328 44.5 21.8328C57.479 21.8328 68 32.3542 68 45.333" stroke="#00CCCC" stroke-width="2"/>
<path fill-rule="evenodd" clip-rule="evenodd" d="M35.5739 33.6241C35.0792 33.8111 34.5845 33.9442 34.0892 33.9442C32.9625 33.9442 32 33.1443 32 31.9709C32 31.091 32.5496 30.184 33.8147 29.8378L37.8559 28.771C38.8728 28.771 39.5327 29.3841 39.7803 30.0238C39.9176 30.2107 40 30.7976 40 31.6508V46.5575C40 47.8383 39.1204 48.771 37.8009 48.771C36.454 48.771 35.5739 47.8383 35.5739 46.5575V33.6241Z" fill="white"/>
<path fill-rule="evenodd" clip-rule="evenodd" d="M53.8643 28.8286C55.1563 28.8286 55.921 29.8296 55.921 31.0154C55.921 32.3858 55.2616 33.071 53.8643 33.071H49.4866C49.4076 33.6768 49.3549 34.0199 49.1701 35.0999C53.8375 35.0999 56 38.3671 56 41.7401C56 45.2188 53.6795 48.8286 49.0384 48.8286C45.6366 48.8286 43 46.4572 43 44.6915C43 43.3742 43.9491 42.6626 44.9245 42.6626C45.5049 42.6626 46.1643 42.9784 46.5862 43.5584C47.1134 44.2436 48.221 44.7183 49.1442 44.7183C50.7259 44.7183 51.7545 43.3474 51.7545 41.9511C51.7545 40.5811 50.8844 39.1581 49.0911 39.1581C48.221 39.1581 47.5353 39.5533 46.7442 39.5533C45.5576 39.5533 44.6348 39.1054 44.6348 37.524C44.6348 37.3924 44.6607 36.9708 45.8736 30.7522C46.1116 29.5665 46.9817 28.8286 48.3268 28.8286H53.8643Z" fill="white"/>
<path fill-rule="evenodd" clip-rule="evenodd" d="M48 53.2762C48 52.9605 48.1436 52.803 48.4305 52.803C48.7293 52.803 48.873 52.9605 48.873 53.2762V53.738C49.2677 53.0094 49.9618 52.6812 50.6675 52.6812C51.8157 52.6812 53 53.556 53 55.001V59.2024C53 59.494 52.8564 59.6398 52.5575 59.6398C52.2707 59.6398 52.127 59.494 52.127 59.2024V55.3895C52.127 54.1628 51.325 53.5678 50.5239 53.5678C49.6986 53.5678 48.873 54.1873 48.873 55.3895V59.2024C48.873 59.494 48.7293 59.6398 48.4305 59.6398C48.1436 59.6398 48 59.494 48 59.2024V53.2762Z" fill="white"/>
<path fill-rule="evenodd" clip-rule="evenodd" d="M45.6503 52.9151C45.6503 52.5982 45.78 52.4466 46.0198 52.4466C46.2703 52.4466 46.4098 52.5982 46.4098 52.9151V59.1707C46.4098 59.4876 46.28 59.6396 46.0302 59.6396C45.78 59.6396 45.6503 59.4876 45.6503 59.1707V52.9151ZM46 49.6987C46.28 49.6987 46.5 49.9769 46.5 50.3315C46.5 50.6862 46.28 50.9648 46 50.9648C45.72 50.9648 45.5 50.6862 45.5 50.3315C45.5 49.9769 45.72 49.6987 46 49.6987V49.6987Z" fill="white"/>
<path fill-rule="evenodd" clip-rule="evenodd" d="M34 53.3262C34 52.9733 34.1638 52.7909 34.5047 52.7909C34.8318 52.7909 35.0098 52.9615 35.0098 53.2899V53.764C35.3781 53.1193 36.1824 52.6812 36.9877 52.6812C37.8882 52.6812 38.7067 53.1924 39.0476 53.9586C39.4841 53.1924 40.4257 52.6812 41.4487 52.6812C42.8401 52.6812 44 53.5575 44 54.8345V59.1898C44 59.4815 43.8362 59.6276 43.4949 59.6276C43.154 59.6276 42.9765 59.4815 42.9765 59.1898V55.2237C42.9765 54.3482 42.3899 53.6179 41.3938 53.6179C40.2344 53.6179 39.4841 54.5061 39.4841 55.5281V59.1898C39.4841 59.4937 39.3207 59.6398 38.9931 59.6398C38.6518 59.6398 38.488 59.4937 38.488 59.1898V55.2237C38.488 54.336 37.8882 53.6424 36.8916 53.6424C35.7322 53.6424 34.9956 54.5061 34.9956 55.5281V59.1898C34.9956 59.4937 34.8318 59.6398 34.5047 59.6398C34.1638 59.6398 34 59.4937 34 59.1898V53.3262Z" fill="white"/>
</svg>
