<svg width="49" height="48" viewBox="0 0 49 48" fill="none" xmlns="http://www.w3.org/2000/svg">
<mask id="mask0" mask-type="alpha" maskUnits="userSpaceOnUse" x="0" y="0" width="49" height="48">
<path fill-rule="evenodd" clip-rule="evenodd" d="M0.00012207 0.533081H48.4552V48H0.00012207V0.533081Z" fill="white"/>
</mask>
<g mask="url(#mask0)">
<path fill-rule="evenodd" clip-rule="evenodd" d="M42.9377 24.2664C42.9377 34.3894 34.5612 42.5949 24.2274 42.5949C13.8942 42.5949 5.51714 34.3894 5.51714 24.2664C5.51714 14.1435 13.8942 5.93864 24.2274 5.93864C34.5612 5.93864 42.9377 14.1435 42.9377 24.2664ZM0.00012207 24.2664C0.00012207 37.3742 10.8472 47.9999 24.2274 47.9999C37.6083 47.9999 48.4553 37.3742 48.4553 24.2664C48.4553 11.1593 37.6083 0.532959 24.2274 0.532959C10.8472 0.532959 0.00012207 11.1593 0.00012207 24.2664Z" fill="#FF75AD"/>
</g>
<path fill-rule="evenodd" clip-rule="evenodd" d="M23 10.7193V24.2807C23 24.6779 23.4488 25 24.0004 25C24.552 25 25 24.6779 25 24.2807V10.7193C25 10.3221 24.552 10 24.0004 10C23.4488 10 23 10.3221 23 10.7193Z" fill="#FF75AD"/>
<path fill-rule="evenodd" clip-rule="evenodd" d="M11.6197 29.5545C11.2493 29.7119 10.9729 29.8977 11.0021 29.9713C11.0326 30.0436 11.357 29.9745 11.7274 29.8172L24.3809 24.4442C24.7506 24.2875 25.0277 24.1016 24.9978 24.0287C24.9685 23.9564 24.6436 24.0255 24.2738 24.1828L11.6197 29.5545Z" fill="#FF75AD"/>
<path fill-rule="evenodd" clip-rule="evenodd" d="M24.1481 24C23.5136 24 23 24.4473 23 25C23 25.5521 23.5136 26 24.1481 26H33.8519C34.4858 26 35 25.5521 35 25C35 24.4473 34.4858 24 33.8519 24H24.1481Z" fill="#FF75AD"/>
<path fill-rule="evenodd" clip-rule="evenodd" d="M22 24.0003C22 25.1051 22.8955 26 24 26C25.1052 26 26 25.1051 26 24.0003C26 22.8956 25.1052 22 24 22C22.8955 22 22 22.8956 22 24.0003Z" fill="#FF75AD"/>
</svg>
