<svg width="41" height="42" viewBox="0 0 41 42" fill="none" xmlns="http://www.w3.org/2000/svg">
<mask id="mask0" mask-type="alpha" maskUnits="userSpaceOnUse" x="0" y="0" width="41" height="42">
<path fill-rule="evenodd" clip-rule="evenodd" d="M0 0H41V42H0V0Z" fill="white"/>
</mask>
<g mask="url(#mask0)">
<path fill-rule="evenodd" clip-rule="evenodd" d="M38.3113 0C37.2809 0 35.9726 0.127262 34.4228 0.379665C32.8113 0.64338 31.7011 0.946688 31.0312 1.30938C30.3627 1.67067 29.3519 2.57352 27.9428 4.06744C26.5806 5.51539 24.8327 7.78631 22.7502 10.8187C20.6747 13.8405 18.8427 16.7816 17.3069 19.5602C15.9307 22.0474 14.5265 24.7786 13.1258 27.6915C12.1423 26.4337 11.1091 25.4241 10.0451 24.686C8.69196 23.7492 7.40045 23.2748 6.20065 23.2748C4.97704 23.2748 3.63863 23.815 2.22182 24.8811C0.747606 25.9919 0 27.2553 0 28.6325C0 29.6697 0.637705 30.8815 1.95021 32.3394C3.86263 34.4569 5.40404 36.4217 6.53385 38.1814C7.37455 39.4894 7.95206 40.3152 8.29926 40.7026C8.69196 41.1417 9.18967 41.4733 9.78327 41.6917C10.3531 41.8989 11.2981 42 12.675 42C14.5636 42 15.8509 41.7964 16.6097 41.38C17.3692 40.9607 17.9677 40.3654 18.3912 39.6096C18.7741 38.928 19.3719 37.567 20.2196 35.451C22.3288 30.1441 25.196 24.5884 28.7408 18.9422C32.2765 13.3116 35.7402 8.89632 39.0316 5.82436C39.8394 5.08341 40.3308 4.55669 40.5786 4.1643C40.8586 3.72312 41 3.20983 41 2.63786C41 1.91459 40.7487 1.28817 40.2531 0.777005C39.7547 0.260887 39.1009 0 38.3113 0Z" fill="#FF75AD"/>
</g>
</svg>
