<svg width="89" height="89" viewBox="0 0 89 89" fill="none" xmlns="http://www.w3.org/2000/svg">
<mask id="mask0" mask-type="alpha" maskUnits="userSpaceOnUse" x="0" y="0" width="89" height="89">
<path fill-rule="evenodd" clip-rule="evenodd" d="M0 0.305176H88.6955V89H0V0.305176Z" fill="white"/>
</mask>
<g mask="url(#mask0)">
<path fill-rule="evenodd" clip-rule="evenodd" d="M88.6955 44.6525C88.6955 69.1448 68.84 89.0002 44.3477 89.0002C19.8549 89.0002 -6.10352e-05 69.1448 -6.10352e-05 44.6525C-6.10352e-05 20.1601 19.8549 0.305176 44.3477 0.305176C68.84 0.305176 88.6955 20.1601 88.6955 44.6525Z" fill="#B4B9F6"/>
</g>
<path fill-rule="evenodd" clip-rule="evenodd" d="M82 44.7338C82 65.5973 64.9865 82.5098 44 82.5098C23.0135 82.5098 6 65.5973 6 44.7338C6 23.8717 23.0135 6.95874 44 6.95874C64.9865 6.95874 82 23.8717 82 44.7338Z" fill="white"/>
<path fill-rule="evenodd" clip-rule="evenodd" d="M82 44.7338C82 65.5973 64.9865 82.5098 44 82.5098C23.0135 82.5098 6 65.5973 6 44.7338C6 23.8717 23.0135 6.95874 44 6.95874C64.9865 6.95874 82 23.8717 82 44.7338Z" stroke="#8184EB"/>
<path fill-rule="evenodd" clip-rule="evenodd" d="M60.7063 16.8995L60 16.4423L62.2932 12.9231L63 13.3802L60.7063 16.8995Z" fill="#ED1E79"/>
<path fill-rule="evenodd" clip-rule="evenodd" d="M72.4362 28.8287L72 28.0944L75.5628 25.8464L76 26.5813L72.4362 28.8287Z" fill="#ED1E79"/>
<path fill-rule="evenodd" clip-rule="evenodd" d="M73 61.4029L73.416 60.6396L77 62.8576L76.5835 63.6219L73 61.4029Z" fill="#ED1E79"/>
<path fill-rule="evenodd" clip-rule="evenodd" d="M60 72.998L60.7459 72.5688L63 76.1166L62.2541 76.5452L60 72.998Z" fill="#ED1E79"/>
<path fill-rule="evenodd" clip-rule="evenodd" d="M44 77.5553L44.9112 77.5393L45 81.5001L44.0877 81.5157L44 77.5553Z" fill="#ED1E79"/>
<path fill-rule="evenodd" clip-rule="evenodd" d="M27.3767 72.5688L28 72.891L26.6237 76.5452L26 76.2226L27.3767 72.5688Z" fill="#ED1E79"/>
<path fill-rule="evenodd" clip-rule="evenodd" d="M16.6582 60.6396L17 61.2363L13.3418 62.6278L13 62.0311L16.6582 60.6396Z" fill="#ED1E79"/>
<path fill-rule="evenodd" clip-rule="evenodd" d="M12 44.863L11.9766 45.7282L8 45.5999L8.0234 44.7341L12 44.863Z" fill="#ED1E79"/>
<path fill-rule="evenodd" clip-rule="evenodd" d="M17 28.097L16.5628 28.8287L13 26.5787L13.4382 25.8464L17 28.097Z" fill="#ED1E79"/>
<path fill-rule="evenodd" clip-rule="evenodd" d="M29 16.4503L28.2825 16.8995L26 13.3717L26.7181 12.9231L29 16.4503Z" fill="#ED1E79"/>
<path fill-rule="evenodd" clip-rule="evenodd" d="M77 45.6774L77.0088 44.7341L81 44.785L80.9917 45.7282L77 45.6774Z" fill="#ED1E79"/>
<path fill-rule="evenodd" clip-rule="evenodd" d="M77.1988 51.6929L77 52.2992L79.8023 52.687L80 52.081L77.1988 51.6929Z" fill="#666767"/>
<path fill-rule="evenodd" clip-rule="evenodd" d="M76.2917 54.675L76 55.6816L78.7077 56.6632L79 55.6573L76.2917 54.675Z" fill="#666767"/>
<path fill-rule="evenodd" clip-rule="evenodd" d="M75.3872 57.6575L75 58.507L77.6134 59.6457L78 58.794L75.3872 57.6575Z" fill="#666767"/>
<path fill-rule="evenodd" clip-rule="evenodd" d="M72.3902 64.616L72 65.2401L73.6106 66.6042L74 65.9796L72.3902 64.616Z" fill="#666767"/>
<path fill-rule="evenodd" clip-rule="evenodd" d="M69.4626 66.6042L69 67.1415L70.5386 68.5924L71 68.056L69.4626 66.6042Z" fill="#666767"/>
<path fill-rule="evenodd" clip-rule="evenodd" d="M67.5394 69.5864L67 70.0442L68.4597 71.5746L69 71.116L67.5394 69.5864Z" fill="#666767"/>
<path fill-rule="evenodd" clip-rule="evenodd" d="M64.629 71.5747L64 71.9615L65.3718 73.5629L66 73.1757L64.629 71.5747Z" fill="#666767"/>
<path fill-rule="evenodd" clip-rule="evenodd" d="M58.8556 74.5571L58 74.9431L59.1439 77.5394L60 77.1551L58.8556 74.5571Z" fill="#666767"/>
<path fill-rule="evenodd" clip-rule="evenodd" d="M55.0116 76.5452L54 76.8357L54.9878 79.5274L56 79.2364L55.0116 76.5452Z" fill="#666767"/>
<path fill-rule="evenodd" clip-rule="evenodd" d="M51.6105 77.5393L51 77.7369L51.3899 80.5216L52 80.324L51.6105 77.5393Z" fill="#666767"/>
<path fill-rule="evenodd" clip-rule="evenodd" d="M48.7602 77.5393L48 77.6396L48.2394 80.5216L49 80.4213L48.7602 77.5393Z" fill="#666767"/>
<path fill-rule="evenodd" clip-rule="evenodd" d="M41 77.6396L40.2401 77.5393L40 80.4213L40.7599 80.5216L41 77.6396Z" fill="#666767"/>
<path fill-rule="evenodd" clip-rule="evenodd" d="M38 77.7369L37.3892 77.5393L37 80.3245L37.6097 80.5216L38 77.7369Z" fill="#666767"/>
<path fill-rule="evenodd" clip-rule="evenodd" d="M35 76.8357L33.9887 76.5452L33 79.2364L34.0125 79.5274L35 76.8357Z" fill="#666767"/>
<path fill-rule="evenodd" clip-rule="evenodd" d="M31 74.9431L30.1433 74.5571L29 77.1551L29.8556 77.5394L31 74.9431Z" fill="#666767"/>
<path fill-rule="evenodd" clip-rule="evenodd" d="M25 71.9616L24.3714 71.5747L23 73.176L23.629 73.5629L25 71.9616Z" fill="#666767"/>
<path fill-rule="evenodd" clip-rule="evenodd" d="M22 70.0442L21.4602 69.5864L20 71.116L20.5398 71.5746L22 70.0442Z" fill="#666767"/>
<path fill-rule="evenodd" clip-rule="evenodd" d="M78.1014 47.7166L78 48.4711L80.8997 48.7106L81 47.9544L78.1014 47.7166Z" fill="#666767"/>
<path fill-rule="evenodd" clip-rule="evenodd" d="M17 65.2401L16.6102 64.616L15 65.9796L15.389 66.6042L17 65.2401Z" fill="#666767"/>
<path fill-rule="evenodd" clip-rule="evenodd" d="M14 58.5072L13.6122 57.6575L11 58.7943L11.3872 59.6457L14 58.5072Z" fill="#666767"/>
<path fill-rule="evenodd" clip-rule="evenodd" d="M13 55.6816L12.7082 54.675L10 55.6567L10.2934 56.6632L13 55.6816Z" fill="#666767"/>
<path fill-rule="evenodd" clip-rule="evenodd" d="M12 52.2992L11.8012 51.6929L9 52.081L9.19828 52.687L12 52.2992Z" fill="#666767"/>
<path fill-rule="evenodd" clip-rule="evenodd" d="M11 48.4714L10.8986 47.7166L8 47.9545L8.10141 48.7106L11 48.4714Z" fill="#666767"/>
<path fill-rule="evenodd" clip-rule="evenodd" d="M10.8986 41.7519L11 40.997L8.10085 40.7578L8 41.5132L10.8986 41.7519Z" fill="#666767"/>
<path fill-rule="evenodd" clip-rule="evenodd" d="M11.8011 37.7756L12 37.1687L9.19777 36.7815L9 37.3877L11.8011 37.7756Z" fill="#666767"/>
<path fill-rule="evenodd" clip-rule="evenodd" d="M12.7082 34.7934L13 33.7862L10.2934 32.8052L10 33.8099L12.7082 34.7934Z" fill="#666767"/>
<path fill-rule="evenodd" clip-rule="evenodd" d="M13.6122 31.8109L14 30.9617L11.3872 29.8228L11 30.6747L13.6122 31.8109Z" fill="#666767"/>
<path fill-rule="evenodd" clip-rule="evenodd" d="M16.6101 24.8524L17 24.2277L15.3887 22.8643L15 23.489L16.6101 24.8524Z" fill="#666767"/>
<path fill-rule="evenodd" clip-rule="evenodd" d="M18.5389 22.8642L19 22.3283L17.4611 20.876L17 21.4126L18.5389 22.8642Z" fill="#666767"/>
<path fill-rule="evenodd" clip-rule="evenodd" d="M21.4602 19.882L22 19.4238L20.5398 17.8938L20 18.3528L21.4602 19.882Z" fill="#666767"/>
<path fill-rule="evenodd" clip-rule="evenodd" d="M24.3714 17.8937L25 17.5073L23.629 15.9055L23 16.2927L24.3714 17.8937Z" fill="#666767"/>
<path fill-rule="evenodd" clip-rule="evenodd" d="M30.1433 13.9173L31 13.5325L29.8556 10.9351L29 11.3205L30.1433 13.9173Z" fill="#666767"/>
<path fill-rule="evenodd" clip-rule="evenodd" d="M33.9887 12.9232L35 12.6312L34.0125 9.94092L33 10.2318L33.9887 12.9232Z" fill="#666767"/>
<path fill-rule="evenodd" clip-rule="evenodd" d="M37.3892 11.9291L38 11.7315L37.6097 8.94678L37 9.14382L37.3892 11.9291Z" fill="#666767"/>
<path fill-rule="evenodd" clip-rule="evenodd" d="M40.2401 11.9291L41 11.8277L40.7603 8.94678L40 9.0465L40.2401 11.9291Z" fill="#666767"/>
<path fill-rule="evenodd" clip-rule="evenodd" d="M78 40.997L78.1014 41.7519L81 41.5132L80.8991 40.7578L78 40.997Z" fill="#666767"/>
<path fill-rule="evenodd" clip-rule="evenodd" d="M77 37.1684L77.1988 37.7756L80 37.3876L79.8018 36.7815L77 37.1684Z" fill="#666767"/>
<path fill-rule="evenodd" clip-rule="evenodd" d="M76 33.7862L76.2917 34.7934L79 33.8099L78.7083 32.8052L76 33.7862Z" fill="#666767"/>
<path fill-rule="evenodd" clip-rule="evenodd" d="M75 30.9617L75.3872 31.8109L78 30.6747L77.6134 29.8228L75 30.9617Z" fill="#666767"/>
<path fill-rule="evenodd" clip-rule="evenodd" d="M72 24.2278L72.3901 24.8524L74 23.4889L73.6103 22.8643L72 24.2278Z" fill="#666767"/>
<path fill-rule="evenodd" clip-rule="evenodd" d="M69 22.3283L69.4626 22.8642L71 21.413L70.5386 20.876L69 22.3283Z" fill="#666767"/>
<path fill-rule="evenodd" clip-rule="evenodd" d="M67 19.4238L67.5394 19.882L69 18.3528L68.4597 17.8938L67 19.4238Z" fill="#666767"/>
<path fill-rule="evenodd" clip-rule="evenodd" d="M64 17.5073L64.629 17.8937L66 16.2931L65.3718 15.9055L64 17.5073Z" fill="#666767"/>
<path fill-rule="evenodd" clip-rule="evenodd" d="M58 13.5325L58.8556 13.9173L60 11.3204L59.1439 10.9351L58 13.5325Z" fill="#666767"/>
<path fill-rule="evenodd" clip-rule="evenodd" d="M54 12.6312L55.0116 12.9232L56 10.2318L54.9878 9.94092L54 12.6312Z" fill="#666767"/>
<path fill-rule="evenodd" clip-rule="evenodd" d="M51 11.7315L51.6105 11.9291L52 9.14382L51.3899 8.94678L51 11.7315Z" fill="#666767"/>
<path fill-rule="evenodd" clip-rule="evenodd" d="M19 67.1415L18.5389 66.6042L17 68.056L17.4611 68.5924L19 67.1415Z" fill="#666767"/>
<path fill-rule="evenodd" clip-rule="evenodd" d="M48 11.8277L48.7602 11.9291L49 9.0465L48.2398 8.94678L48 11.8277Z" fill="#666767"/>
<path fill-rule="evenodd" clip-rule="evenodd" d="M44 11.9291H45V8.94678H44V11.9291Z" fill="#ED1E79"/>
<path fill-rule="evenodd" clip-rule="evenodd" d="M44.1172 6.95874L44 43.7402L64 12.6082C64 12.6082 58.4221 7.72436 44.1172 6.95874Z" fill="#8184EB"/>
<path fill-rule="evenodd" clip-rule="evenodd" d="M69 45.2315C69 58.6822 58.0314 69.5866 44.5002 69.5866C30.9691 69.5866 20 58.6822 20 45.2315C20 31.7803 30.9691 20.876 44.5002 20.876C58.0314 20.876 69 31.7803 69 45.2315Z" fill="#00CCCC"/>
<path fill-rule="evenodd" clip-rule="evenodd" d="M48 54.2762C48 53.9605 48.1436 53.803 48.4305 53.803C48.7293 53.803 48.873 53.9605 48.873 54.2762V54.738C49.2677 54.0094 49.9618 53.6812 50.6675 53.6812C51.8157 53.6812 53 54.556 53 56.001V60.2024C53 60.494 52.8564 60.6398 52.5575 60.6398C52.2707 60.6398 52.127 60.494 52.127 60.2024V56.3895C52.127 55.1628 51.325 54.5678 50.5239 54.5678C49.6986 54.5678 48.873 55.1873 48.873 56.3895V60.2024C48.873 60.494 48.7293 60.6398 48.4305 60.6398C48.1436 60.6398 48 60.494 48 60.2024V54.2762Z" fill="white"/>
<path fill-rule="evenodd" clip-rule="evenodd" d="M45.6503 53.9151C45.6503 53.5982 45.78 53.4466 46.0198 53.4466C46.2703 53.4466 46.4098 53.5982 46.4098 53.9151V60.1707C46.4098 60.4876 46.28 60.6396 46.0302 60.6396C45.78 60.6396 45.6503 60.4876 45.6503 60.1707V53.9151ZM46 50.6987C46.28 50.6987 46.5 50.9769 46.5 51.3315C46.5 51.6862 46.28 51.9648 46 51.9648C45.72 51.9648 45.5 51.6862 45.5 51.3315C45.5 50.9769 45.72 50.6987 46 50.6987Z" fill="white"/>
<path fill-rule="evenodd" clip-rule="evenodd" d="M34 54.3262C34 53.9733 34.1638 53.7909 34.5047 53.7909C34.8318 53.7909 35.0098 53.9615 35.0098 54.2899V54.764C35.3781 54.1193 36.1824 53.6812 36.9877 53.6812C37.8882 53.6812 38.7067 54.1924 39.0476 54.9586C39.4841 54.1924 40.4257 53.6812 41.4487 53.6812C42.8401 53.6812 44 54.5575 44 55.8345V60.1898C44 60.4815 43.8362 60.6276 43.4949 60.6276C43.154 60.6276 42.9765 60.4815 42.9765 60.1898V56.2237C42.9765 55.3482 42.3899 54.6179 41.3938 54.6179C40.2344 54.6179 39.4841 55.5061 39.4841 56.5281V60.1898C39.4841 60.4937 39.3207 60.6398 38.9931 60.6398C38.6518 60.6398 38.488 60.4937 38.488 60.1898V56.2237C38.488 55.336 37.8882 54.6424 36.8916 54.6424C35.7322 54.6424 34.9956 55.5061 34.9956 56.5281V60.1898C34.9956 60.4937 34.8318 60.6398 34.5047 60.6398C34.1638 60.6398 34 60.4937 34 60.1898V54.3262Z" fill="white"/>
<path fill-rule="evenodd" clip-rule="evenodd" d="M47.8643 28.8286C49.1563 28.8286 49.921 29.8237 49.921 31.0025C49.921 32.3648 49.2616 33.046 47.8643 33.046H43.4866C43.4076 33.6482 43.3549 33.9892 43.1701 35.0628C47.8375 35.0628 50 38.3108 50 41.6638C50 45.122 47.6795 48.7105 43.0384 48.7105C39.6366 48.7105 37 46.353 37 44.5978C37 43.2882 37.9491 42.5809 38.9245 42.5809C39.5049 42.5809 40.1643 42.8949 40.5862 43.4714C41.1134 44.1525 42.221 44.6244 43.1442 44.6244C44.7259 44.6244 45.7545 43.2616 45.7545 41.8736C45.7545 40.5117 44.8844 39.0971 43.0911 39.0971C42.221 39.0971 41.5353 39.49 40.7442 39.49C39.5576 39.49 38.6348 39.0447 38.6348 37.4726C38.6348 37.3418 38.6607 36.9227 39.8736 30.7408C40.1116 29.5621 40.9817 28.8286 42.3268 28.8286H47.8643Z" fill="white"/>
</svg>
