<svg width="41" height="41" viewBox="0 0 41 41" fill="none" xmlns="http://www.w3.org/2000/svg">
<path fill-rule="evenodd" clip-rule="evenodd" d="M38.6388 0.476032C37.541 0.24944 36.1176 0.0985951 34.4098 0.0267332C32.6338 -0.0470709 31.3861 0.0312651 30.5914 0.270157C29.8006 0.507107 28.529 1.24385 26.7035 2.52248C24.9378 3.76161 22.5833 5.78993 19.7082 8.55499C16.8421 11.3103 14.254 14.032 12.016 16.6475C10.0115 18.9879 7.92468 21.5814 5.80118 24.3691C5.79411 24.3555 5.78703 24.3432 5.77995 24.3296C5.5676 24.5342 5.37648 24.753 5.18987 24.9745C5.17057 24.9971 5.15641 25.0211 5.13775 25.0431C3.08825 27.5071 0.238906 32.0577 1.18805 35.5705C1.23759 35.6625 1.2865 35.757 1.3354 35.8541C1.66294 36.0464 1.98017 36.2542 2.28776 36.4724C2.67835 36.6161 3.06831 36.7631 3.46083 36.9022C3.86172 36.9333 4.26004 36.9735 4.66157 37C6.8063 36.7106 8.76378 36.1305 10.6537 35.1691C10.9825 34.8726 11.2869 34.558 11.6221 34.2725C11.6459 34.2362 11.6678 34.2045 11.6923 34.1683C15.086 28.9916 19.3433 23.7204 24.3432 18.4991C29.3282 13.2927 33.9768 9.3636 38.1491 6.82124C39.1697 6.21139 39.808 5.7595 40.1574 5.39695C40.5519 4.98974 40.8138 4.47505 40.9361 3.86908C41.0931 3.09996 40.9605 2.3794 40.5429 1.72682C40.1221 1.07035 39.4818 0.648889 38.6388 0.476032Z" fill="#FF75AD"/>
<mask id="mask0" mask-type="alpha" maskUnits="userSpaceOnUse" x="0" y="1" width="35" height="39">
<path fill-rule="evenodd" clip-rule="evenodd" d="M0 1.52917H34.6144V40H0V1.52917Z" fill="white"/>
</mask>
<g mask="url(#mask0)">
<path fill-rule="evenodd" clip-rule="evenodd" d="M32.2545 26.2553C31.0957 24.5581 29.198 22.2955 26.6106 19.5297C24.0339 16.7744 21.4872 14.2868 19.0404 12.1353C16.9588 10.303 14.6584 8.39783 12.1963 6.46148C12.0531 6.41598 11.9106 6.33213 11.7757 6.19498C9.6973 4.07923 7.41403 2.95798 4.69803 1.88418C4.61021 1.84843 4.53385 1.80553 4.46639 1.75808C3.32157 1.47728 2.18885 1.42918 1.15794 1.75873C1.02748 1.82763 0.897665 1.90758 0.772938 2.00313C0.567392 2.55758 0.37012 3.11528 0.176665 3.67363C0.149301 3.83028 0.114938 3.98563 0.0742104 4.13903C0.0493922 4.44778 0.0194831 4.75523 -0.000244141 5.06398C0.239029 6.88268 0.691483 8.56228 1.41121 10.1808C1.69376 10.6962 2.00494 11.1902 2.37721 11.6381C2.46821 11.6998 2.55348 11.7596 2.65085 11.8233C7.49166 15.0876 12.4228 19.1787 17.3082 23.9855C22.1789 28.7799 25.8539 33.2467 28.2327 37.2591C28.8035 38.24 29.226 38.8549 29.5646 39.1909C29.9464 39.5679 30.4275 39.8208 30.9951 39.9391C31.7142 40.0892 32.3881 39.9612 32.9984 39.5601C33.6131 39.1552 34.007 38.5396 34.1699 37.7297C34.3812 36.6735 34.5218 35.3059 34.5893 33.6646C34.6587 31.9564 34.5848 30.7565 34.3615 29.9934C34.14 29.2329 33.4496 28.0103 32.2545 26.2553Z" fill="#FF75AD"/>
</g>
</svg>
