<svg width="270" height="200" viewBox="0 0 270 200" fill="none" xmlns="http://www.w3.org/2000/svg">
<path fill-rule="evenodd" clip-rule="evenodd" d="M135.004 167.597C81.1861 167.597 37.5622 147.674 37.5622 123.103C37.5622 98.5312 81.1861 78.6058 135.004 78.6058C188.813 78.6058 232.437 98.5312 232.437 123.103C232.437 147.674 188.813 167.597 135.004 167.597M135.007 49.2406C60.4393 49.2406 0 82.315 0 123.103C0 163.888 60.4393 196.962 135.007 196.962C209.558 196.962 270 163.888 270 123.103C270 82.315 209.558 49.2406 135.007 49.2406" fill="#323232" fill-opacity="0.1"/>
<path fill-rule="evenodd" clip-rule="evenodd" d="M135.496 163.539C83.0472 163.539 40.5341 144.147 40.5341 120.23C40.5341 96.3116 83.0472 76.919 135.496 76.919C187.936 76.919 230.449 96.3116 230.449 120.23C230.449 144.147 187.936 163.539 135.496 163.539V163.539ZM267.055 72.2464C267.055 72.2464 247.183 22.7338 135.491 22.7338C23.7974 22.7338 3.92773 95.3218 3.92773 95.3218V120.23C3.92773 159.93 62.8293 192.122 135.498 192.122C208.151 192.122 267.055 159.93 267.055 120.23V72.2464Z" fill="#8285DF"/>
<mask id="mask0" mask-type="alpha" maskUnits="userSpaceOnUse" x="4" y="0" width="263" height="145">
<path fill-rule="evenodd" clip-rule="evenodd" d="M4.30273 0H266.907V144.051H4.30273V0Z" fill="white"/>
</mask>
<g mask="url(#mask0)">
<path fill-rule="evenodd" clip-rule="evenodd" d="M135.61 115.416C83.2655 115.416 40.8369 95.9871 40.8369 72.0263C40.8369 48.0656 83.2655 28.6348 135.61 28.6348C187.946 28.6348 230.375 48.0656 230.375 72.0263C230.375 95.9871 187.946 115.416 135.61 115.416M135.612 -0.000244141C63.0872 -0.000244141 4.30273 32.2511 4.30273 72.0263C4.30273 111.799 63.0872 144.051 135.612 144.051C208.12 144.051 266.907 111.799 266.907 72.0263C266.907 32.2511 208.12 -0.000244141 135.612 -0.000244141" fill="#B3B8F6"/>
</g>
<path fill-rule="evenodd" clip-rule="evenodd" d="M214.217 115.703C197.312 127.508 168.159 135.31 135.008 135.31C134.184 135.31 133.366 135.291 132.546 135.282V192.086C133.368 192.096 134.184 192.122 135.011 192.122C184.131 192.122 226.92 177.305 249.382 155.395V107.428C249.382 107.428 217.963 116.886 214.217 115.703" fill="#F6BF03"/>
<path fill-rule="evenodd" clip-rule="evenodd" d="M214.217 95.6099C197.312 107.434 168.159 115.249 135.008 115.249C134.184 115.249 133.366 115.23 132.546 115.22V143.833C133.368 143.84 134.184 143.866 135.011 143.866C184.131 143.866 226.92 129.026 249.382 107.081C241.397 104.484 233.427 101.816 225.454 99.172C221.719 97.9302 217.963 96.7949 214.217 95.6099" fill="#F6DD03"/>
<path fill-rule="evenodd" clip-rule="evenodd" d="M133.528 143.477C87.8266 145.114 38.5208 119.097 40.6216 93.7021C28.3621 93.7021 3.92773 73.944 3.92773 73.944V120.166C3.92773 159.562 61.7755 191.556 133.528 192.121V143.477Z" fill="#00CDC4"/>
<path fill-rule="evenodd" clip-rule="evenodd" d="M133.528 115.327C83.3064 114.872 42.6601 96.6811 40.5603 73.944H3.92773C5.71245 112.383 62.8586 143.311 133.528 143.866V115.327Z" fill="#01E4D0"/>
<path fill-rule="evenodd" clip-rule="evenodd" d="M159.477 36.5211C158.753 40.921 157.228 48.0112 156.503 52.4087C156.245 53.9634 155.989 55.542 156.171 57.1062C156.355 58.6704 157.037 60.2442 158.325 61.1609C159.991 62.3441 162.229 62.1894 164.268 61.9846C167.316 61.6775 170.367 61.3727 173.415 61.0656C174.986 60.9085 176.58 60.7442 178.046 60.1561C179.509 59.568 180.848 58.4895 181.376 57.0062C182.029 55.1706 181.335 53.1587 180.644 51.335C179.427 48.1208 178.211 44.9066 176.994 41.6924C176.43 40.1996 175.863 38.7044 175.136 37.283" fill="#3D00BD"/>
<mask id="mask1" mask-type="alpha" maskUnits="userSpaceOnUse" x="215" y="179" width="20" height="21">
<path fill-rule="evenodd" clip-rule="evenodd" d="M215.505 179.88H234.568V200H215.505V179.88Z" fill="white"/>
</mask>
<g mask="url(#mask1)">
<path fill-rule="evenodd" clip-rule="evenodd" d="M215.934 181.974L215.505 191.705L234.568 200L225.311 185.551L222.849 179.88L215.934 181.974Z" fill="#130159"/>
</g>
<path fill-rule="evenodd" clip-rule="evenodd" d="M230.169 176.425L229.745 185.856L250.363 188.182L239.48 179.892L237.035 174.395L230.169 176.425Z" fill="#130159"/>
<path fill-rule="evenodd" clip-rule="evenodd" d="M170.645 99.845C167.392 113.512 174.693 116.557 183.043 119.584C191.991 122.826 209.88 125.494 209.88 125.494L229.097 177.944C232.411 180.323 235.92 179.489 239.563 176.415L223.298 116.588L191.161 98.5644L170.645 99.845Z" fill="#5601F3"/>
<path fill-rule="evenodd" clip-rule="evenodd" d="M162.786 106.694C159.553 120.309 166.811 123.343 175.114 126.358C184.007 129.588 201.792 132.248 201.792 132.248L214.953 183.473C217.711 185.998 221.462 185.62 225.818 183.473L213.165 124.122L184.356 105.458L162.786 106.694Z" fill="#681EF7"/>
<path fill-rule="evenodd" clip-rule="evenodd" d="M194.4 100.057C193.847 96.4291 186.544 97.3144 187.245 81.4779C187.696 71.2528 186.013 58.0627 180.234 55.0181C175.373 52.4583 165.505 56.9596 162.881 58.6177C157.295 62.1471 160.125 64.2385 158.928 70.7C157.734 77.1639 158.138 105.917 158.138 112.488C158.138 114.992 180.874 120.072 193.05 104.378" fill="#F70083"/>
<path fill-rule="evenodd" clip-rule="evenodd" d="M193.014 123.144C191.47 122.254 178.576 114.824 175.906 113.282C175.685 113.156 175.697 112.848 175.916 112.722L207.261 94.6705C207.364 94.6098 207.492 94.6098 207.593 94.6705L224.672 104.518C224.891 104.647 224.891 104.96 224.672 105.088L193.332 123.137C193.228 123.195 193.117 123.203 193.014 123.144" fill="#827FDE"/>
<path fill-rule="evenodd" clip-rule="evenodd" d="M224.629 104.17L193.344 122.144C193.214 122.219 193.053 122.219 192.925 122.144L175.951 112.382C175.677 112.223 175.677 111.828 175.951 111.669L207.239 93.6981C207.369 93.621 207.53 93.621 207.657 93.6981L224.629 103.457C224.906 103.616 224.906 104.011 224.629 104.17" fill="#DFE3FF"/>
<path fill-rule="evenodd" clip-rule="evenodd" d="M203.776 95.6777C206.518 96.3268 211.569 100.004 211.054 101.068C210.543 102.127 207.876 104.735 201.621 98.3728C195.369 92.0077 203.776 95.6777 203.776 95.6777" fill="#FED4BD"/>
<path fill-rule="evenodd" clip-rule="evenodd" d="M190.3 95.7713L200.656 100.534C200.908 98.0888 203.444 96.9159 206.182 96.9018L188.967 85.4534L186.582 76.8983C186.582 76.8983 186.499 82.8314 186.582 85.1371C186.741 89.6471 187.89 93.619 190.3 95.7713" fill="#F1539A"/>
<path fill-rule="evenodd" clip-rule="evenodd" d="M167.894 57.976C167.739 60.2589 174.609 58.8839 173.7 57.0871C173.246 54.6683 172.788 52.2471 172.332 49.8282C172.179 49.0251 172.017 48.1911 171.511 47.5381C169.607 45.0788 168.16 46.9638 168.049 48.9441C167.884 51.9444 167.946 54.9709 167.894 57.976" fill="#FED4BD"/>
<path fill-rule="evenodd" clip-rule="evenodd" d="M176.012 43.3677C176.837 40.9613 177.058 38.2735 176.084 35.9206C175.111 33.5677 172.778 31.6542 170.157 31.5984C167.369 31.5403 164.854 33.577 163.779 36.0624C162.706 38.5525 162.846 41.3844 163.438 44.0187C163.935 46.2205 164.801 48.4595 166.569 49.9243C171.787 54.2442 174.658 47.3109 176.012 43.3677" fill="#FED4BD"/>
<path fill-rule="evenodd" clip-rule="evenodd" d="M170.279 40.2007C170.286 41.1167 170.989 41.9745 171.872 42.1488C172.758 42.3255 173.726 41.7955 174.069 40.9493C174.285 41.9466 175.443 42.5463 176.424 42.3278C177.406 42.107 178.159 41.2352 178.473 40.2635C178.786 39.2918 178.72 38.2364 178.53 37.2321C178.347 36.2488 178.052 35.2864 177.651 34.3728C177.223 33.3987 176.672 32.4735 175.953 31.6971C174.209 29.8094 169.037 28.6029 166.512 30.83C161.349 30.1628 160.148 35.0748 160.083 39.3476C159.731 41.7164 161.42 43.5041 162.152 45.7823C162.557 47.0423 163.587 47.5049 164.883 47.3119C165.979 47.1492 163.043 44.8152 163.651 41.8512C163.97 40.3146 165.475 43.7366 165.995 43.5506C165.961 43.5622 166.398 40.1961 166.512 40.0078C167.528 40.7842 169.229 42.0233 170.279 40.2007" fill="#3D00BD"/>
<path fill-rule="evenodd" clip-rule="evenodd" d="M184.139 107.495C186.88 108.144 191.931 111.823 191.419 112.884C190.907 113.945 188.241 116.553 181.987 110.19C175.733 103.826 184.139 107.495 184.139 107.495" fill="#FED4BD"/>
<path fill-rule="evenodd" clip-rule="evenodd" d="M162.21 60.2337C154.278 61.5949 155.413 91.6422 158.196 97.6517C160.978 103.661 181.534 111.367 181.534 111.367C182.315 108.623 183.683 107.18 185.564 106.866L165.987 92.3521C165.987 92.3521 165.945 79.1758 166.086 74.4549C166.181 71.2312 168.94 59.0787 162.21 60.2337" fill="#F1539A"/>
<path fill-rule="evenodd" clip-rule="evenodd" d="M192.457 121.563C193.638 117.619 197.365 105.177 198.029 102.961C198.095 102.737 198.243 102.557 198.445 102.441L228.986 84.8459C229.379 84.6197 229.852 84.9859 229.723 85.4197L224.154 104.01C224.086 104.232 223.937 104.421 223.733 104.537L193.194 122.13C192.801 122.356 192.328 121.997 192.457 121.563" fill="#8285DF"/>
<path fill-rule="evenodd" clip-rule="evenodd" d="M193.439 121.563C194.62 117.619 198.349 105.177 199.011 102.961C199.076 102.737 199.227 102.557 199.429 102.441L229.968 84.8459C230.363 84.6197 230.836 84.9859 230.704 85.4197L225.135 104.01C225.067 104.232 224.919 104.421 224.716 104.537L194.178 122.13C193.783 122.356 193.31 121.997 193.439 121.563" fill="#D9DFF6"/>
</svg>
