<svg width="555" height="500" viewBox="0 0 555 500" fill="none" xmlns="http://www.w3.org/2000/svg">
<mask id="mask0" mask-type="alpha" maskUnits="userSpaceOnUse" x="0" y="0" width="555" height="457">
<path fill-rule="evenodd" clip-rule="evenodd" d="M0 18.8457L539.671 -2.44677e-05L554.957 437.733L15.286 456.579L0 18.8457Z" fill="white"/>
</mask>
<g mask="url(#mask0)">
<path fill-rule="evenodd" clip-rule="evenodd" d="M548.685 258.135C553.22 387.995 365.102 444.363 240.64 448.709C116.178 453.056 12.5308 377.682 7.99615 247.826C3.46132 117.965 152.322 13.5265 276.784 9.1802C401.246 4.8339 544.15 128.274 548.685 258.135Z" fill="#F0EFFF"/>
</g>
<mask id="mask1" mask-type="alpha" maskUnits="userSpaceOnUse" x="114" y="329" width="292" height="170">
<path fill-rule="evenodd" clip-rule="evenodd" d="M114.427 329.762H405.121V498.289H114.427V329.762Z" fill="white"/>
</mask>
<g mask="url(#mask1)">
<path fill-rule="evenodd" clip-rule="evenodd" d="M201.68 330.982C204.507 329.356 209.07 329.356 211.868 330.977L403.033 441.969C405.833 443.592 405.817 446.226 402.989 447.852L317.867 497.068C315.042 498.697 310.481 498.695 307.681 497.072L116.516 386.082C113.716 384.461 113.733 381.827 116.558 380.197L201.68 330.982Z" fill="#BBB8F6"/>
</g>
<path fill-rule="evenodd" clip-rule="evenodd" d="M403.876 438.054L398.171 434.423V435.674L209.586 326.38C206.855 324.798 202.407 324.798 199.651 326.385L119.183 372.883V372.206L113.479 375.429V377.895H113.488C113.504 378.917 114.175 379.932 115.515 380.711L307.768 492.129C310.5 493.713 314.947 493.713 317.704 492.124L401.797 443.538C403.876 442.316 403.722 441.359 403.787 440.116C403.816 439.562 403.876 438.054 403.876 438.054Z" fill="#9796F7"/>
<path fill-rule="evenodd" clip-rule="evenodd" d="M199.65 323.916C202.407 322.327 206.854 322.327 209.586 323.91L401.838 435.329C404.568 436.912 404.554 439.48 401.797 441.067L317.705 489.653C314.946 491.242 310.499 491.242 307.77 489.658L115.515 378.24C112.787 376.656 112.8 374.089 115.558 372.502L199.65 323.916Z" fill="#D9DFF6"/>
<path fill-rule="evenodd" clip-rule="evenodd" d="M308.521 474.742C307.807 475.154 307.805 475.823 308.514 476.233L315.345 480.191C316.045 480.598 317.203 480.598 317.915 480.186L324.706 476.278C325.41 475.872 325.413 475.202 324.715 474.797L317.883 470.837C317.174 470.427 316.016 470.427 315.312 470.832L308.521 474.742ZM295.921 467.439C295.207 467.851 295.203 468.518 295.903 468.925L304.711 474.029C305.42 474.441 306.578 474.441 307.291 474.029L314.082 470.121C314.787 469.715 314.791 469.046 314.08 468.633L305.272 463.531C304.574 463.124 303.416 463.124 302.71 463.531L295.921 467.439ZM283.302 460.125C282.587 460.535 282.582 461.207 283.293 461.617L292.098 466.721C292.8 467.128 293.959 467.128 294.671 466.716L301.462 462.806C302.167 462.401 302.169 461.732 301.471 461.325L292.663 456.221C291.952 455.811 290.796 455.811 290.09 456.216L283.302 460.125ZM270.7 452.821C269.985 453.233 269.973 453.897 270.682 454.309L279.489 459.411C280.198 459.823 281.346 459.818 282.062 459.407L288.851 455.498C289.555 455.091 289.569 454.429 288.86 454.017L280.052 448.915C279.342 448.503 278.192 448.508 277.489 448.915L270.7 452.821ZM258.08 445.509C257.365 445.919 257.362 446.588 258.06 446.993L266.87 452.099C267.579 452.511 268.737 452.511 269.451 452.099L276.24 448.19C276.944 447.785 276.947 447.116 276.238 446.703L267.432 441.599C266.731 441.194 265.572 441.194 264.869 441.599L258.08 445.509ZM194.997 408.952C194.284 409.36 194.27 410.024 194.979 410.436L254.268 444.795C254.977 445.207 256.126 445.201 256.84 444.791L263.629 440.881C264.335 440.475 264.347 439.813 263.638 439.401L204.35 405.042C203.639 404.63 202.491 404.634 201.788 405.042L194.997 408.952ZM182.377 401.636C181.664 402.048 181.659 402.716 182.368 403.126L191.176 408.232C191.878 408.637 193.034 408.637 193.748 408.225L200.537 404.317C201.243 403.912 201.246 403.243 200.546 402.836L191.74 397.732C191.03 397.322 189.871 397.322 189.168 397.727L182.377 401.636ZM169.777 394.333C169.061 394.744 169.048 395.408 169.759 395.82L178.567 400.924C179.274 401.334 180.423 401.329 181.138 400.918L187.927 397.009C188.632 396.602 188.646 395.94 187.936 395.528L179.128 390.424C178.419 390.012 177.27 390.017 176.564 390.424L169.777 394.333ZM157.033 386.948C156.32 387.36 156.315 388.029 157.024 388.439L165.831 393.544C166.531 393.95 167.69 393.95 168.404 393.538L175.195 389.629C175.898 389.224 175.902 388.555 175.202 388.148L166.394 383.044C165.685 382.633 164.527 382.633 163.822 383.038L157.033 386.948ZM144.431 379.647C143.717 380.055 143.706 380.719 144.413 381.131L153.221 386.235C153.93 386.646 155.079 386.64 155.793 386.23L162.582 382.32C163.288 381.914 163.3 381.252 162.591 380.842L153.784 375.736C153.075 375.325 151.925 375.331 151.222 375.737L144.431 379.647ZM314.823 466.359C314.12 466.764 314.116 467.433 314.825 467.845L323.633 472.95C324.333 473.354 325.491 473.354 326.196 472.95L332.985 469.04C333.698 468.63 333.703 467.959 333.002 467.554L324.196 462.45C323.487 462.038 322.327 462.038 321.614 462.45L314.823 466.359ZM302.223 459.057C301.518 459.463 301.505 460.125 302.214 460.535L311.022 465.64C311.731 466.052 312.88 466.046 313.586 465.64L320.375 461.732C321.089 461.32 321.102 460.658 320.393 460.246L311.585 455.142C310.876 454.731 309.727 454.737 309.012 455.147L302.223 459.057ZM289.603 451.743C288.898 452.148 288.894 452.815 289.594 453.222L298.402 458.326C299.111 458.736 300.269 458.736 300.973 458.333L307.764 454.424C308.478 454.013 308.482 453.342 307.773 452.932L298.963 447.828C298.263 447.421 297.107 447.421 296.39 447.833L289.603 451.743ZM276.991 444.433C276.287 444.84 276.284 445.509 276.993 445.919L285.8 451.023C286.511 451.435 287.66 451.43 288.364 451.023L295.153 447.116C295.867 446.703 295.88 446.041 295.171 445.629L286.363 440.523C285.654 440.113 284.496 440.113 283.781 440.523L276.991 444.433ZM264.382 437.127C263.678 437.531 263.664 438.195 264.373 438.605L273.18 443.71C273.891 444.12 275.039 444.116 275.744 443.71L282.533 439.8C283.247 439.39 283.26 438.726 282.549 438.316L273.743 433.212C273.033 432.8 271.885 432.805 271.171 433.217L264.382 437.127ZM251.771 429.817C251.065 430.223 251.062 430.892 251.773 431.303L260.58 436.407C261.279 436.813 262.437 436.813 263.142 436.407L269.931 432.499C270.646 432.087 270.649 431.418 269.949 431.011L261.142 425.907C260.432 425.497 259.274 425.497 258.562 425.907L251.771 429.817ZM239.131 422.492C238.426 422.899 238.415 423.563 239.122 423.973L247.932 429.077C248.641 429.489 249.788 429.484 250.494 429.077L257.284 425.168C257.997 424.757 258.01 424.093 257.301 423.681L248.495 418.577C247.784 418.167 246.635 418.172 245.922 418.583L239.131 422.492ZM226.52 415.182C225.817 415.589 225.811 416.258 226.513 416.665L235.321 421.769C236.03 422.179 237.188 422.179 237.894 421.774L244.681 417.865C245.397 417.453 245.401 416.785 244.69 416.373L235.882 411.269C235.184 410.864 234.024 410.864 233.311 411.276L226.52 415.182ZM213.902 407.87C213.195 408.277 213.192 408.944 213.902 409.355L222.71 414.461C223.408 414.866 224.568 414.866 225.272 414.461L232.061 410.551C232.777 410.141 232.781 409.472 232.079 409.065L223.271 403.961C222.562 403.551 221.404 403.551 220.689 403.961L213.902 407.87ZM201.299 400.566C200.595 400.972 200.582 401.636 201.29 402.048L210.097 407.152C210.808 407.563 211.958 407.557 212.661 407.152L219.45 403.243C220.164 402.831 220.177 402.167 219.47 401.757L210.662 396.653C209.951 396.241 208.804 396.246 208.089 396.658L201.299 400.566ZM183.05 389.992C182.345 390.397 182.343 391.064 183.041 391.471L197.478 399.837C198.188 400.249 199.345 400.249 200.05 399.842L206.841 395.933C207.554 395.523 207.557 394.855 206.85 394.443L192.413 386.077C191.712 385.67 190.553 385.67 189.841 386.082L183.05 389.992ZM173.854 384.663C173.151 385.068 173.136 385.73 173.847 386.142L179.059 389.164C179.768 389.575 180.927 389.575 181.632 389.168L188.421 385.26C189.135 384.848 189.139 384.179 188.43 383.769L183.216 380.748C182.507 380.336 181.36 380.341 180.643 380.753L173.854 384.663ZM164.641 379.323C163.935 379.726 163.932 380.397 164.641 380.807L169.618 383.691C170.327 384.103 171.486 384.103 172.191 383.697L178.978 379.789C179.694 379.377 179.698 378.708 178.987 378.298L174.011 375.412C173.302 375 172.144 375 171.43 375.412L164.641 379.323ZM150.735 371.261C150.027 371.668 150.017 372.331 150.726 372.743L160.771 378.566C161.482 378.976 162.64 378.976 163.344 378.571L170.134 374.661C170.847 374.251 170.851 373.58 170.143 373.17L160.094 367.348C159.385 366.936 158.236 366.941 157.523 367.353L150.735 371.261ZM130.101 371.338C129.385 371.75 129.372 372.412 130.081 372.824L136.751 376.689C137.462 377.101 138.607 377.096 139.323 376.684L156.529 366.777C157.244 366.367 157.256 365.703 156.547 365.291L149.878 361.427C149.169 361.015 148.019 361.02 147.307 361.432L130.101 371.338ZM317.031 455.492C316.326 455.897 316.312 456.563 317.022 456.973L336.283 468.135C336.983 468.542 338.142 468.542 338.847 468.135L345.636 464.226C346.35 463.815 346.354 463.146 345.654 462.741L326.391 451.577C325.682 451.165 324.535 451.171 323.819 451.583L317.031 455.492ZM304.231 448.074C303.526 448.479 303.522 449.149 304.231 449.561L313.039 454.665C313.741 455.07 314.897 455.07 315.603 454.665L322.392 450.755C323.106 450.343 323.11 449.674 322.41 449.271L313.602 444.165C312.893 443.753 311.735 443.753 311.02 444.165L304.231 448.074ZM291.629 440.772C290.924 441.178 290.911 441.84 291.622 442.251L300.43 447.357C301.137 447.767 302.286 447.761 302.992 447.357L309.781 443.445C310.495 443.037 310.51 442.373 309.799 441.961L300.991 436.857C300.282 436.446 299.133 436.452 298.418 436.862L291.629 440.772ZM279.01 433.458C278.304 433.863 278.301 434.532 279.001 434.939L287.81 440.043C288.519 440.453 289.677 440.453 290.381 440.048L297.17 436.139C297.884 435.727 297.888 435.058 297.179 434.647L288.371 429.543C287.669 429.136 286.513 429.136 285.798 429.548L279.01 433.458ZM266.399 426.148C265.695 426.555 265.692 427.224 266.399 427.634L275.206 432.738C275.917 433.15 277.065 433.145 277.77 432.738L284.559 428.829C285.273 428.419 285.286 427.757 284.577 427.344L275.771 422.24C275.06 421.83 273.902 421.83 273.188 422.24L266.399 426.148ZM253.759 418.824C253.055 419.23 253.041 419.894 253.752 420.304L262.558 425.409C263.269 425.821 264.418 425.815 265.121 425.409L271.91 421.499C272.627 421.089 272.637 420.427 271.928 420.015L263.121 414.91C262.412 414.5 261.264 414.506 260.548 414.916L253.759 418.824ZM241.148 411.515C240.445 411.922 240.441 412.59 241.139 412.996L249.958 418.106C250.658 418.512 251.814 418.512 252.52 418.106L259.31 414.198C260.023 413.786 260.027 413.117 259.327 412.71L250.512 407.602C249.81 407.196 248.652 407.196 247.939 407.608L241.148 411.515ZM228.528 404.202C227.825 404.608 227.821 405.278 228.53 405.688L237.338 410.792C238.047 411.204 239.194 411.199 239.9 410.792L246.69 406.883C247.403 406.472 247.418 405.809 246.707 405.398L237.899 400.292C237.19 399.882 236.032 399.882 235.319 400.292L228.528 404.202ZM215.928 396.899C215.223 397.304 215.219 397.973 215.919 398.38L224.727 403.484C225.436 403.894 226.594 403.894 227.298 403.488L234.087 399.582C234.803 399.17 234.807 398.5 234.096 398.09L225.288 392.986C224.59 392.579 223.432 392.579 222.715 392.991L215.928 396.899ZM203.309 389.585C202.603 389.992 202.598 390.66 203.309 391.072L212.114 396.176C212.816 396.582 213.975 396.582 214.678 396.176L221.469 392.266C222.183 391.856 222.187 391.187 221.487 390.78L212.677 385.676C211.968 385.266 210.812 385.266 210.096 385.676L203.309 389.585ZM190.705 382.283C190.001 382.687 189.989 383.351 190.698 383.763L199.505 388.868C200.214 389.278 201.364 389.272 202.067 388.868L208.858 384.958C209.571 384.546 209.585 383.884 208.876 383.472L200.068 378.368C199.357 377.956 198.208 377.963 197.496 378.373L190.705 382.283ZM175.153 373.269C174.45 373.674 174.446 374.343 175.153 374.755L186.772 381.487C187.472 381.894 188.63 381.894 189.336 381.487L196.123 377.578C196.839 377.168 196.843 376.5 196.141 376.094L184.526 369.361C183.815 368.949 182.657 368.949 181.942 369.361L175.153 373.269ZM161.453 365.396C160.74 365.808 160.737 366.464 161.447 366.876L170.962 372.391C171.671 372.803 172.821 372.808 173.535 372.396L180.324 368.487C181.038 368.076 181.033 367.414 180.322 367.002L170.805 361.488C170.096 361.076 168.958 361.076 168.244 361.488L161.453 365.396ZM335.735 454.319C335.02 454.731 335.019 455.399 335.726 455.811L346.671 462.155C347.371 462.56 348.531 462.56 349.244 462.149L356.033 458.24C356.738 457.835 356.744 457.164 356.042 456.759L345.096 450.415C344.387 450.005 343.229 450.005 342.526 450.412L335.735 454.319ZM323.135 447.017C322.42 447.427 322.406 448.091 323.117 448.503L331.925 453.607C332.634 454.017 333.781 454.014 334.495 453.601L341.284 449.692C341.99 449.287 342.004 448.621 341.293 448.211L332.486 443.107C331.777 442.695 330.627 442.7 329.922 443.107L323.135 447.017ZM310.513 439.701C309.799 440.113 309.795 440.782 310.497 441.189L319.305 446.291C320.014 446.704 321.172 446.704 321.885 446.291L328.675 442.384C329.381 441.977 329.383 441.31 328.673 440.898L319.866 435.793C319.166 435.387 318.008 435.387 317.302 435.793L310.513 439.701ZM297.902 432.395C297.19 432.805 297.186 433.474 297.893 433.884L306.701 438.99C307.412 439.401 308.559 439.395 309.274 438.983L316.064 435.076C316.768 434.671 316.781 434.005 316.072 433.595L307.266 428.491C306.555 428.079 305.398 428.079 304.693 428.485L297.902 432.395ZM285.293 425.085C284.579 425.497 284.564 426.161 285.273 426.573L294.081 431.675C294.792 432.087 295.939 432.082 296.654 431.671L303.445 427.762C304.148 427.355 304.161 426.693 303.452 426.279L294.646 421.177C293.935 420.765 292.786 420.772 292.082 421.177L285.293 425.085ZM272.683 417.777C271.966 418.189 271.963 418.856 272.673 419.268L281.481 424.374C282.179 424.777 283.339 424.777 284.052 424.367L290.841 420.457C291.548 420.054 291.552 419.383 290.85 418.978L282.042 413.874C281.333 413.462 280.175 413.462 279.47 413.869L272.683 417.777ZM260.043 410.452C259.328 410.864 259.316 411.526 260.025 411.938L268.833 417.042C269.543 417.453 270.689 417.447 271.405 417.037L278.194 413.128C278.898 412.723 278.912 412.059 278.201 411.649L269.395 406.544C268.685 406.132 267.535 406.138 266.832 406.544L260.043 410.452ZM247.432 403.144C246.718 403.556 246.714 404.225 247.414 404.63L256.222 409.734C256.931 410.146 258.089 410.146 258.803 409.734L265.592 405.825C266.298 405.42 266.301 404.751 265.59 404.339L256.783 399.234C256.085 398.83 254.926 398.83 254.221 399.234L247.432 403.144ZM234.812 395.83C234.098 396.241 234.094 396.91 234.803 397.322L243.611 402.426C244.311 402.831 245.469 402.831 246.182 402.421L252.972 398.511C253.678 398.105 253.681 397.437 252.981 397.032L244.174 391.928C243.463 391.516 242.306 391.516 241.601 391.921L234.812 395.83ZM222.21 388.528C221.496 388.94 221.483 389.602 222.192 390.012L231 395.118C231.711 395.53 232.858 395.525 233.573 395.111L240.362 391.203C241.065 390.798 241.08 390.134 240.371 389.722L231.563 384.618C230.852 384.208 229.703 384.213 228.999 384.618L222.21 388.528ZM209.59 381.214C208.876 381.624 208.872 382.293 209.572 382.7L218.38 387.804C219.089 388.215 220.247 388.215 220.962 387.804L227.751 383.895C228.456 383.488 228.46 382.819 227.749 382.409L218.943 377.304C218.243 376.898 217.083 376.898 216.379 377.304L209.59 381.214ZM337.828 443.519C337.124 443.924 337.11 444.588 337.819 445L357.081 456.162C357.781 456.567 358.938 456.567 359.643 456.162L366.434 452.252C367.146 451.84 367.15 451.171 366.45 450.768L347.189 439.604C346.478 439.192 345.331 439.197 344.617 439.611L337.828 443.519ZM325.027 436.099C324.324 436.506 324.318 437.175 325.027 437.587L333.835 442.691C334.537 443.096 335.695 443.096 336.399 442.691L343.188 438.782C343.902 438.37 343.906 437.7 343.207 437.297L334.398 432.191C333.689 431.779 332.533 431.779 331.816 432.191L325.027 436.099ZM312.426 428.798C311.72 429.203 311.709 429.867 312.418 430.277L321.226 435.381C321.935 435.793 323.082 435.788 323.788 435.381L330.579 431.474C331.291 431.062 331.306 430.399 330.595 429.987L321.789 424.883C321.078 424.473 319.929 424.478 319.216 424.889L312.426 428.798ZM299.806 421.483C299.1 421.889 299.097 422.559 299.797 422.964L308.606 428.07C309.313 428.48 310.473 428.48 311.179 428.075L317.966 424.165C318.68 423.753 318.686 423.084 317.975 422.674L309.167 417.57C308.467 417.163 307.309 417.163 306.596 417.575L299.806 421.483ZM287.195 414.175C286.489 414.581 286.486 415.251 287.197 415.661L296.004 420.765C296.713 421.177 297.863 421.172 298.566 420.765L305.355 416.855C306.071 416.445 306.082 415.781 305.375 415.371L296.565 410.265C295.856 409.857 294.698 409.857 293.984 410.265L287.195 414.175ZM274.557 406.85C273.852 407.255 273.837 407.919 274.548 408.331L283.356 413.435C284.065 413.845 285.212 413.84 285.918 413.435L292.706 409.526C293.423 409.114 293.435 408.451 292.725 408.041L283.917 402.937C283.21 402.525 282.06 402.529 281.346 402.941L274.557 406.85ZM261.946 399.542C261.241 399.949 261.237 400.616 261.937 401.021L270.754 406.132C271.454 406.539 272.612 406.539 273.316 406.132L280.106 402.223C280.821 401.813 280.823 401.143 280.125 400.737L271.306 395.627C270.606 395.222 269.45 395.222 268.735 395.632L261.946 399.542ZM249.325 392.228C248.621 392.633 248.617 393.303 249.326 393.715L258.134 398.819C258.843 399.229 259.992 399.224 260.696 398.819L267.487 394.909C268.199 394.497 268.214 393.833 267.505 393.425L258.697 388.319C257.986 387.907 256.83 387.907 256.115 388.319L249.325 392.228ZM236.725 384.926C236.019 385.33 236.017 386 236.715 386.405L245.523 391.509C246.234 391.921 247.39 391.921 248.096 391.516L254.885 387.606C255.599 387.196 255.603 386.527 254.892 386.115L246.086 381.011C245.386 380.606 244.228 380.606 243.513 381.016L236.725 384.926ZM224.105 377.612C223.399 378.017 223.394 378.684 224.105 379.098L232.912 384.202C233.612 384.607 234.771 384.607 235.476 384.202L242.263 380.293C242.979 379.881 242.983 379.211 242.283 378.807L233.475 373.702C232.766 373.29 231.608 373.29 230.894 373.702L224.105 377.612ZM188.36 368.911C187.647 369.321 187.643 369.989 188.354 370.403L205.778 380.501C206.487 380.912 207.637 380.906 208.351 380.494L215.14 376.585C215.845 376.182 215.858 375.518 215.149 375.106L207.808 370.853L216.921 365.604C217.635 365.192 217.639 364.523 216.937 364.12L208.129 359.016C207.422 358.602 206.262 358.602 205.549 359.016L195.15 365.002L192.664 366.432L188.36 368.911ZM211.503 370.307C210.797 370.714 210.785 371.378 211.496 371.788L220.302 376.892C221.011 377.304 222.16 377.299 222.863 376.892L229.654 372.983C230.369 372.573 230.381 371.91 229.672 371.498L220.864 366.394C220.155 365.982 219.006 365.989 218.292 366.4L211.503 370.307ZM171.796 359.442C171.09 359.849 171.076 360.511 171.787 360.921L181.304 366.439C182.014 366.848 183.173 366.848 183.876 366.445L190.665 362.535C191.38 362.123 191.383 361.454 190.674 361.044L181.156 355.527C180.447 355.117 179.299 355.122 178.585 355.533L171.796 359.442ZM150.973 359.322C150.256 359.732 150.253 360.389 150.964 360.801L157.634 364.667C158.343 365.077 159.483 365.077 160.195 364.667L177.326 354.804C178.04 354.392 178.054 353.728 177.344 353.318L170.676 349.452C169.965 349.041 168.815 349.047 168.103 349.457L150.973 359.322ZM184.89 354.952C184.176 355.362 184.181 356.027 184.892 356.438L194.409 361.954C195.118 362.364 196.256 362.364 196.971 361.954L203.761 358.044C204.474 357.632 204.478 356.976 203.769 356.564L194.252 351.047C193.543 350.637 192.394 350.632 191.679 351.042L184.89 354.952ZM171.769 347.347C171.054 347.759 171.051 348.417 171.76 348.827L181.278 354.343C181.986 354.755 183.126 354.755 183.84 354.343L190.629 350.434C191.344 350.024 191.347 349.363 190.638 348.953L181.121 343.439C180.411 343.027 179.272 343.027 178.558 343.439L171.769 347.347ZM354.583 441.184C353.87 441.594 353.875 442.258 354.573 442.663L363.383 447.769C364.092 448.179 365.239 448.184 365.954 447.774L372.745 443.864C373.457 443.452 373.452 442.789 372.743 442.378L363.935 437.274C363.235 436.867 362.086 436.862 361.373 437.274L354.583 441.184ZM341.982 433.879C341.266 434.293 341.263 434.95 341.973 435.36L350.781 440.464C351.49 440.876 352.629 440.876 353.345 440.464L360.132 436.554C360.848 436.144 360.852 435.488 360.141 435.076L351.333 429.971C350.624 429.559 349.486 429.559 348.771 429.971L341.982 433.879ZM329.363 426.567C328.646 426.977 328.643 427.634 329.354 428.046L338.161 433.15C338.87 433.561 340.02 433.568 340.732 433.158L347.523 429.248C348.237 428.836 348.23 428.172 347.521 427.762L338.713 422.658C338.004 422.246 336.866 422.246 336.15 422.658L329.363 426.567ZM316.752 419.257C316.037 419.669 316.043 420.333 316.752 420.743L325.56 425.848C326.26 426.254 327.409 426.26 328.121 425.848L334.912 421.938C335.625 421.528 335.621 420.864 334.921 420.459L326.112 415.353C325.403 414.943 324.255 414.937 323.541 415.348L316.752 419.257ZM304.139 411.951C303.427 412.361 303.423 413.018 304.132 413.43L312.94 418.534C313.651 418.944 314.789 418.944 315.502 418.534L322.292 414.624C323.005 414.212 323.009 413.556 322.301 413.146L313.492 408.041C312.783 407.629 311.643 407.629 310.93 408.041L304.139 411.951ZM291.53 404.641C290.816 405.053 290.821 405.717 291.521 406.12L300.329 411.226C301.04 411.638 302.187 411.643 302.902 411.231L309.689 407.322C310.405 406.911 310.4 406.248 309.689 405.836L300.883 400.731C300.181 400.326 299.034 400.321 298.319 400.731L291.53 404.641ZM278.881 397.311C278.167 397.721 278.172 398.387 278.881 398.797L287.689 403.901C288.391 404.308 289.538 404.312 290.253 403.901L297.042 399.992C297.756 399.582 297.749 398.916 297.051 398.511L288.243 393.407C287.532 392.995 286.385 392.991 285.67 393.401L278.881 397.311ZM266.28 390.008C265.565 390.42 265.562 391.077 266.272 391.489L275.078 396.591C275.787 397.003 276.928 397.003 277.642 396.591L284.431 392.684C285.145 392.272 285.149 391.615 284.438 391.203L275.632 386.099C274.921 385.688 273.783 385.688 273.07 386.099L266.28 390.008ZM253.66 382.695C252.945 383.105 252.951 383.769 253.651 384.174L262.459 389.278C263.168 389.692 264.317 389.695 265.031 389.283L271.82 385.375C272.535 384.965 272.529 384.3 271.818 383.889L263.011 378.785C262.312 378.378 261.163 378.373 260.449 378.785L253.66 382.695ZM241.058 375.39C240.344 375.802 240.34 376.461 241.051 376.873L249.857 381.975C250.568 382.387 251.706 382.387 252.42 381.975L259.209 378.067C259.924 377.655 259.927 376.999 259.218 376.587L250.411 371.48C249.7 371.07 248.563 371.07 247.847 371.48L241.058 375.39ZM228.438 368.078C227.724 368.488 227.72 369.147 228.429 369.557L237.237 374.661C237.948 375.073 239.097 375.077 239.81 374.667L246.6 370.757C247.313 370.349 247.308 369.683 246.598 369.273L237.791 364.169C237.08 363.757 235.943 363.757 235.227 364.169L228.438 368.078ZM215.827 360.768C215.115 361.18 215.12 361.844 215.829 362.256L224.637 367.359C225.337 367.765 226.484 367.771 227.199 367.359L233.988 363.451C234.702 363.039 234.697 362.375 233.997 361.968L225.191 356.864C224.48 356.454 223.331 356.448 222.616 356.859L215.827 360.768ZM182.253 341.31C181.538 341.721 181.535 342.381 182.244 342.791L211.95 360.007C212.659 360.417 213.798 360.417 214.514 360.007L221.301 356.098C222.017 355.686 222.021 355.029 221.31 354.617L191.603 337.401C190.896 336.991 189.756 336.991 189.042 337.401L182.253 341.31ZM369.106 437.576C368.393 437.987 368.389 438.654 369.097 439.068L377.906 444.172C378.606 444.577 379.763 444.577 380.477 444.167L387.266 440.257C387.971 439.85 387.975 439.181 387.275 438.776L378.469 433.672C377.758 433.26 376.6 433.26 375.896 433.667L369.106 437.576ZM356.506 430.272C355.791 430.684 355.777 431.348 356.488 431.758L365.295 436.862C366.004 437.274 367.154 437.269 367.868 436.857L374.657 432.949C375.361 432.542 375.375 431.878 374.664 431.468L365.856 426.362C365.147 425.952 364 425.957 363.295 426.362L356.506 430.272ZM343.886 422.96C343.17 423.37 343.166 424.038 343.868 424.444L352.676 429.548C353.385 429.959 354.543 429.959 355.255 429.548L362.046 425.639C362.752 425.234 362.755 424.565 362.044 424.155L353.237 419.05C352.537 418.644 351.378 418.644 350.673 419.05L343.886 422.96ZM331.284 415.655C330.57 416.067 330.557 416.731 331.264 417.141L340.074 422.246C340.783 422.658 341.932 422.652 342.645 422.24L349.435 418.331C350.139 417.926 350.152 417.262 349.444 416.85L340.637 411.746C339.926 411.336 338.778 411.341 338.073 411.746L331.284 415.655ZM318.662 408.342C317.95 408.752 317.937 409.416 318.644 409.828L327.452 414.932C328.163 415.342 329.31 415.337 330.027 414.927L336.815 411.017C337.519 410.61 337.532 409.948 336.825 409.538L328.017 404.432C327.306 404.02 326.157 404.027 325.453 404.432L318.662 408.342ZM306.053 401.034C305.337 401.446 305.334 402.113 306.044 402.525L314.852 407.629C315.55 408.036 316.71 408.036 317.425 407.624L324.214 403.714C324.919 403.309 324.923 402.64 324.221 402.234L315.413 397.129C314.706 396.719 313.546 396.719 312.842 397.124L306.053 401.034ZM293.414 393.709C292.699 394.119 292.687 394.783 293.396 395.195L302.203 400.299C302.914 400.711 304.06 400.704 304.776 400.292L311.565 396.384C312.27 395.98 312.283 395.316 311.572 394.904L302.766 389.8C302.055 389.389 300.908 389.393 300.204 389.8L293.414 393.709ZM280.803 386.399C280.088 386.811 280.085 387.48 280.785 387.887L289.593 392.991C290.302 393.401 291.46 393.401 292.174 392.991L298.963 389.082C299.669 388.675 299.672 388.008 298.961 387.594L290.154 382.491C289.455 382.087 288.297 382.087 287.592 382.491L280.803 386.399ZM268.183 379.087C267.469 379.498 267.465 380.167 268.176 380.577L276.984 385.681C277.682 386.088 278.84 386.088 279.554 385.676L286.343 381.766C287.049 381.363 287.052 380.694 286.352 380.287L277.545 375.183C276.836 374.773 275.677 374.773 274.972 375.178L268.183 379.087ZM255.581 371.783C254.869 372.195 254.854 372.859 255.563 373.271L264.371 378.373C265.082 378.785 266.231 378.78 266.944 378.369L273.732 374.46C274.436 374.053 274.451 373.389 273.742 372.977L264.934 367.875C264.223 367.463 263.076 367.468 262.372 367.875L255.581 371.783ZM242.961 364.469C242.249 364.879 242.243 365.55 242.943 365.955L251.751 371.059C252.46 371.471 253.618 371.471 254.333 371.059L261.123 367.15C261.827 366.745 261.831 366.078 261.122 365.666L252.314 360.56C251.614 360.155 250.454 360.155 249.75 360.56L242.961 364.469ZM230.361 357.166C229.645 357.578 229.632 358.242 230.342 358.654L239.151 363.757C239.858 364.169 241.007 364.163 241.724 363.753L248.511 359.843C249.216 359.437 249.231 358.773 248.52 358.361L239.712 353.259C239.003 352.847 237.854 352.852 237.148 353.259L230.361 357.166ZM217.617 349.783C216.903 350.193 216.899 350.862 217.601 351.267L226.407 356.371C227.116 356.783 228.276 356.783 228.988 356.371L235.779 352.462C236.481 352.059 236.486 351.387 235.777 350.977L226.97 345.873C226.27 345.466 225.111 345.466 224.406 345.873L217.617 349.783ZM205.015 342.478C204.301 342.89 204.29 343.554 204.997 343.964L213.805 349.068C214.516 349.48 215.663 349.475 216.378 349.063L223.167 345.155C223.872 344.749 223.885 344.085 223.174 343.673L214.368 338.568C213.659 338.158 212.51 338.164 211.806 338.568L205.015 342.478ZM199.45 331.41C200.155 331.003 201.302 330.998 202.013 331.41L210.821 336.514C211.528 336.924 211.515 337.59 210.812 337.994L204.023 341.902C203.309 342.316 202.159 342.32 201.45 341.909L192.644 336.803C191.934 336.393 191.946 335.729 192.661 335.319L199.45 331.41Z" fill="#B4B9F6"/>
<path fill-rule="evenodd" clip-rule="evenodd" d="M275.113 319.855C276.91 318.821 279.811 318.821 281.592 319.852L406.948 392.502C408.729 393.533 408.72 395.208 406.921 396.244L380.182 410.94C378.385 411.976 375.486 411.974 373.703 410.943L248.349 338.295C246.569 337.264 246.578 335.587 248.376 334.553L275.113 319.855Z" fill="#BBB8F6"/>
<path fill-rule="evenodd" clip-rule="evenodd" d="M276.812 318.664C278.553 317.662 281.358 317.662 283.081 318.661L405.669 386.509C405.669 386.509 405.675 390.114 405.669 390.769C405.664 391.424 405.227 392.081 404.358 392.581L378.483 406.803C376.746 407.806 373.939 407.805 372.216 406.807L250.914 336.506C250.051 336.008 249.624 335.351 249.627 334.697C249.633 334.042 249.712 330.184 249.712 330.184L276.812 318.664Z" fill="#9796F7"/>
<path fill-rule="evenodd" clip-rule="evenodd" d="M276.812 314.639C278.553 313.637 281.358 313.637 283.081 314.636L404.383 384.936C406.106 385.935 406.097 387.556 404.358 388.558L378.483 402.778C376.746 403.781 373.939 403.781 372.216 402.782L250.914 332.483C249.189 331.483 249.198 329.864 250.939 328.862L276.812 314.639Z" fill="#D9DFF6"/>
<mask id="mask2" mask-type="alpha" maskUnits="userSpaceOnUse" x="210" y="69" width="254" height="339">
<path fill-rule="evenodd" clip-rule="evenodd" d="M210.726 69.1709H463.424V407.776H210.726V69.1709Z" fill="white"/>
</mask>
<g mask="url(#mask2)">
<path fill-rule="evenodd" clip-rule="evenodd" d="M457.325 206.673L219.943 69.9981C218.181 68.9834 216.602 68.9384 215.484 69.6598L215.46 69.6472L210.726 72.4521L213.802 74.2369L213.281 257.395C213.27 261.273 215.998 265.985 219.381 267.931L455.353 403.795L452.472 405.502L456.388 407.777L461.198 404.981L461.162 404.959C462.223 404.308 462.898 403.007 462.903 401.118L463.424 217.209C463.437 213.334 460.707 208.622 457.325 206.673Z" fill="#9796F7"/>
</g>
<path fill-rule="evenodd" clip-rule="evenodd" d="M363.156 329.553V373.281L358.897 375.581L307.735 343.099V296.436L363.156 329.553Z" fill="#9796F7"/>
<path fill-rule="evenodd" clip-rule="evenodd" d="M358.896 330.257V375.58L303.475 343.805V297.14L358.896 330.257Z" fill="#B4B9F6"/>
<path fill-rule="evenodd" clip-rule="evenodd" d="M451.63 209.511C455.013 211.46 457.741 216.172 457.73 220.045L457.207 403.956C457.196 407.831 454.448 409.393 451.067 407.446L213.684 270.769C210.302 268.822 207.576 264.11 207.585 260.233L208.11 76.3244C208.119 72.449 210.866 70.8874 214.249 72.8359L451.63 209.511Z" fill="#D9DFF6"/>
<path fill-rule="evenodd" clip-rule="evenodd" d="M215.015 241.466C214.997 245.984 218.205 251.493 222.142 253.753L356.008 330.824L442.739 380.768C446.676 383.046 449.883 381.22 449.9 376.702L450.302 231.335C450.32 226.8 447.128 221.307 443.192 219.031L334.47 156.436L222.594 92.0153C218.658 89.7556 215.432 91.5638 215.432 96.0994L215.015 241.466Z" fill="#F7F7F7"/>
<path fill-rule="evenodd" clip-rule="evenodd" d="M250.467 124.182L416.688 220.058C418.245 220.955 419.205 222.611 419.207 224.406L419.346 342.057C419.349 345.938 415.131 348.363 411.767 346.413L245.549 250.156C243.996 249.256 243.039 247.601 243.038 245.811L242.895 128.543C242.892 124.666 247.101 122.241 250.467 124.182Z" fill="#D9DFF6"/>
<path fill-rule="evenodd" clip-rule="evenodd" d="M408.421 289.462L247.342 196.179L247.344 197.622L408.423 290.903L408.421 289.462Z" fill="white"/>
<path fill-rule="evenodd" clip-rule="evenodd" d="M408.439 304.584L247.361 211.303L247.363 212.746L408.441 306.027L408.439 304.584Z" fill="white"/>
<path fill-rule="evenodd" clip-rule="evenodd" d="M408.456 319.707L247.379 226.425L247.381 227.868L408.458 321.149L408.456 319.707Z" fill="white"/>
<path fill-rule="evenodd" clip-rule="evenodd" d="M408.347 229.156L247.27 135.873L247.271 137.315L408.349 230.597L408.347 229.156Z" fill="white"/>
<path fill-rule="evenodd" clip-rule="evenodd" d="M408.476 334.831L247.398 241.548L247.4 242.991L408.478 336.272L408.476 334.831Z" fill="white"/>
<path fill-rule="evenodd" clip-rule="evenodd" d="M408.365 244.093L247.287 150.812L247.289 152.255L408.367 245.536L408.365 244.093Z" fill="white"/>
<path fill-rule="evenodd" clip-rule="evenodd" d="M408.384 259.216L247.307 165.935L247.308 167.377L408.386 260.659L408.384 259.216Z" fill="white"/>
<path fill-rule="evenodd" clip-rule="evenodd" d="M408.402 274.339L247.324 181.056L247.326 182.499L408.404 275.78L408.402 274.339Z" fill="white"/>
<path fill-rule="evenodd" clip-rule="evenodd" d="M247.269 136.527L247.397 241.553L248.714 242.313L248.586 137.279L247.269 136.527Z" fill="white"/>
<path fill-rule="evenodd" clip-rule="evenodd" d="M263.27 145.822L263.398 250.848L264.714 251.608L264.586 146.574L263.27 145.822Z" fill="white"/>
<path fill-rule="evenodd" clip-rule="evenodd" d="M279.273 155.118L279.399 260.146L280.716 260.903L280.588 155.87L279.273 155.118Z" fill="white"/>
<path fill-rule="evenodd" clip-rule="evenodd" d="M295.271 164.414L295.399 269.44L296.718 270.197L296.588 165.166L295.271 164.414Z" fill="white"/>
<path fill-rule="evenodd" clip-rule="evenodd" d="M311.272 173.708L311.4 278.736L312.719 279.492L312.589 174.46L311.272 173.708Z" fill="white"/>
<path fill-rule="evenodd" clip-rule="evenodd" d="M327.274 183.003L327.401 288.03L328.716 288.787L328.59 183.755L327.274 183.003Z" fill="white"/>
<path fill-rule="evenodd" clip-rule="evenodd" d="M343.276 192.3L343.402 297.326L344.719 298.083L344.591 193.05L343.276 192.3Z" fill="white"/>
<path fill-rule="evenodd" clip-rule="evenodd" d="M359.275 201.594L359.401 306.622L360.72 307.38L360.59 202.346L359.275 201.594Z" fill="white"/>
<path fill-rule="evenodd" clip-rule="evenodd" d="M375.276 210.891L375.402 315.917L376.721 316.674L376.591 211.643L375.276 210.891Z" fill="white"/>
<path fill-rule="evenodd" clip-rule="evenodd" d="M391.277 220.185L391.403 325.213L392.722 325.97L392.594 220.937L391.277 220.185Z" fill="white"/>
<path fill-rule="evenodd" clip-rule="evenodd" d="M407.276 228.521L407.406 335.643L408.721 336.399L408.591 229.273L407.276 228.521Z" fill="white"/>
<path fill-rule="evenodd" clip-rule="evenodd" d="M359.299 279.441L330.029 217.886L300.326 243.033L287.504 222.708L250.951 245.323L249.742 244.073L287.905 219.908L300.876 240.487L331.121 214.8L360.243 274.963L405.734 229.409L407.237 230.286L359.299 279.441Z" fill="#9796F7"/>
<path fill-rule="evenodd" clip-rule="evenodd" d="M188.875 150.774L225.686 172.002C228.492 173.62 232.002 171.601 232.002 168.368V119.341C232.002 117.842 231.201 116.457 229.899 115.706L193.089 94.478C190.284 92.8605 186.773 94.8792 186.773 98.1123V147.139C186.773 148.638 187.574 150.024 188.875 150.774Z" fill="#B4B9F6"/>
<path fill-rule="evenodd" clip-rule="evenodd" d="M209.423 131.511L191.597 121.159C191.164 120.905 191.016 120.349 191.268 119.915C191.525 119.48 192.086 119.336 192.517 119.588L210.342 129.938C210.776 130.192 210.924 130.75 210.668 131.182C210.5 131.473 210.197 131.633 209.883 131.633C209.726 131.633 209.568 131.594 209.423 131.511ZM209.423 127.443L191.597 117.091C191.164 116.837 191.016 116.281 191.268 115.847C191.525 115.412 192.086 115.266 192.517 115.518L210.342 125.872C210.776 126.124 210.924 126.682 210.668 127.116C210.5 127.405 210.197 127.567 209.883 127.567C209.726 127.567 209.568 127.528 209.423 127.443ZM209.423 123.375L191.597 113.023C191.164 112.769 191.016 112.211 191.268 111.78C191.525 111.344 192.086 111.2 192.517 111.45L210.342 121.803C210.776 122.056 210.924 122.614 210.668 123.046C210.5 123.337 210.197 123.497 209.883 123.497C209.726 123.497 209.568 123.458 209.423 123.375ZM209.423 119.307L191.597 108.955C191.164 108.701 191.016 108.145 191.268 107.712C191.525 107.276 192.086 107.132 192.517 107.382L210.342 117.735C210.776 117.988 210.924 118.544 210.668 118.978C210.5 119.268 210.197 119.43 209.883 119.43C209.726 119.43 209.568 119.39 209.423 119.307ZM209.883 115.362C210.197 115.362 210.5 115.2 210.668 114.91C210.924 114.476 210.776 113.921 210.342 113.667L192.517 103.314C192.086 103.064 191.525 103.208 191.268 103.644C191.016 104.077 191.164 104.633 191.597 104.887L209.423 115.239C209.568 115.322 209.726 115.362 209.883 115.362ZM211.752 132.751V117.091C211.752 115.75 213.208 114.914 214.37 115.585L226.037 122.314C226.577 122.625 226.909 123.197 226.909 123.82V139.479C226.909 140.818 225.455 141.656 224.291 140.985L212.624 134.256C212.086 133.947 211.752 133.371 211.752 132.751Z" fill="#FFFAFF"/>
<path fill-rule="evenodd" clip-rule="evenodd" d="M209.423 155.919L191.597 145.567C191.164 145.313 191.016 144.757 191.268 144.324C191.525 143.888 192.086 143.744 192.517 143.996L210.342 154.349C210.776 154.6 210.924 155.158 210.668 155.59C210.5 155.881 210.197 156.043 209.883 156.043C209.726 156.043 209.568 156.002 209.423 155.919ZM209.423 151.851L191.597 141.499C191.164 141.245 191.016 140.689 191.268 140.256C191.525 139.82 192.086 139.676 192.517 139.928L210.342 150.281C210.776 150.534 210.924 151.09 210.668 151.524C210.5 151.813 210.197 151.975 209.883 151.975C209.726 151.975 209.568 151.936 209.423 151.851ZM209.423 147.783L191.597 137.431C191.164 137.177 191.016 136.621 191.268 136.188C191.525 135.754 192.086 135.608 192.517 135.86L210.342 146.213C210.776 146.466 210.924 147.022 210.668 147.454C210.5 147.746 210.197 147.907 209.883 147.907C209.726 147.907 209.568 147.866 209.423 147.783ZM209.423 143.715L191.597 133.363C191.164 133.109 191.016 132.553 191.268 132.12C191.525 131.684 192.086 131.541 192.517 131.792L210.342 142.145C210.776 142.397 210.924 142.953 210.668 143.386C210.5 143.678 210.197 143.84 209.883 143.84C209.726 143.84 209.568 143.798 209.423 143.715ZM209.883 139.77C210.197 139.77 210.5 139.61 210.668 139.318C210.924 138.886 210.776 138.329 210.342 138.077L192.517 127.724C192.086 127.473 191.525 127.618 191.268 128.052C191.016 128.486 191.164 129.043 191.597 129.295L209.423 139.648C209.568 139.73 209.726 139.77 209.883 139.77ZM211.752 157.159V141.499C211.752 140.16 213.208 139.322 214.37 139.993L226.037 146.722C226.577 147.033 226.909 147.607 226.909 148.228V163.888C226.909 165.228 225.455 166.065 224.291 165.394L212.624 158.665C212.086 158.355 211.752 157.781 211.752 157.159Z" fill="#FFFAFF"/>
<path fill-rule="evenodd" clip-rule="evenodd" d="M187.469 220.443L224.28 241.671C227.086 243.289 230.596 241.27 230.596 238.037V189.01C230.596 187.511 229.795 186.126 228.493 185.375L191.683 164.147C188.878 162.53 185.367 164.55 185.367 167.781V216.809C185.367 218.307 186.168 219.693 187.469 220.443Z" fill="#B4B9F6"/>
<path fill-rule="evenodd" clip-rule="evenodd" d="M208.017 201.18L190.191 190.828C189.758 190.574 189.61 190.018 189.862 189.585C190.119 189.149 190.68 189.005 191.111 189.257L208.936 199.61C209.37 199.863 209.518 200.419 209.262 200.851C209.094 201.143 208.789 201.303 208.477 201.303C208.32 201.303 208.162 201.263 208.017 201.18ZM208.017 197.112L190.191 186.76C189.758 186.506 189.61 185.95 189.862 185.517C190.119 185.081 190.68 184.938 191.111 185.189L208.936 195.542C209.37 195.796 209.518 196.351 209.262 196.785C209.094 197.075 208.789 197.237 208.477 197.237C208.32 197.237 208.162 197.197 208.017 197.112ZM208.017 193.045L190.191 182.692C189.758 182.439 189.61 181.883 189.862 181.449C190.119 181.015 190.68 180.87 191.111 181.122L208.936 191.474C209.37 191.728 209.518 192.284 209.262 192.715C209.094 193.007 208.789 193.169 208.477 193.169C208.32 193.169 208.162 193.127 208.017 193.045ZM208.017 188.977L190.191 178.624C189.758 178.371 189.61 177.815 189.862 177.381C190.119 176.946 190.68 176.802 191.111 177.054L208.936 187.406C209.37 187.658 209.518 188.214 209.262 188.647C209.094 188.939 208.789 189.101 208.477 189.101C208.32 189.101 208.162 189.059 208.017 188.977ZM208.477 185.031C208.789 185.031 209.094 184.871 209.262 184.58C209.518 184.146 209.37 183.59 208.936 183.338L191.111 172.986C190.68 172.734 190.119 172.88 189.862 173.313C189.61 173.747 189.758 174.305 190.191 174.556L208.017 184.909C208.162 184.992 208.32 185.031 208.477 185.031ZM210.346 202.42V186.76C210.346 185.422 211.802 184.583 212.964 185.254L224.632 191.983C225.171 192.294 225.503 192.868 225.503 193.489V209.149C225.503 210.489 224.049 211.326 222.885 210.655L211.218 203.926C210.68 203.616 210.346 203.043 210.346 202.42Z" fill="#FFFAFF"/>
<path fill-rule="evenodd" clip-rule="evenodd" d="M208.017 225.589L190.191 215.237C189.758 214.983 189.61 214.427 189.862 213.994C190.119 213.558 190.68 213.415 191.111 213.666L208.936 224.017C209.37 224.271 209.518 224.827 209.262 225.26C209.094 225.552 208.789 225.712 208.477 225.712C208.32 225.712 208.162 225.672 208.017 225.589ZM208.017 221.522L190.191 211.169C189.758 210.916 189.61 210.36 189.862 209.926C190.119 209.491 190.68 209.345 191.111 209.597L208.936 219.951C209.37 220.203 209.518 220.761 209.262 221.194C209.094 221.484 208.789 221.646 208.477 221.646C208.32 221.646 208.162 221.606 208.017 221.522ZM208.017 217.454L190.191 207.101C189.758 206.848 189.61 206.29 189.862 205.858C190.119 205.423 190.68 205.279 191.111 205.529L208.936 215.881C209.37 216.135 209.518 216.693 209.262 217.124C209.094 217.416 208.789 217.576 208.477 217.576C208.32 217.576 208.162 217.536 208.017 217.454ZM208.017 213.386L190.191 203.033C189.758 202.78 189.61 202.224 189.862 201.79C190.119 201.355 190.68 201.211 191.111 201.461L208.936 211.813C209.37 212.067 209.518 212.623 209.262 213.057C209.094 213.346 208.789 213.508 208.477 213.508C208.32 213.508 208.162 213.469 208.017 213.386ZM208.477 209.44C208.789 209.44 209.094 209.278 209.262 208.989C209.518 208.555 209.37 207.999 208.936 207.745L191.111 197.395C190.68 197.143 190.119 197.287 189.862 197.722C189.61 198.156 189.758 198.712 190.191 198.965L208.017 209.318C208.162 209.401 208.32 209.44 208.477 209.44ZM210.346 226.829V211.169C210.346 209.829 211.802 208.992 212.964 209.663L224.632 216.392C225.171 216.703 225.503 217.276 225.503 217.898V233.558C225.503 234.898 224.049 235.735 222.885 235.064L211.218 228.335C210.68 228.026 210.346 227.45 210.346 226.829Z" fill="#FFFAFF"/>
<path fill-rule="evenodd" clip-rule="evenodd" d="M247.814 259.486L292.874 285.471C296.309 287.452 300.606 284.98 300.606 281.024V221.007C300.606 219.174 299.625 217.479 298.032 216.56L252.97 190.574C249.537 188.593 245.239 191.065 245.239 195.022V255.038C245.239 256.872 246.221 258.568 247.814 259.486Z" fill="#B4B9F6"/>
<path fill-rule="evenodd" clip-rule="evenodd" d="M259.014 265.946L284.741 280.782C284.741 280.782 284.741 261.628 280.835 254.269C277.004 247.051 267.71 243.917 263.739 247.724C258.821 252.438 259.014 265.946 259.014 265.946ZM263.739 218.655C268.711 215.425 276.366 218.358 280.835 225.202C285.303 232.046 284.897 240.212 279.924 243.442C274.951 246.671 267.298 243.739 262.828 236.895C258.361 230.049 258.767 221.884 263.739 218.655Z" fill="#FFFAFF"/>
<mask id="mask3" mask-type="alpha" maskUnits="userSpaceOnUse" x="399" y="210" width="39" height="54">
<path fill-rule="evenodd" clip-rule="evenodd" d="M399.933 212.434V242.224C399.933 242.87 400.284 243.467 400.849 243.791L434.911 263.291C436.131 263.991 437.659 263.12 437.659 261.723V231.935C437.659 231.289 437.309 230.691 436.744 230.365L402.682 210.864C402.386 210.695 402.073 210.619 401.769 210.619C400.813 210.619 399.933 211.375 399.933 212.434Z" fill="white"/>
</mask>
<g mask="url(#mask3)">
<path fill-rule="evenodd" clip-rule="evenodd" d="M399.935 243.267L437.658 264.864V230.889L399.935 209.292V243.267Z" fill="#D1D3FF"/>
</g>
<mask id="mask4" mask-type="alpha" maskUnits="userSpaceOnUse" x="399" y="210" width="39" height="54">
<path fill-rule="evenodd" clip-rule="evenodd" d="M399.933 212.434V242.224C399.933 242.87 400.284 243.467 400.849 243.791L434.911 263.291C436.131 263.991 437.659 263.12 437.659 261.723V231.935C437.659 231.289 437.309 230.691 436.744 230.365L402.682 210.864C402.386 210.695 402.073 210.619 401.769 210.619C400.813 210.619 399.933 211.375 399.933 212.434Z" fill="white"/>
</mask>
<g mask="url(#mask4)">
<path fill-rule="evenodd" clip-rule="evenodd" d="M399.935 243.267L437.658 264.864L417.755 234.631L399.935 243.267Z" fill="#D9DFF6"/>
</g>
<mask id="mask5" mask-type="alpha" maskUnits="userSpaceOnUse" x="399" y="210" width="39" height="54">
<path fill-rule="evenodd" clip-rule="evenodd" d="M399.933 212.434V242.224C399.933 242.87 400.284 243.467 400.849 243.791L434.911 263.291C436.131 263.991 437.659 263.12 437.659 261.723V231.935C437.659 231.289 437.309 230.691 436.744 230.365L402.682 210.864C402.386 210.695 402.073 210.619 401.769 210.619C400.813 210.619 399.933 211.375 399.933 212.434Z" fill="white"/>
</mask>
<g mask="url(#mask5)">
<path fill-rule="evenodd" clip-rule="evenodd" d="M419.526 237.077L437.659 230.889L399.935 209.292L416.139 235.86C416.837 237.005 418.248 237.513 419.526 237.077Z" fill="#D9DFF6"/>
</g>
<path fill-rule="evenodd" clip-rule="evenodd" d="M223.384 368.09C223.384 368.09 224.3 365.047 229.745 366.043C230.647 366.207 231.592 369.953 231.592 369.953L241.536 372.933C241.536 372.933 222.672 379.949 222.84 376.94C223.09 372.449 223.384 368.09 223.384 368.09Z" fill="#130159"/>
<path fill-rule="evenodd" clip-rule="evenodd" d="M220.366 289.141L223.378 368.923C225.185 371.364 231.309 369.312 231.309 369.312C231.617 366.959 237.452 293.416 237.452 293.416L220.366 289.141Z" fill="#5601F3"/>
<path fill-rule="evenodd" clip-rule="evenodd" d="M258.664 241.116C259.948 241.692 260.161 240.242 260.335 239.109C260.407 238.635 260.674 237.473 260.795 237.411C261.018 237.298 261.336 238.667 261.533 238.276C261.666 238.015 264.191 234.373 266.099 236.516C267.091 237.628 264.244 241.197 263.127 241.734C260.972 242.766 260.57 241.754 259.191 243.415L258.664 241.116Z" fill="#F4C5A2"/>
<path fill-rule="evenodd" clip-rule="evenodd" d="M238.388 243.856C243.652 247.361 248.149 247.946 248.149 247.946L259.846 239.564C259.846 239.564 261.419 238.916 261.984 242.757C261.984 242.757 249.996 256.33 247.345 256.66C244.695 256.991 240.839 255.087 234.55 251.629C223.901 245.779 232.877 240.19 238.388 243.856Z" fill="#00CDC4"/>
<path fill-rule="evenodd" clip-rule="evenodd" d="M233.081 372.058C233.081 372.058 233.997 369.013 239.442 370.009C240.344 370.175 241.289 373.919 241.289 373.919L251.233 376.901C251.233 376.901 232.369 383.917 232.537 380.907C232.787 376.415 233.081 372.058 233.081 372.058Z" fill="#130159"/>
<path fill-rule="evenodd" clip-rule="evenodd" d="M230.105 295.372L233.119 372.72C234.924 375.161 241.049 373.107 241.049 373.107C241.356 370.756 247.191 297.212 247.191 297.212L230.105 295.372Z" fill="#681EF7"/>
<path fill-rule="evenodd" clip-rule="evenodd" d="M238.865 234.718L240.053 242.019L233.117 241.543L234.479 235.374L238.865 234.718Z" fill="#FED4BD"/>
<path fill-rule="evenodd" clip-rule="evenodd" d="M242.313 240.473L232.432 239.245L231.306 243.216L242.702 243.74L242.313 240.473Z" fill="white"/>
<path fill-rule="evenodd" clip-rule="evenodd" d="M241.275 229.241C241.782 232.722 240.811 236.528 237.053 236.286C234.191 236.104 231.504 234.205 230.996 230.724C230.489 227.241 232.379 224.086 235.217 223.677C238.056 223.268 240.768 225.758 241.275 229.241Z" fill="#FED4BD"/>
<path fill-rule="evenodd" clip-rule="evenodd" d="M233.961 236.859C233.961 236.859 235.266 237.9 237.053 236.287C237.053 236.287 238.085 234.037 238.049 232.932C238.016 232.035 236.749 230.904 237.044 230.132C237.62 228.635 239.017 228.911 239.405 231.837C239.568 230.459 246.957 226.884 242.356 223.556C236.383 219.237 227.281 223.039 230.433 228.612C227.762 229.367 231.736 234.419 233.961 236.859Z" fill="#3D00BD"/>
<path fill-rule="evenodd" clip-rule="evenodd" d="M245.737 246.979C246.928 250.895 248.601 283.48 251.174 295.605C246.387 301.707 224.187 303.046 217.872 295.925C217.872 295.925 219.679 271.938 226.318 249.565C229.125 240.1 237.688 236.922 245.737 246.979Z" fill="#01E4D0"/>
<path fill-rule="evenodd" clip-rule="evenodd" d="M270.437 249.318C272.27 249.68 272.871 247.41 273.391 246.305C275.185 242.491 274.814 245.223 275.084 245.286C275.797 245.451 279.021 243.904 279.43 245.644C279.888 247.592 277.339 248.974 275.895 249.743C273.105 251.228 273.129 249.626 271.49 251.623L270.437 249.318Z" fill="#F4C5A2"/>
<path fill-rule="evenodd" clip-rule="evenodd" d="M243.566 244.25C252.67 253.935 253.494 255.081 253.494 255.081L272.199 247.349C272.199 247.349 275.769 247.803 274.499 251.733C274.499 251.733 257.182 266.331 252.897 266.066C248.613 265.801 243.045 259.41 236.823 252.446C228.491 243.12 237.739 238.052 243.566 244.25Z" fill="#01E4D0"/>
<path fill-rule="evenodd" clip-rule="evenodd" d="M292.118 307.156C292.118 307.156 288.038 305.125 287.531 304.612C287.022 304.098 285.246 301.958 284.077 301.888C283.345 301.843 283.941 302.461 284.45 303.271C285.619 305.145 281.387 301.518 280.378 302.976C279.73 303.907 280.302 307.405 285.226 308.316C287.301 308.698 289.426 310.443 290.306 310.738L292.118 307.156Z" fill="#F4C5A2"/>
<path fill-rule="evenodd" clip-rule="evenodd" d="M303.797 298.279C305.651 308.586 308.082 314.135 308.082 314.135L287.656 304.083C287.656 304.083 283.434 303.225 285.267 308.975C285.267 308.975 311.308 326.229 320.038 320.6C324.689 317.6 318.705 295.389 311.466 291.782C307.61 290.553 302.242 289.627 303.797 298.279Z" fill="#F6DD03"/>
<path fill-rule="evenodd" clip-rule="evenodd" d="M298.271 284.584V292.109L304.268 291.388L302.005 283.729L298.271 284.584Z" fill="#FED4BD"/>
<path fill-rule="evenodd" clip-rule="evenodd" d="M298.329 288.552L304.144 287.727L305.536 290.967L297.047 292.232L298.329 288.552Z" fill="#FFFAFF"/>
<path fill-rule="evenodd" clip-rule="evenodd" d="M311.829 408.166C311.829 408.166 309.457 407.181 304.622 408.633C301.385 409.602 293.981 412.276 293.981 412.276C293.981 412.276 311.834 417.134 311.854 414.381C311.881 410.276 311.829 408.166 311.829 408.166Z" fill="#130159"/>
<path fill-rule="evenodd" clip-rule="evenodd" d="M301.589 413.436C301.589 413.436 299.397 413.301 294.38 413.902C292.242 414.157 283.739 417.546 283.739 417.546C283.739 417.546 301.594 422.402 301.612 419.65C301.64 415.546 301.589 413.436 301.589 413.436Z" fill="#130159"/>
<path fill-rule="evenodd" clip-rule="evenodd" d="M317.361 334.438L313.226 408.93C313.226 408.93 309.312 410.759 303.761 408.305L303.224 335.807L317.361 334.438Z" fill="#5601F3"/>
<path fill-rule="evenodd" clip-rule="evenodd" d="M308.647 337.057L302.814 414.959C294.647 415.882 294.184 413.395 294.184 413.395C294.647 408.947 292.453 333.686 292.453 333.686L308.647 337.057Z" fill="#681EF7"/>
<path fill-rule="evenodd" clip-rule="evenodd" d="M294.173 279.467C294.518 282.96 296.374 286.416 299.957 285.287C302.685 284.425 304.832 281.948 304.486 278.454C304.14 274.96 301.55 272.355 298.702 272.634C295.855 272.914 293.829 275.973 294.173 279.467Z" fill="#FED4BD"/>
<path fill-rule="evenodd" clip-rule="evenodd" d="M303.09 285.103C303.09 285.103 302.074 286.422 299.958 285.287C299.958 285.287 298.416 283.354 298.188 282.274C298.001 281.395 298.959 279.999 298.484 279.321C297.568 278.01 296.279 278.61 296.609 281.536C296.12 280.238 288.102 278.537 291.759 274.217C296.506 268.611 306.236 270.125 304.526 276.274C307.292 276.368 304.659 282.21 303.09 285.103Z" fill="#3D00BD"/>
<path fill-rule="evenodd" clip-rule="evenodd" d="M291.019 295.379C291.019 295.379 292.588 325.091 292.588 341.206C298.57 346.576 318.228 341.978 319.546 338.841C320.86 335.704 318.92 332.965 318.406 329.27C316.756 317.457 318.322 301.909 315.136 295.999C310.833 288.012 300.69 287.426 291.019 295.379Z" fill="#F6BF03"/>
<path fill-rule="evenodd" clip-rule="evenodd" d="M298.014 353.167L278.475 341.499V360.032L297.649 371.162L298.014 353.167Z" fill="#3D00BD"/>
<path fill-rule="evenodd" clip-rule="evenodd" d="M278.983 348.56C278.983 348.56 278.011 347.944 278.011 348.065V354.189L278.983 354.593V348.56Z" fill="#7676E5"/>
<path fill-rule="evenodd" clip-rule="evenodd" d="M284.928 349.607C283.29 351.734 282.05 358.222 286.013 358.968C287.173 359.186 289.396 354.705 289.612 351.188" fill="#F4C5A2"/>
<path fill-rule="evenodd" clip-rule="evenodd" d="M288.469 300.689C290.129 292.054 296.489 291.945 297.447 306.226C297.934 313.48 297.746 317.445 296.71 326.424C295.932 333.163 290.542 352.811 290.506 352.842C289.78 353.453 284.179 350.84 284.02 348.701C286.764 339.817 287.504 337.141 288.361 325.518C289.088 315.658 287.202 307.291 288.469 300.689Z" fill="#F6DD03"/>
</svg>
