<svg width="506" height="416" viewBox="0 0 506 416" fill="none" xmlns="http://www.w3.org/2000/svg">
<path fill-rule="evenodd" clip-rule="evenodd" d="M22.5228 180.149C8.68445 188.559 -2.05179 204.294 0.333031 220.377C3.65564 242.792 29.6852 256.344 33.2999 278.713C36.7919 300.319 18.06 319.239 15.0864 340.924C11.8206 364.736 29.0702 387.812 50.8155 397.789C72.5608 407.765 97.6253 407.112 121.28 403.659C144.933 400.208 168.349 394.15 192.25 393.945C218.344 393.722 243.923 400.481 269.309 406.553C294.695 412.621 320.774 418.081 346.712 415.215C372.649 412.348 398.801 399.834 412.075 377.24C428.001 350.13 423.136 313.629 441.829 288.369C452.27 274.262 468.571 265.866 481.044 253.542C500.281 234.535 509.458 205.773 504.809 179.058C500.159 152.344 481.813 128.426 457.299 117.12C433.862 106.31 405.065 106.082 386.006 88.6157C373.959 77.5765 368.035 61.495 358.893 47.9261C343.081 24.4554 316.675 8.51791 288.642 5.52292C260.609 2.52792 231.464 12.5303 211.1 32.1361C196.028 46.6469 183.174 67.3535 162.399 69.3174C147.422 70.7338 133.602 61.4779 118.768 58.9641C94.4607 54.8443 68.4459 71.8837 62.3645 95.9066C59.6512 106.623 62.3088 117.658 65.5928 128.142C77.8863 167.408 34.3525 172.96 22.5228 180.149" fill="#F0EFFF"/>
<path fill-rule="evenodd" clip-rule="evenodd" d="M162.678 243.541L208.037 270.155H208.04L253.453 243.891L207.767 217.085L162.678 243.541Z" fill="#9997E9"/>
<path fill-rule="evenodd" clip-rule="evenodd" d="M219.734 278.209L265.096 304.823L310.511 278.56L264.825 251.756L219.734 278.209Z" fill="#BBB8F6"/>
<path fill-rule="evenodd" clip-rule="evenodd" d="M278.035 311.475L323.396 338.089L368.809 311.825L323.123 285.019L278.035 311.475Z" fill="#BBB8F6"/>
<path fill-rule="evenodd" clip-rule="evenodd" d="M169.665 243.639L204.576 264L239.527 243.908V20.2685L169.665 20V243.639Z" fill="#8184EB"/>
<path fill-rule="evenodd" clip-rule="evenodd" d="M204.366 0L169.665 20.4374L204.578 41L239.527 20.7086L204.366 0Z" fill="#D9DFF7"/>
<path fill-rule="evenodd" clip-rule="evenodd" d="M204.596 265V41.1143L239.527 21V244.886L204.596 265Z" fill="#BBB8F6"/>
<path fill-rule="evenodd" clip-rule="evenodd" d="M228.548 278.63L263.46 299L298.41 278.898V86.266L228.548 86V278.63Z" fill="#8184EB"/>
<path fill-rule="evenodd" clip-rule="evenodd" d="M228.548 86.4374L263.46 107L298.41 86.7086L263.249 66L228.548 86.4374Z" fill="#D9DFF7"/>
<path fill-rule="evenodd" clip-rule="evenodd" d="M263.479 299V106.127L298.41 86V278.873L263.479 299Z" fill="#B4B9F6"/>
<path fill-rule="evenodd" clip-rule="evenodd" d="M287.432 313.548L322.344 334L357.294 313.818V164.27L287.432 164V313.548Z" fill="#8184EB"/>
<path fill-rule="evenodd" clip-rule="evenodd" d="M287.432 164.437L322.344 185L357.294 164.709L322.132 144L287.432 164.437Z" fill="#D9DFF7"/>
<path fill-rule="evenodd" clip-rule="evenodd" d="M322.363 334V185.095L357.294 165V313.905L322.363 334Z" fill="#B4B9F6"/>
<mask id="mask0" mask-type="alpha" maskUnits="userSpaceOnUse" x="228" y="337" width="68" height="36">
<path fill-rule="evenodd" clip-rule="evenodd" d="M228.321 337.193H295.074V373H228.321V337.193Z" fill="white"/>
</mask>
<g mask="url(#mask0)">
<path fill-rule="evenodd" clip-rule="evenodd" d="M228.321 355.093C228.321 364.983 243.263 373.001 261.699 373.001C280.132 373.001 295.074 364.983 295.074 355.093C295.074 345.211 280.132 337.193 261.699 337.193C243.263 337.193 228.321 345.211 228.321 355.093" fill="#BBB8F6"/>
</g>
<path fill-rule="evenodd" clip-rule="evenodd" d="M224.106 305.141L231.42 350.166C232.093 360.679 245.48 368.858 261.342 368.858C277.206 368.858 290.59 360.679 291.264 350.166L298.577 305.141H224.106Z" fill="#B3B8F6"/>
<path fill-rule="evenodd" clip-rule="evenodd" d="M224.106 296.701V308.336C224.106 320.775 240.777 330.858 261.342 330.858C281.906 330.858 298.577 320.775 298.577 308.336V296.701H224.106Z" fill="#9796F7"/>
<path fill-rule="evenodd" clip-rule="evenodd" d="M298.578 296.701C298.578 309.14 281.907 319.224 261.342 319.224C240.778 319.224 224.107 309.14 224.107 296.701C224.107 284.262 240.778 274.178 261.342 274.178C281.907 274.178 298.578 284.262 298.578 296.701" fill="#D9DFF6"/>
<path fill-rule="evenodd" clip-rule="evenodd" d="M261.342 315.395C241.052 315.395 226.917 305.542 226.917 296.7C226.917 287.859 241.052 278.008 261.342 278.008C281.633 278.008 295.768 287.859 295.768 296.7C295.768 305.542 281.633 315.395 261.342 315.395" fill="white"/>
<path fill-rule="evenodd" clip-rule="evenodd" d="M261.342 315.395C241.052 315.395 226.917 305.542 226.917 296.7C226.917 287.859 241.052 278.008 261.342 278.008C281.633 278.008 295.768 287.859 295.768 296.7C295.768 305.542 281.633 315.395 261.342 315.395" fill="#B3B8F6"/>
<path fill-rule="evenodd" clip-rule="evenodd" d="M261.342 290.756C245.911 290.756 234.046 296.456 229.245 303.076C234.046 309.694 245.911 315.396 261.342 315.396C276.773 315.396 288.639 309.694 293.439 303.076C288.639 296.456 276.773 290.756 261.342 290.756" fill="#8285DF"/>
<path fill-rule="evenodd" clip-rule="evenodd" d="M246.82 260.908C247.246 256.984 247.817 252.983 249.607 249.476C251.395 245.966 254.638 242.982 258.519 242.529C262.705 242.04 266.796 244.6 269.257 248.055C271.722 251.508 272.839 255.737 273.735 259.896C276.061 270.692 277.211 281.743 277.163 292.793C277.145 296.789 276.904 301.008 274.747 304.359C272.078 308.511 266.916 310.455 262.016 310.483C258.512 310.504 250.537 309.901 247.922 307.181C245.376 304.533 246.142 297.208 245.949 293.717C245.347 282.781 245.634 271.797 246.82 260.908" fill="#603EFF"/>
<path fill-rule="evenodd" clip-rule="evenodd" d="M236.304 273.196C233.586 267.799 232.946 261.373 234.539 255.536C235.023 253.753 236.155 251.706 237.984 251.773C239.56 251.833 240.625 253.541 240.733 255.13C240.838 256.719 240.3 258.272 240.116 259.854C239.655 263.883 241.765 268.1 245.252 270.111C247.04 271.141 249.127 271.633 250.751 272.909C252.68 274.428 253.718 277.021 253.375 279.465C251.645 291.816 238.704 277.963 236.304 273.196" fill="#603EFF"/>
<path fill-rule="evenodd" clip-rule="evenodd" d="M282.042 278.572C285.741 275.107 288.203 270.321 288.892 265.271C289.148 263.374 289.053 261.177 287.632 259.911C286.041 258.498 283.397 258.99 281.881 260.48C280.362 261.971 279.742 264.161 279.424 266.278C279.107 268.393 279.017 270.572 278.3 272.586C277.585 274.599 276.058 276.491 273.978 276.892C271.665 277.332 268.973 275.932 267.075 277.335C263.332 280.094 266.901 284.225 270.113 284.308C274.219 284.414 279.173 281.264 282.042 278.572" fill="#603EFF"/>
<path fill-rule="evenodd" clip-rule="evenodd" d="M112.777 287.998C112.777 294.627 122.607 300 134.734 300C146.861 300 156.69 294.627 156.69 287.998C156.69 281.373 146.861 276 134.734 276C122.607 276 112.777 281.373 112.777 287.998" fill="#BBB8F6"/>
<path fill-rule="evenodd" clip-rule="evenodd" d="M140.722 274.998C140.722 281.627 150.552 287 162.679 287C174.806 287 184.635 281.627 184.635 274.998C184.635 268.373 174.806 263 162.679 263C150.552 263 140.722 268.373 140.722 274.998" fill="#BBB8F6"/>
<mask id="mask1" mask-type="alpha" maskUnits="userSpaceOnUse" x="160" y="283" width="46" height="24">
<path fill-rule="evenodd" clip-rule="evenodd" d="M160.721 283.14H205.092V306.999H160.721V283.14Z" fill="white"/>
</mask>
<g mask="url(#mask1)">
<path fill-rule="evenodd" clip-rule="evenodd" d="M160.721 295.068C160.721 301.658 170.654 306.999 182.907 306.999C195.161 306.999 205.092 301.658 205.092 295.068C205.092 288.482 195.161 283.14 182.907 283.14C170.654 283.14 160.721 288.482 160.721 295.068" fill="#BBB8F6"/>
</g>
<path fill-rule="evenodd" clip-rule="evenodd" d="M181.641 268V272.642C181.641 278.915 172.481 284 161.183 284C149.882 284 140.722 278.915 140.722 272.642V268H181.641Z" fill="#9796F7"/>
<path fill-rule="evenodd" clip-rule="evenodd" d="M177.046 279.953C178.61 278.954 179.824 277.799 180.643 276.545V269H177.046V279.953ZM150.702 282.411C151.362 282.625 152.037 282.829 152.75 283V271.722H150.702V282.411ZM171.652 282.364C170.992 282.582 170.316 282.784 169.604 282.955V271.677H171.652V282.364Z" fill="#6782EA"/>
<path fill-rule="evenodd" clip-rule="evenodd" d="M140.722 268.001C140.722 274.073 149.882 279 161.183 279C172.481 279 181.641 274.073 181.641 268.001C181.641 261.927 172.481 257 161.183 257C149.882 257 140.722 261.927 140.722 268.001" fill="#D9DFF6"/>
<path fill-rule="evenodd" clip-rule="evenodd" d="M181.641 261V265.641C181.641 271.914 172.481 277 161.183 277C149.882 277 140.722 271.914 140.722 265.641V261H181.641Z" fill="#9796F7"/>
<path fill-rule="evenodd" clip-rule="evenodd" d="M177.046 272.953C178.61 271.954 179.824 270.799 180.643 269.545V262H177.046V272.953ZM150.702 275.411C151.362 275.627 152.037 275.829 152.75 276V264.722H150.702V275.411ZM171.652 275.364C170.992 275.582 170.316 275.784 169.604 275.956V264.678H171.652V275.364Z" fill="#6782EA"/>
<path fill-rule="evenodd" clip-rule="evenodd" d="M140.722 261C140.722 267.073 149.882 272 161.183 272C172.481 272 181.641 267.073 181.641 261C181.641 254.926 172.481 250 161.183 250C149.882 250 140.722 254.926 140.722 261" fill="#D9DFF6"/>
<path fill-rule="evenodd" clip-rule="evenodd" d="M181.641 254V258.643C181.641 264.914 172.481 270 161.183 270C149.882 270 140.722 264.914 140.722 258.643V254H181.641Z" fill="#9796F7"/>
<path fill-rule="evenodd" clip-rule="evenodd" d="M177.046 265.954C178.61 264.954 179.824 263.799 180.643 262.545V255H177.046V265.954ZM150.702 268.411C151.362 268.627 152.037 268.831 152.75 269V257.722H150.702V268.411ZM171.652 268.366C170.992 268.582 170.316 268.784 169.604 268.956V257.678H171.652V268.366Z" fill="#6782EA"/>
<path fill-rule="evenodd" clip-rule="evenodd" d="M140.722 254C140.722 260.073 149.882 265 161.183 265C172.481 265 181.641 260.073 181.641 254C181.641 247.926 172.481 243 161.183 243C149.882 243 140.722 247.926 140.722 254" fill="#D9DFF6"/>
<path fill-rule="evenodd" clip-rule="evenodd" d="M181.641 247V251.643C181.641 257.914 172.481 263 161.183 263C149.882 263 140.722 257.914 140.722 251.643V247H181.641Z" fill="#9796F7"/>
<path fill-rule="evenodd" clip-rule="evenodd" d="M177.046 258.954C178.61 257.954 179.824 256.799 180.643 255.545V248H177.046V258.954ZM150.702 261.411C151.362 261.627 152.037 261.831 152.75 262V250.722H150.702V261.411ZM171.652 261.366C170.992 261.583 170.316 261.786 169.604 261.956V250.678H171.652V261.366Z" fill="#6782EA"/>
<path fill-rule="evenodd" clip-rule="evenodd" d="M140.722 248C140.722 254.074 149.882 259 161.183 259C172.481 259 181.641 254.074 181.641 248C181.641 241.927 172.481 237 161.183 237C149.882 237 140.722 241.927 140.722 248" fill="#D9DFF6"/>
<path fill-rule="evenodd" clip-rule="evenodd" d="M181.641 240V244.643C181.641 250.914 172.481 256 161.183 256C149.882 256 140.722 250.914 140.722 244.643V240H181.641Z" fill="#9796F7"/>
<path fill-rule="evenodd" clip-rule="evenodd" d="M177.046 251.954C178.61 250.955 179.824 249.801 180.643 248.547V241H177.046V251.954ZM150.702 254.411C151.362 254.627 152.037 254.831 152.75 255V243.724H150.702V254.411ZM171.652 254.366C170.992 254.583 170.316 254.786 169.604 254.956V243.678H171.652V254.366Z" fill="#6782EA"/>
<mask id="mask2" mask-type="alpha" maskUnits="userSpaceOnUse" x="140" y="228" width="42" height="24">
<path fill-rule="evenodd" clip-rule="evenodd" d="M140.883 228.914H181.288V251.464H140.883V228.914Z" fill="white"/>
</mask>
<g mask="url(#mask2)">
<path fill-rule="evenodd" clip-rule="evenodd" d="M140.883 240.189C140.883 246.415 149.928 251.464 161.087 251.464C172.243 251.464 181.288 246.415 181.288 240.189C181.288 233.964 172.243 228.913 161.087 228.913C149.928 228.913 140.883 233.964 140.883 240.189" fill="#D9DFF6"/>
</g>
<path fill-rule="evenodd" clip-rule="evenodd" d="M145.712 240.499C145.712 245.193 152.638 249 161.184 249C169.726 249 176.651 245.193 176.651 240.499C176.651 235.807 169.726 232 161.184 232C152.638 232 145.712 235.807 145.712 240.499" fill="#B4B9F6"/>
<path fill-rule="evenodd" clip-rule="evenodd" d="M161.183 233.167C169.363 233.167 176.043 236.626 176.596 241C176.62 240.806 176.651 240.613 176.651 240.416C176.651 235.769 169.725 232 161.183 232C152.638 232 145.712 235.769 145.712 240.416C145.712 240.613 145.743 240.806 145.767 241C146.32 236.626 153 233.167 161.183 233.167" fill="#9796F7"/>
<path fill-rule="evenodd" clip-rule="evenodd" d="M162.681 239.817C162.308 239.299 162.259 238.854 162.888 238.508C163.59 238.122 164.405 238.132 165.188 238.437L162.681 239.817ZM160.67 243.486C160.006 243.854 159.058 243.874 158.213 243.543L160.766 242.138C161.206 242.671 161.319 243.13 160.67 243.486V243.486ZM168.739 237.752L170.199 236.947L169.045 236.315L167.585 237.12C164.951 235.852 161.71 235.551 159.465 236.788C156.632 238.346 158.517 239.974 159.953 241.319L157.105 242.886C156.684 242.433 156.776 241.984 157.45 241.543L154.146 239.735C151.898 241.065 152.418 242.749 154.672 244.223L153.195 245.04L154.347 245.669L155.807 244.867C158.804 246.362 162.08 246.275 164.029 245.202C166.826 243.664 164.856 242.021 163.456 240.657L166.25 239.121C166.585 239.495 166.514 239.913 165.922 240.321L169.245 242.138C171.363 240.789 171.037 239.222 168.739 237.752V237.752Z" fill="#9796F7"/>
<path fill-rule="evenodd" clip-rule="evenodd" d="M162.681 238.817C162.308 238.298 162.259 237.855 162.888 237.509C163.59 237.122 164.405 237.132 165.188 237.436L162.681 238.817ZM160.67 242.487C160.006 242.854 159.058 242.874 158.213 242.542L160.766 241.138C161.206 241.672 161.319 242.13 160.67 242.487V242.487ZM168.739 236.752L170.199 235.947L169.045 235.315L167.585 236.12C164.951 234.853 161.71 234.552 159.465 235.787C156.632 237.347 158.517 238.975 159.953 240.319L157.105 241.885C156.684 241.432 156.776 240.985 157.45 240.543L154.146 238.733C151.898 240.065 152.418 241.748 154.672 243.223L153.195 244.04L154.347 244.67L155.807 243.868C158.804 245.361 162.08 245.276 164.029 244.203C166.826 242.664 164.856 241.02 163.456 239.658L166.25 238.122C166.585 238.495 166.514 238.914 165.922 239.321L169.245 241.138C171.363 239.79 171.037 238.221 168.739 236.752V236.752Z" fill="#D9DFF6"/>
<path fill-rule="evenodd" clip-rule="evenodd" d="M203.598 288V292.641C203.598 298.914 194.438 304 183.14 304C171.838 304 162.679 298.914 162.679 292.641V288H203.598Z" fill="#9796F7"/>
<path fill-rule="evenodd" clip-rule="evenodd" d="M199.003 299.953C200.567 298.954 201.78 297.799 202.6 296.545V289H199.003V299.953ZM172.659 302.411C173.317 302.627 173.993 302.829 174.707 303V291.722H172.659V302.411ZM193.608 302.364C192.949 302.582 192.273 302.784 191.561 302.956V291.678H193.608V302.364Z" fill="#6782EA"/>
<path fill-rule="evenodd" clip-rule="evenodd" d="M162.679 288C162.679 294.073 171.838 299 183.14 299C194.438 299 203.598 294.073 203.598 288C203.598 281.926 194.438 277 183.14 277C171.838 277 162.679 281.926 162.679 288" fill="#D9DFF6"/>
<path fill-rule="evenodd" clip-rule="evenodd" d="M203.598 281V285.642C203.598 291.915 194.438 297 183.14 297C171.838 297 162.679 291.915 162.679 285.642V281H203.598Z" fill="#9796F7"/>
<path fill-rule="evenodd" clip-rule="evenodd" d="M199.003 292.954C200.567 291.955 201.78 290.801 202.6 289.547V282H199.003V292.954ZM172.659 295.411C173.317 295.627 173.993 295.831 174.707 296V284.724H172.659V295.411ZM193.608 295.366C192.949 295.583 192.273 295.786 191.561 295.956V284.678H193.608V295.366Z" fill="#6782EA"/>
<path fill-rule="evenodd" clip-rule="evenodd" d="M162.679 281.001C162.679 287.073 171.838 292 183.14 292C194.438 292 203.598 287.073 203.598 281.001C203.598 274.927 194.438 270 183.14 270C171.838 270 162.679 274.927 162.679 281.001" fill="#D9DFF6"/>
<path fill-rule="evenodd" clip-rule="evenodd" d="M167.669 281.499C167.669 286.195 174.595 290 183.14 290C191.683 290 198.607 286.195 198.607 281.499C198.607 276.807 191.683 273 183.14 273C174.595 273 167.669 276.807 167.669 281.499" fill="#B4B9F6"/>
<path fill-rule="evenodd" clip-rule="evenodd" d="M183.14 274.167C191.32 274.167 198 277.626 198.552 282C198.577 281.806 198.607 281.613 198.607 281.416C198.607 276.769 191.682 273 183.14 273C174.594 273 167.669 276.769 167.669 281.416C167.669 281.613 167.699 281.806 167.724 282C168.276 277.626 174.956 274.167 183.14 274.167" fill="#9796F7"/>
<path fill-rule="evenodd" clip-rule="evenodd" d="M183.64 280.817C183.267 280.299 183.217 279.855 183.847 279.51C184.548 279.122 185.364 279.132 186.146 279.437L183.64 280.817ZM181.628 284.486C180.963 284.854 180.017 284.874 179.172 284.543L181.724 283.138C182.164 283.671 182.277 284.131 181.628 284.486V284.486ZM189.697 278.752L191.157 277.947L190.003 277.316L188.543 278.12C185.909 276.852 182.669 276.551 180.422 277.788C177.59 279.346 179.476 280.974 180.912 282.319L178.064 283.886C177.643 283.433 177.734 282.986 178.409 282.543L175.105 280.735C172.856 282.066 173.377 283.749 175.631 285.223L174.152 286.04L175.306 286.669L176.766 285.867C179.762 287.362 183.039 287.275 184.988 286.202C187.783 284.664 185.815 283.021 184.415 281.657L187.209 280.121C187.543 280.495 187.473 280.913 186.881 281.321L190.204 283.138C192.322 281.789 191.995 280.222 189.697 278.752V278.752Z" fill="#9796F7"/>
<path fill-rule="evenodd" clip-rule="evenodd" d="M183.64 279.817C183.267 279.299 183.217 278.855 183.847 278.508C184.548 278.122 185.364 278.132 186.146 278.437L183.64 279.817ZM181.628 283.487C180.963 283.854 180.017 283.874 179.172 283.542L181.724 282.138C182.164 282.672 182.277 283.13 181.628 283.487V283.487ZM189.697 277.752L191.157 276.947L190.003 276.315L188.543 277.12C185.909 275.853 182.669 275.552 180.422 276.787C177.59 278.347 179.476 279.975 180.912 281.319L178.064 282.885C177.643 282.433 177.734 281.985 178.409 281.543L175.105 279.733C172.856 281.065 173.377 282.748 175.631 284.223L174.152 285.04L175.306 285.67L176.766 284.868C179.762 286.361 183.039 286.276 184.988 285.203C187.783 283.664 185.815 282.022 184.415 280.658L187.209 279.122C187.543 279.495 187.473 279.914 186.881 280.321L190.204 282.138C192.322 280.79 191.995 279.221 189.697 277.752V277.752Z" fill="#D9DFF6"/>
<path fill-rule="evenodd" clip-rule="evenodd" d="M155.692 281V285.643C155.692 291.914 146.533 297 135.234 297C123.933 297 114.773 291.914 114.773 285.643V281H155.692Z" fill="#9796F7"/>
<path fill-rule="evenodd" clip-rule="evenodd" d="M151.097 291.954C152.661 290.955 153.875 289.801 154.694 288.547V281H151.097V291.954ZM124.753 294.411C125.413 294.627 126.088 294.831 126.801 295V283.722H124.753V294.411ZM145.703 294.366C145.043 294.583 144.367 294.786 143.655 294.956V283.678H145.703V294.366Z" fill="#6782EA"/>
<path fill-rule="evenodd" clip-rule="evenodd" d="M114.773 281C114.773 287.074 123.933 292 135.234 292C146.533 292 155.692 287.074 155.692 281C155.692 274.927 146.533 270 135.234 270C123.933 270 114.773 274.927 114.773 281" fill="#D9DFF6"/>
<path fill-rule="evenodd" clip-rule="evenodd" d="M155.692 274V278.642C155.692 284.915 146.533 290 135.234 290C123.933 290 114.773 284.915 114.773 278.642V274H155.692Z" fill="#9796F7"/>
<path fill-rule="evenodd" clip-rule="evenodd" d="M151.097 284.953C152.661 283.954 153.875 282.799 154.694 281.545V274H151.097V284.953ZM124.753 287.411C125.413 287.625 126.088 287.829 126.801 288V276.722H124.753V287.411ZM145.703 287.364C145.043 287.582 144.367 287.784 143.655 287.955V276.677H145.703V287.364Z" fill="#6782EA"/>
<path fill-rule="evenodd" clip-rule="evenodd" d="M114.773 274.001C114.773 280.073 123.933 285 135.234 285C146.533 285 155.692 280.073 155.692 274.001C155.692 267.927 146.533 263 135.234 263C123.933 263 114.773 267.927 114.773 274.001" fill="#D9DFF6"/>
<path fill-rule="evenodd" clip-rule="evenodd" d="M119.763 273.498C119.763 278.194 126.689 282 135.235 282C143.777 282 150.702 278.194 150.702 273.498C150.702 268.806 143.777 265 135.235 265C126.689 265 119.763 268.806 119.763 273.498" fill="#B4B9F6"/>
<path fill-rule="evenodd" clip-rule="evenodd" d="M135.234 266.167C143.414 266.167 150.096 269.626 150.647 274C150.672 273.806 150.702 273.613 150.702 273.416C150.702 268.769 143.776 265 135.234 265C126.689 265 119.763 268.769 119.763 273.416C119.763 273.613 119.794 273.806 119.819 274C120.371 269.626 127.051 266.167 135.234 266.167" fill="#9796F7"/>
<path fill-rule="evenodd" clip-rule="evenodd" d="M135.735 272.817C135.361 272.299 135.312 271.856 135.942 271.51C136.643 271.124 137.458 271.132 138.241 271.437L135.735 272.817ZM133.723 276.488C133.059 276.854 132.112 276.874 131.266 276.543L133.821 275.139C134.26 275.671 134.372 276.131 133.723 276.488V276.488ZM141.792 270.752L143.252 269.947L142.098 269.316L140.638 270.12C138.004 268.852 134.763 268.551 132.518 269.788C129.685 271.348 131.571 272.976 133.007 274.319L130.159 275.886C129.737 275.433 129.829 274.986 130.503 274.543L127.2 272.735C124.951 274.066 125.471 275.749 127.726 277.224L126.248 278.04L127.4 278.669L128.86 277.867C131.857 279.362 135.134 279.275 137.084 278.202C139.879 276.665 137.91 275.021 136.51 273.657L139.304 272.121C139.638 272.495 139.568 272.913 138.975 273.321L142.299 275.139C144.417 273.791 144.09 272.222 141.792 270.752V270.752Z" fill="#9796F7"/>
<path fill-rule="evenodd" clip-rule="evenodd" d="M135.735 271.817C135.361 271.299 135.312 270.855 135.942 270.51C136.643 270.122 137.458 270.132 138.241 270.437L135.735 271.817ZM133.723 275.486C133.059 275.854 132.112 275.874 131.266 275.543L133.821 274.138C134.26 274.672 134.372 275.13 133.723 275.486V275.486ZM141.792 269.752L143.252 268.947L142.098 268.315L140.638 269.12C138.004 267.852 134.763 267.551 132.518 268.788C129.685 270.346 131.571 271.975 133.007 273.319L130.159 274.886C129.737 274.433 129.829 273.985 130.503 273.543L127.2 271.735C124.951 273.065 125.471 274.75 127.726 276.223L126.248 277.041L127.4 277.67L128.86 276.868C131.857 278.361 135.134 278.276 137.084 277.203C139.879 275.664 137.91 274.022 136.51 272.657L139.304 271.122C139.638 271.495 139.568 271.914 138.975 272.321L142.299 274.138C144.417 272.789 144.09 271.222 141.792 269.752V269.752Z" fill="#D9DFF6"/>
</svg>
