<svg width="181" height="30" viewBox="0 0 181 30" fill="none" xmlns="http://www.w3.org/2000/svg">
<path d="M44.4328 24H42.1387C41.8916 24 41.7858 23.8588 41.7858 23.6118V6.3529C41.7858 6.10584 41.8916 5.96466 42.1387 5.96466H44.8916C45.1034 5.96466 45.2093 6.07054 45.2799 6.24701L48.3505 11.9647C48.9858 13.1647 49.6916 14.647 50.5034 16.3764H50.6093C51.3858 14.6117 52.1269 13.1294 52.7622 11.9647L55.7975 6.24701C55.9034 6.07054 56.0446 5.96466 56.221 5.96466H58.9387C59.1857 5.96466 59.327 6.10584 59.327 6.3529V23.6118C59.327 23.8588 59.1857 24 58.9387 24H56.6446C56.3975 24 56.2916 23.8588 56.2916 23.6118V18.5294C56.2916 16.5529 56.3622 13.9058 56.5034 10.6235L56.4329 10.5882C55.9387 11.6823 55.1622 13.2353 54.174 15.247L51.9505 19.5529C51.8799 19.7294 51.7387 19.8353 51.5269 19.8353H49.6211C49.4093 19.8353 49.2681 19.7294 49.1975 19.5529L46.974 15.247C45.9505 13.2353 45.2093 11.6823 44.7152 10.5882L44.6446 10.6235C44.7858 13.9058 44.8564 16.5529 44.8564 18.5294V23.6118C44.7858 23.8588 44.6799 24 44.4328 24Z" fill="#243B76"/>
<path d="M73.3037 19.2C73.3037 20.753 72.7742 21.9882 71.7507 22.9059C70.7272 23.8236 69.3155 24.2824 67.586 24.2824C65.8566 24.2824 64.4449 23.8236 63.4214 22.9059C62.3979 21.9882 61.8684 20.753 61.8684 19.2V15.8471C61.8684 14.2589 62.3979 13.0236 63.4214 12.0706C64.4449 11.1177 65.8566 10.6589 67.586 10.6589C69.3155 10.6589 70.7272 11.1177 71.7507 12.0706C72.7742 13.0236 73.3037 14.2589 73.3037 15.8471V19.2ZM64.7625 19.2C64.7625 20.8589 65.6801 21.6706 67.5508 21.6706C68.4684 21.6706 69.139 21.4589 69.6331 21.0354C70.1272 20.6119 70.339 20.0119 70.339 19.2V15.8471C70.339 15.0353 70.092 14.4 69.5979 13.9412C69.1037 13.4824 68.4331 13.2706 67.5508 13.2706C66.6331 13.2706 65.9625 13.4824 65.4684 13.9412C64.9743 14.3648 64.7625 15 64.7625 15.8471V19.2Z" fill="#243B76"/>
<path d="M77.0797 27.3526H75.0327C74.7857 27.3526 74.6797 27.2467 74.6797 26.9996V21.7409C74.6797 21.4937 74.7857 21.3879 75.0327 21.3879H75.5975C76.1621 20.9996 76.5857 20.1174 76.868 18.7761C77.1857 17.3997 77.468 14.9291 77.7504 11.2938C77.7857 11.0467 77.9269 10.9409 78.1386 10.9409H86.5034C86.7504 10.9409 86.8916 11.0467 86.8916 11.2938V21.3879H88.1621C88.4092 21.3879 88.5504 21.5291 88.5504 21.7761V26.9996C88.5504 27.2467 88.4092 27.3526 88.1621 27.3526H86.1151C85.868 27.3526 85.7269 27.2467 85.7269 26.9996V23.9996H77.468V27.035C77.468 27.2467 77.3269 27.3526 77.0797 27.3526ZM80.468 13.5173C80.1151 17.682 79.5504 20.2937 78.7386 21.4232H83.9621V13.5173H80.468Z" fill="#243B76"/>
<path d="M98.4328 20.435V11.2938C98.4328 11.0467 98.574 10.9409 98.821 10.9409H100.974C101.221 10.9409 101.362 11.0467 101.362 11.2938V23.1526C101.362 27.0702 99.4916 29.0115 95.7505 29.0115C93.7386 29.0115 92.0799 28.482 90.8093 27.4232C90.6328 27.282 90.5975 27.1056 90.7386 26.9291L91.8328 25.4115C91.974 25.1996 92.1151 25.1644 92.3269 25.2702C93.4564 26.0467 94.5858 26.435 95.7505 26.435C96.7034 26.435 97.4093 26.1879 97.8681 25.6937C98.3269 25.1996 98.5386 24.3526 98.5034 23.1526C97.5151 23.4702 96.6328 23.6115 95.821 23.6115C94.374 23.6115 93.1386 23.1526 92.0446 22.2702C90.9858 21.3879 90.421 20.1174 90.421 18.4937V11.2938C90.421 11.0467 90.5623 10.9409 90.8093 10.9409H92.9975C93.2446 10.9409 93.3505 11.0467 93.3505 11.2938V18.3526C93.3505 19.2702 93.6328 19.9055 94.1623 20.3291C94.6916 20.7526 95.3975 20.9644 96.2093 20.9644C97.0564 20.9644 97.7975 20.7879 98.4328 20.435Z" fill="#243B76"/>
<path d="M108.244 19.6942C107.927 21.2825 107.433 22.4119 106.797 23.0471C106.127 23.6825 105.103 24.0354 103.692 24.106C103.444 24.106 103.339 23.9648 103.339 23.7178V21.8825C103.339 21.6706 103.444 21.5295 103.692 21.4943C104.186 21.4589 104.574 21.2471 104.821 20.8942C105.103 20.5412 105.315 19.8706 105.527 18.9178C105.809 17.2589 106.021 14.7177 106.162 11.3295C106.197 11.0825 106.339 10.9766 106.55 10.9766H115.092C115.339 10.9766 115.48 11.0825 115.48 11.3295V23.6471C115.48 23.8942 115.339 24.0354 115.092 24.0354H112.939C112.692 24.0354 112.55 23.8942 112.55 23.6471V13.5177H108.88C108.739 15.9177 108.562 17.9647 108.244 19.6942Z" fill="#243B76"/>
<path d="M123.562 23.9996H118.339C118.092 23.9996 117.95 23.8585 117.95 23.6115V11.2938C117.95 11.0467 118.092 10.9409 118.339 10.9409H120.492C120.739 10.9409 120.88 11.0467 120.88 11.2938V15.1761H123.562C125.115 15.1761 126.35 15.5644 127.303 16.3409C128.256 17.1173 128.715 18.2115 128.715 19.6232C128.715 21.1056 128.256 22.1996 127.339 22.9056C126.421 23.6467 125.186 23.9996 123.562 23.9996ZM120.88 17.5761V21.5644H123.033C124.833 21.5644 125.75 20.8937 125.75 19.5879C125.75 18.9174 125.539 18.3879 125.08 18.0702C124.621 17.7526 123.95 17.5761 123.033 17.5761H120.88Z" fill="#243B76"/>
<path d="M132.668 13.2H137.397C139.444 13.2 140.997 13.6235 141.95 14.5058C142.938 15.3882 143.433 16.7294 143.433 18.5646C143.433 20.2941 142.903 21.6353 141.844 22.5883C140.785 23.5059 139.338 24 137.503 24H131.433C131.291 24 131.221 23.9294 131.221 23.7883V6.17642C131.221 6.03525 131.291 5.96466 131.433 5.96466H142.021C142.162 5.96466 142.233 6.03525 142.233 6.17642V7.05877C142.233 7.19995 142.162 7.27054 142.021 7.27054H132.633V13.2H132.668ZM132.668 22.6941H137.538C138.985 22.6941 140.115 22.3411 140.891 21.6705C141.668 21 142.056 19.9411 142.056 18.5646C142.056 17.1529 141.703 16.1294 140.962 15.4588C140.221 14.7882 139.056 14.4705 137.468 14.4705H132.703V22.6941H132.668Z" fill="#243B76"/>
<path d="M145.903 12.0352C147.139 11.1529 148.692 10.7294 150.492 10.7294C152.045 10.7294 153.209 11.1529 154.056 11.9647C154.903 12.7764 155.292 13.9764 155.292 15.4941V23.1529C155.292 23.2587 155.221 23.3646 155.115 23.4C153.633 23.9646 152.08 24.247 150.421 24.247C148.903 24.247 147.633 23.8941 146.645 23.1882C145.656 22.4822 145.162 21.4941 145.162 20.1529C145.162 18.8822 145.621 17.8941 146.574 17.2235C147.527 16.5529 148.798 16.2 150.456 16.2C151.339 16.2 152.503 16.3411 153.986 16.5882V15.5294C153.986 13.1647 152.821 12 150.456 12C149.009 12 147.703 12.3529 146.609 13.0235C146.503 13.0941 146.433 13.0941 146.327 12.9882L145.903 12.3176C145.833 12.1764 145.833 12.1058 145.903 12.0352ZM146.539 20.1882C146.539 21.0705 146.892 21.7764 147.633 22.3059C148.339 22.8 149.292 23.0822 150.492 23.0822C151.656 23.0822 152.821 22.8705 154.021 22.4822V17.7529C152.856 17.5059 151.692 17.3647 150.492 17.3647C147.845 17.3647 146.539 18.3176 146.539 20.1882Z" fill="#243B76"/>
<path d="M158.998 24H158.08C157.939 24 157.868 23.9294 157.868 23.7882V11.2588C157.868 11.1176 157.939 11.0471 158.08 11.0471H158.998C159.139 11.0471 159.21 11.1176 159.21 11.2588V16.6588H166.41V11.2588C166.41 11.1176 166.48 11.0471 166.621 11.0471H167.539C167.68 11.0471 167.751 11.1176 167.751 11.2588V23.7882C167.751 23.9294 167.68 24 167.539 24H166.621C166.48 24 166.41 23.9294 166.41 23.7882V17.8589H159.21V23.7882C159.21 23.9294 159.139 24 158.998 24Z" fill="#243B76"/>
<path d="M180.35 24.0001H179.221C179.115 24.0001 179.045 23.9648 178.974 23.8589L173.504 17.6825L171.597 19.4471V23.753C171.597 23.8943 171.527 23.9648 171.386 23.9648H170.504C170.362 23.9648 170.291 23.8943 170.291 23.753V11.2236C170.291 11.0824 170.362 11.0119 170.504 11.0119H171.386C171.527 11.0119 171.597 11.0824 171.597 11.2236V17.8236L178.586 11.0825C178.656 11.0119 178.728 10.9766 178.868 10.9766H179.998C180.068 10.9766 180.139 11.0119 180.174 11.0471C180.209 11.0824 180.174 11.153 180.104 11.2236L174.386 16.7648L180.456 23.7178C180.598 23.8943 180.491 24.0001 180.35 24.0001Z" fill="#243B76"/>
<g clip-path="url(#clip0)">
<path d="M18 18V12H12V6H6V0H0V12H6V18H0V30H6V24H12V18H18Z" fill="#243B76"/>
<path d="M24.0004 17.9999H18.0004V23.9999H24.0004V17.9999Z" fill="#243B76"/>
<path d="M30.0001 24.0002H24.0001V30.0003H30.0001V24.0002Z" fill="#243B76"/>
<path d="M17.9996 24.0002H11.9997V30.0003H17.9996V24.0002Z" fill="#243B76"/>
<path d="M23.9996 6V0H11.9997V6H17.9996V12H23.9996V18H29.9996V6H23.9996Z" fill="#243B76"/>
</g>
<defs>
<clipPath id="clip0">
<rect width="30" height="30" fill="white"/>
</clipPath>
</defs>
</svg>
