<svg width="351" height="368" viewBox="0 0 351 368" fill="none" xmlns="http://www.w3.org/2000/svg">
<path fill-rule="evenodd" clip-rule="evenodd" d="M86.9214 333.311C5.04434 278.515 -22.9085 172.682 31.8542 90.7482C86.615 8.81655 191.106 -24.1473 272.983 30.6485C354.86 85.4443 369.962 205.942 315.201 287.875C260.44 369.807 168.798 388.106 86.9214 333.311Z" fill="white"/>
<mask id="mask0" mask-type="alpha" maskUnits="userSpaceOnUse" x="213" y="207" width="53" height="31">
<path fill-rule="evenodd" clip-rule="evenodd" d="M213.314 207.824H265.074V237.793H213.314V207.824Z" fill="white"/>
</mask>
<g mask="url(#mask0)">
<path fill-rule="evenodd" clip-rule="evenodd" d="M265.074 222.764L239.208 237.793L213.314 222.963L239.364 207.824L265.074 222.764Z" fill="#9997E9"/>
</g>
<path fill-rule="evenodd" clip-rule="evenodd" d="M232.541 242.342L206.675 257.372L180.781 242.541L206.831 227.403L232.541 242.342Z" fill="#9997E9"/>
<path fill-rule="evenodd" clip-rule="evenodd" d="M199.299 261.128L173.433 276.157L147.539 261.326L173.589 246.188L199.299 261.128Z" fill="#9997E9"/>
<path fill-rule="evenodd" clip-rule="evenodd" d="M164.879 280.905L139.015 295.934H139.014L113.12 281.103L139.169 265.965L164.879 280.905Z" fill="#9997E9"/>
<path fill-rule="evenodd" clip-rule="evenodd" d="M261.5 223.402L241.511 235L221.5 223.555V96.1532L261.5 96V223.402Z" fill="#9391EA"/>
<path fill-rule="evenodd" clip-rule="evenodd" d="M261.5 95.4658L241.511 107L221.5 95.6182L241.632 84L261.5 95.4658Z" fill="#D7CBFF"/>
<path fill-rule="evenodd" clip-rule="evenodd" d="M241.5 235V107.459L221.5 96V223.543L241.5 235Z" fill="#B9AFF4"/>
<path fill-rule="evenodd" clip-rule="evenodd" d="M227.5 242.429L207.511 254L187.5 242.581V133.152L227.5 133V242.429Z" fill="#9391EA"/>
<path fill-rule="evenodd" clip-rule="evenodd" d="M227.5 133.466L207.511 145L187.5 133.617L207.632 122L227.5 133.466Z" fill="#D7CBFF"/>
<path fill-rule="evenodd" clip-rule="evenodd" d="M207.5 254V144.434L187.5 133V242.566L207.5 254Z" fill="#B9AFF4"/>
<path fill-rule="evenodd" clip-rule="evenodd" d="M194.5 262.452L174.511 274L154.5 262.604V178.151L194.5 178V262.452Z" fill="#9391EA"/>
<path fill-rule="evenodd" clip-rule="evenodd" d="M194.5 177.466L174.511 189L154.5 177.617L174.632 166L194.5 177.466Z" fill="#D7CBFF"/>
<path fill-rule="evenodd" clip-rule="evenodd" d="M174.5 274V189.415L154.5 178V262.586L174.5 274Z" fill="#B9AFF4"/>
<path fill-rule="evenodd" clip-rule="evenodd" d="M160.5 282.39L140.512 294L120.5 282.543V223.153L160.5 223V282.39Z" fill="#9391EA"/>
<path fill-rule="evenodd" clip-rule="evenodd" d="M160.5 222.466L140.512 234L120.5 222.618L140.632 211L160.5 222.466Z" fill="#D7CBFF"/>
<path fill-rule="evenodd" clip-rule="evenodd" d="M140.5 294V234.482L120.5 223V282.518L140.5 294Z" fill="#B9AFF4"/>
<path fill-rule="evenodd" clip-rule="evenodd" d="M160.5 202.466L140.512 214L120.5 202.617L140.632 191L160.5 202.466Z" fill="#FFADB5"/>
<path fill-rule="evenodd" clip-rule="evenodd" d="M86.5 296.506L106.185 308L140.5 214.411L120.672 203L86.5 296.506Z" fill="#FF8D99"/>
<path fill-rule="evenodd" clip-rule="evenodd" d="M160.243 203L173.5 169.484L153.616 158L140.5 191.431L160.243 203Z" fill="#FF8D99"/>
<path fill-rule="evenodd" clip-rule="evenodd" d="M193.255 158L207.5 124.528L187.603 113L173.5 146.389L193.255 158Z" fill="#FF8D99"/>
<path fill-rule="evenodd" clip-rule="evenodd" d="M193.5 157.465L173.512 169L153.5 157.618L173.632 146L193.5 157.465Z" fill="#FFADB5"/>
<path fill-rule="evenodd" clip-rule="evenodd" d="M227.5 113.465L207.511 125L187.5 113.618L207.632 102L227.5 113.465Z" fill="#FFADB5"/>
<path fill-rule="evenodd" clip-rule="evenodd" d="M208.5 101.361L219.796 74L239.5 85.5412L228.086 113L208.5 101.361Z" fill="#FF8D99"/>
<path fill-rule="evenodd" clip-rule="evenodd" d="M252.5 64L211.5 69.9079L246.771 90L252.5 64Z" fill="#FFADB5"/>
<path fill-rule="evenodd" clip-rule="evenodd" d="M172.573 151.662L183.113 157.79C184.898 158.827 184.885 161.405 183.09 162.424L181.29 163.446C179.569 164.424 177.455 164.413 175.744 163.418L165.203 157.29C163.418 156.252 163.431 153.676 165.226 152.656L167.026 151.634C168.748 150.656 170.86 150.667 172.573 151.662Z" fill="#FF8D99"/>
<path fill-rule="evenodd" clip-rule="evenodd" d="M191.521 97.5948L190.938 97.5106L193.862 77.3857L194.446 77.4711L191.521 97.5948Z" fill="#311D87"/>
<path fill-rule="evenodd" clip-rule="evenodd" d="M194.665 76.291L186.967 84.5067L193.604 83.1356L194.665 76.291Z" fill="#E94369"/>
<path fill-rule="evenodd" clip-rule="evenodd" d="M145.042 103.014C144.003 103.094 144.023 103.953 144.169 104.619C144.342 105.407 143.765 105.009 143.692 105.43C143.66 105.611 143.662 106.393 141.808 105.819C140.847 105.521 141.089 104.681 141.751 104.048C143.024 102.828 143.548 103.253 144.127 101.931L145.042 103.014Z" fill="#F4C5A2"/>
<path fill-rule="evenodd" clip-rule="evenodd" d="M135.456 106.99L148.813 105.85L149.564 106.245L144.704 115.558L131.971 117.634L130.576 116.053L135.456 106.99Z" fill="#311D87"/>
<path fill-rule="evenodd" clip-rule="evenodd" d="M136.206 107.386L149.563 106.246L145.456 115.954L131.971 117.634L136.206 107.386Z" fill="#39258C"/>
<path fill-rule="evenodd" clip-rule="evenodd" d="M140.215 106.88L139.632 106.856C139.807 105.191 141.002 104.404 142.728 104.483C143.495 104.517 144.069 104.756 144.434 105.196C144.938 105.805 144.922 106.43 144.917 106.461L144.336 106.528C144.336 106.522 144.411 105.947 144.044 105.509C143.774 105.185 143.323 105.007 142.706 104.98C141.238 104.906 140.363 105.467 140.215 106.88Z" fill="#311D87"/>
<path fill-rule="evenodd" clip-rule="evenodd" d="M162.081 94.7357C157.54 94.4554 153.207 95.2937 153.207 95.2937L144.965 104.633C144.965 104.633 143.485 104.933 142.178 103.028C142.178 103.028 149.046 91.9418 150.836 90.9507C152.626 89.9585 157.696 89.4125 162.948 89.3524C171.838 89.2525 166.832 95.0303 162.081 94.7357Z" fill="#402DAD"/>
<path fill-rule="evenodd" clip-rule="evenodd" d="M172.13 87.9176L169.946 91.7158L167.369 90.1595L169.71 87.3896L172.13 87.9176Z" fill="#FED4BD"/>
<path fill-rule="evenodd" clip-rule="evenodd" d="M172.521 91.4332L167.614 88.8306L166.233 90.6827L172.071 93.218L172.521 91.4332Z" fill="white"/>
<path fill-rule="evenodd" clip-rule="evenodd" d="M188.661 97.3639C189.685 97.5659 189.912 96.2345 190.31 95.6789C191.306 94.2849 191.103 95.0727 191.255 95.1076C191.652 95.2002 192.306 94.5604 192.535 95.5345C192.79 96.6242 192.514 97.1714 191.706 97.602C190.149 98.4319 190.164 97.537 189.249 98.652L188.661 97.3639Z" fill="#F4C5A2"/>
<path fill-rule="evenodd" clip-rule="evenodd" d="M168.965 153.231C168.965 153.231 169.477 151.528 172.516 152.086C173.02 152.179 173.547 154.272 173.547 154.272L179.097 155.939C179.097 155.939 168.569 159.865 168.663 158.181C168.801 155.669 168.965 153.231 168.965 153.231Z" fill="#20006C"/>
<path fill-rule="evenodd" clip-rule="evenodd" d="M121.254 132.106C121.254 132.106 122.837 133.294 122.515 136.359C122.462 136.867 120.16 137.201 120.16 137.201L115.178 144.162C115.178 144.162 114.433 133.039 116.124 133C118.645 132.944 121.254 132.106 121.254 132.106Z" fill="#20006C"/>
<path fill-rule="evenodd" clip-rule="evenodd" d="M150.405 108.238L138.405 126.534L119.355 132.512C119.355 132.512 121.744 134.261 121.008 137.042L142.737 132.037L158.018 116.545L150.405 108.238Z" fill="#311D87"/>
<path fill-rule="evenodd" clip-rule="evenodd" d="M150.001 111.231L163.872 132.995L168.846 153.743C169.819 155.247 172.988 152.958 172.988 152.958C173.202 151.472 170.512 131.358 170.512 131.358L164.449 116.388L150.001 111.231Z" fill="#3C279D"/>
<path fill-rule="evenodd" clip-rule="evenodd" d="M174.099 85.1198C173.667 87.0405 172.401 88.8373 170.488 87.9654C169.033 87.3003 168.01 85.7753 168.442 83.8557C168.874 81.935 170.49 80.6614 172.051 81.0101C173.614 81.3601 174.529 83.2003 174.099 85.1198Z" fill="#FED4BD"/>
<path fill-rule="evenodd" clip-rule="evenodd" d="M168.762 87.6502C168.762 87.6502 169.235 88.4524 170.489 87.9653C170.489 87.9653 171.476 86.9947 171.678 86.409C171.842 85.9339 171.405 85.0908 171.714 84.7456C172.312 84.0781 172.987 84.4991 172.605 86.1059C172.964 85.4167 177.532 85.0162 175.798 82.3631C173.547 78.921 168.04 79.1026 168.57 82.6397C167.027 82.505 168.088 85.9327 168.762 87.6502Z" fill="#311D87"/>
<path fill-rule="evenodd" clip-rule="evenodd" d="M173.31 94.4136C171.972 95.324 166.471 116.537 167.852 122.593C164.016 124.622 150.51 119.43 148.76 116.719L150.46 112.019L147.204 116.321C145.695 115.758 145.187 114.485 145.043 114.182C145.043 114.182 150.148 100.334 159.961 91.7039C164.273 87.9094 169.305 88.9786 173.31 94.4136Z" fill="#402DAD"/>
<path fill-rule="evenodd" clip-rule="evenodd" d="M173.662 94.5288C178.745 99.9457 179.204 100.587 179.204 100.587L189.645 96.2618C189.645 96.2618 191.636 96.5156 190.928 98.7142C190.928 98.7142 181.263 106.881 178.871 106.731C176.48 106.583 173.371 103.008 169.898 99.1135C165.247 93.8973 170.41 91.0626 173.662 94.5288Z" fill="#402DAD"/>
<path fill-rule="evenodd" clip-rule="evenodd" d="M116.123 133C118.161 132.739 115.179 144.162 115.179 144.162C115.179 144.162 112.84 133.42 116.123 133Z" fill="#3C279D"/>
<path fill-rule="evenodd" clip-rule="evenodd" d="M141.138 104.859C140.935 105.033 140.807 105.326 140.905 105.576C140.968 105.742 141.123 105.861 141.29 105.927C141.457 105.992 141.638 106.01 141.816 106.027C142.081 106.053 142.347 106.08 142.612 106.106C142.921 106.136 143.262 106.158 143.507 105.969C143.772 105.767 143.826 105.362 143.676 105.065C143.526 104.768 143.213 104.577 142.885 104.51C142.358 104.404 141.563 104.498 141.138 104.859Z" fill="#F4C5A2"/>
</svg>
