<svg width="261" height="271" viewBox="0 0 261 271" fill="none" xmlns="http://www.w3.org/2000/svg">
<path fill-rule="evenodd" clip-rule="evenodd" d="M64.6213 245.388C3.84134 205.07 -16.9089 127.198 23.7432 66.9115C64.3938 6.62632 141.961 -17.6284 202.741 22.6902C263.521 63.0089 274.731 151.671 234.08 211.957C193.43 272.242 125.401 285.707 64.6213 245.388" fill="white"/>
<mask id="mask0" mask-type="alpha" maskUnits="userSpaceOnUse" x="158" y="153" width="39" height="23">
<path fill-rule="evenodd" clip-rule="evenodd" d="M158.447 153.056H196.869V175.107H158.447V153.056Z" fill="white"/>
</mask>
<g mask="url(#mask0)">
<path fill-rule="evenodd" clip-rule="evenodd" d="M196.87 164.048L177.669 175.107L158.447 164.194L177.784 153.056L196.87 164.048Z" fill="#9997E9"/>
</g>
<path fill-rule="evenodd" clip-rule="evenodd" d="M172.719 178.454L153.518 189.513L134.296 178.6L153.634 167.462L172.719 178.454Z" fill="#9997E9"/>
<path fill-rule="evenodd" clip-rule="evenodd" d="M148.043 192.277L128.842 203.335L109.62 192.422L128.957 181.284L148.043 192.277Z" fill="#9997E9"/>
<path fill-rule="evenodd" clip-rule="evenodd" d="M122.492 206.828L103.292 217.887H103.291L84.0691 206.974L103.407 195.835L122.492 206.828Z" fill="#9997E9"/>
<path fill-rule="evenodd" clip-rule="evenodd" d="M194.217 164.517L179.378 173.051L164.523 164.63V70.8881L194.217 70.7754V164.517Z" fill="#9391EA"/>
<path fill-rule="evenodd" clip-rule="evenodd" d="M194.217 70.3823L179.378 78.8692L164.523 70.4944L179.468 61.9458L194.217 70.3823Z" fill="#D7CBFF"/>
<path fill-rule="evenodd" clip-rule="evenodd" d="M179.37 173.051V79.2065L164.523 70.7754V164.621L179.37 173.051Z" fill="#B9AFF4"/>
<path fill-rule="evenodd" clip-rule="evenodd" d="M168.977 178.518L154.139 187.032L139.284 178.629V98.1116L168.977 98V178.518Z" fill="#9391EA"/>
<path fill-rule="evenodd" clip-rule="evenodd" d="M168.977 98.3428L154.139 106.83L139.284 98.454L154.229 89.9062L168.977 98.3428Z" fill="#D7CBFF"/>
<path fill-rule="evenodd" clip-rule="evenodd" d="M154.131 187.032V106.413L139.284 98V178.619L154.131 187.032Z" fill="#B9AFF4"/>
<path fill-rule="evenodd" clip-rule="evenodd" d="M144.48 193.25L129.642 201.747L114.787 193.362V131.222L144.48 131.111V193.25Z" fill="#9391EA"/>
<path fill-rule="evenodd" clip-rule="evenodd" d="M144.48 130.718L129.642 139.205L114.787 130.829L129.732 122.281L144.48 130.718Z" fill="#D7CBFF"/>
<path fill-rule="evenodd" clip-rule="evenodd" d="M129.634 201.747V139.51L114.787 131.111V193.349L129.634 201.747Z" fill="#B9AFF4"/>
<path fill-rule="evenodd" clip-rule="evenodd" d="M119.241 207.92L104.403 216.463L89.5477 208.033V164.335L119.241 164.222V207.92Z" fill="#9391EA"/>
<path fill-rule="evenodd" clip-rule="evenodd" d="M119.241 163.829L104.403 172.315L89.5477 163.941L104.492 155.392L119.241 163.829Z" fill="#D7CBFF"/>
<path fill-rule="evenodd" clip-rule="evenodd" d="M104.394 216.463V172.67L89.5477 164.222V208.015L104.394 216.463Z" fill="#B9AFF4"/>
<path fill-rule="evenodd" clip-rule="evenodd" d="M119.241 149.113L104.403 157.6L89.5477 149.224L104.492 140.676L119.241 149.113Z" fill="#FFADB5"/>
<path fill-rule="evenodd" clip-rule="evenodd" d="M64.3086 218.307L78.9216 226.765L104.394 157.902L89.6755 149.506L64.3086 218.307Z" fill="#FF8D99"/>
<path fill-rule="evenodd" clip-rule="evenodd" d="M119.05 149.506L128.891 124.845L114.131 116.395L104.394 140.994L119.05 149.506Z" fill="#FF8D99"/>
<path fill-rule="evenodd" clip-rule="evenodd" d="M143.556 116.395L154.131 91.7667L139.36 83.2842L128.891 107.852L143.556 116.395Z" fill="#FF8D99"/>
<path fill-rule="evenodd" clip-rule="evenodd" d="M143.738 116.002L128.9 124.489L114.045 116.114L128.989 107.565L143.738 116.002Z" fill="#FFADB5"/>
<path fill-rule="evenodd" clip-rule="evenodd" d="M168.977 83.6265L154.139 92.1138L139.284 83.7386L154.229 75.1904L168.977 83.6265Z" fill="#FFADB5"/>
<path fill-rule="evenodd" clip-rule="evenodd" d="M154.873 74.7203L163.258 54.5879L177.885 63.0799L169.412 83.284L154.873 74.7203Z" fill="#FF8D99"/>
<path fill-rule="evenodd" clip-rule="evenodd" d="M187.536 47.23L157.1 51.577L183.283 66.3607L187.536 47.23Z" fill="#FFADB5"/>
<path fill-rule="evenodd" clip-rule="evenodd" d="M128.203 111.731L136.028 116.24C137.352 117.004 137.343 118.9 136.011 119.65L134.674 120.402C133.397 121.121 131.828 121.113 130.557 120.382L122.733 115.873C121.407 115.109 121.417 113.214 122.75 112.463L124.085 111.711C125.364 110.991 126.932 110.999 128.203 111.731" fill="#FF8D99"/>
<path fill-rule="evenodd" clip-rule="evenodd" d="M142.269 71.9488L141.836 71.8869L144.007 57.0791L144.44 57.1419L142.269 71.9488Z" fill="#311D87"/>
<path fill-rule="evenodd" clip-rule="evenodd" d="M144.603 56.2734L138.888 62.3185L143.815 61.3097L144.603 56.2734Z" fill="#E94369"/>
<path fill-rule="evenodd" clip-rule="evenodd" d="M107.766 75.9356C106.995 75.9949 107.01 76.6268 107.118 77.117C107.246 77.6967 106.818 77.4037 106.764 77.7135C106.74 77.8471 106.741 78.4223 105.365 78.0002C104.652 77.7807 104.832 77.1621 105.323 76.6967C106.268 75.7993 106.657 76.1117 107.087 75.1392L107.766 75.9356Z" fill="#F4C5A2"/>
<path fill-rule="evenodd" clip-rule="evenodd" d="M100.65 78.8614L110.566 78.0225L111.122 78.3136L107.515 85.1657L98.0629 86.6932L97.0272 85.5303L100.65 78.8614Z" fill="#311D87"/>
<path fill-rule="evenodd" clip-rule="evenodd" d="M101.207 79.1534L111.122 78.3145L108.073 85.4577L98.0634 86.694L101.207 79.1534Z" fill="#39258C"/>
<path fill-rule="evenodd" clip-rule="evenodd" d="M104.182 78.7809L103.75 78.7632C103.88 77.5384 104.767 76.9588 106.048 77.0172C106.617 77.042 107.043 77.2181 107.315 77.542C107.689 77.9897 107.677 78.4499 107.674 78.4729L107.242 78.5216C107.242 78.5172 107.298 78.0942 107.026 77.7721C106.825 77.534 106.49 77.403 106.032 77.3827C104.942 77.3287 104.293 77.7411 104.182 78.7809" fill="#311D87"/>
<path fill-rule="evenodd" clip-rule="evenodd" d="M120.415 69.8448C117.044 69.6386 113.827 70.2554 113.827 70.2554L107.709 77.127C107.709 77.127 106.611 77.3482 105.64 75.9465C105.64 75.9465 110.738 67.789 112.068 67.0598C113.396 66.3298 117.159 65.928 121.059 65.8838C127.658 65.8103 123.942 70.0616 120.415 69.8448" fill="#402DAD"/>
<path fill-rule="evenodd" clip-rule="evenodd" d="M127.874 64.8284L126.253 67.6231L124.34 66.478L126.078 64.4399L127.874 64.8284Z" fill="#FED4BD"/>
<path fill-rule="evenodd" clip-rule="evenodd" d="M128.164 67.415L124.522 65.5L123.497 66.8628L127.831 68.7283L128.164 67.415Z" fill="white"/>
<path fill-rule="evenodd" clip-rule="evenodd" d="M140.146 71.779C140.906 71.9277 141.074 70.948 141.37 70.5392C142.109 69.5135 141.959 70.0932 142.072 70.1188C142.366 70.187 142.851 69.7162 143.021 70.433C143.211 71.2348 143.006 71.6374 142.406 71.9542C141.251 72.5648 141.261 71.9064 140.582 72.7268L140.146 71.779Z" fill="#F4C5A2"/>
<path fill-rule="evenodd" clip-rule="evenodd" d="M125.525 112.886C125.525 112.886 125.905 111.632 128.161 112.043C128.535 112.111 128.926 113.652 128.926 113.652L133.046 114.878C133.046 114.878 125.231 117.767 125.301 116.528C125.403 114.679 125.525 112.886 125.525 112.886" fill="#20006C"/>
<path fill-rule="evenodd" clip-rule="evenodd" d="M90.1072 97.3423C90.1072 97.3423 91.2826 98.2157 91.0436 100.471C91.0042 100.845 89.2953 101.091 89.2953 101.091L85.5974 106.213C85.5974 106.213 85.0442 98.0281 86.2992 97.9998C88.171 97.9582 90.1072 97.3423 90.1072 97.3423" fill="#20006C"/>
<path fill-rule="evenodd" clip-rule="evenodd" d="M111.747 79.7803L102.839 93.2421L88.6976 97.6411C88.6976 97.6411 90.471 98.9279 89.9249 100.974L106.055 97.2916L117.398 85.8926L111.747 79.7803Z" fill="#311D87"/>
<path fill-rule="evenodd" clip-rule="evenodd" d="M111.447 81.9819L121.744 97.9959L125.436 113.262C126.159 114.369 128.511 112.684 128.511 112.684C128.67 111.591 126.673 96.7915 126.673 96.7915L122.172 85.7766L111.447 81.9819Z" fill="#3C279D"/>
<path fill-rule="evenodd" clip-rule="evenodd" d="M129.336 62.7698C129.015 64.183 128.075 65.5052 126.656 64.8636C125.575 64.3742 124.816 63.2521 125.137 61.8397C125.457 60.4265 126.657 59.4893 127.816 59.7459C128.976 60.0034 129.655 61.3574 129.336 62.7698" fill="#FED4BD"/>
<path fill-rule="evenodd" clip-rule="evenodd" d="M125.374 64.6313C125.374 64.6313 125.725 65.2216 126.656 64.8632C126.656 64.8632 127.389 64.149 127.539 63.7181C127.66 63.3685 127.336 62.7482 127.565 62.4942C128.009 62.003 128.511 62.3128 128.227 63.495C128.494 62.988 131.885 62.6933 130.597 60.7411C128.926 58.2084 124.838 58.342 125.232 60.9446C124.086 60.8455 124.874 63.3676 125.374 64.6313" fill="#311D87"/>
<path fill-rule="evenodd" clip-rule="evenodd" d="M128.75 69.6079C127.757 70.2778 123.674 85.8865 124.699 90.3422C121.851 91.8351 111.825 88.0148 110.526 86.0201L111.788 82.5617L109.371 85.7272C108.251 85.313 107.874 84.3768 107.767 84.1537C107.767 84.1537 111.557 73.9645 118.841 67.6141C122.042 64.8221 125.777 65.6088 128.75 69.6079" fill="#402DAD"/>
<path fill-rule="evenodd" clip-rule="evenodd" d="M129.012 69.6929C132.785 73.6787 133.126 74.1504 133.126 74.1504L140.876 70.9681C140.876 70.9681 142.354 71.1548 141.829 72.7725C141.829 72.7725 134.654 78.7813 132.879 78.6716C131.104 78.5627 128.796 75.9318 126.218 73.0663C122.765 69.2283 126.597 67.1425 129.012 69.6929" fill="#402DAD"/>
<path fill-rule="evenodd" clip-rule="evenodd" d="M86.2988 97.9998C87.8117 97.8078 85.5979 106.213 85.5979 106.213C85.5979 106.213 83.8613 98.3087 86.2988 97.9998" fill="#3C279D"/>
<path fill-rule="evenodd" clip-rule="evenodd" d="M104.868 77.2936C104.717 77.4219 104.622 77.6369 104.695 77.821C104.742 77.9431 104.857 78.0307 104.981 78.0794C105.105 78.1272 105.239 78.1405 105.371 78.1528C105.568 78.1723 105.765 78.1918 105.962 78.2113C106.191 78.2334 106.445 78.2493 106.627 78.1104C106.823 77.9617 106.864 77.6635 106.752 77.4449C106.641 77.2263 106.408 77.0865 106.165 77.0369C105.773 76.9591 105.184 77.0281 104.868 77.2936" fill="#F4C5A2"/>
</svg>
