<svg width="49" height="48" fill="none" xmlns="http://www.w3.org/2000/svg"><path fill-rule="evenodd" clip-rule="evenodd" d="M42.53 24a18.53 18.53 0 11-37.06 0 18.53 18.53 0 0137.06 0zM0 24a24 24 0 1048 0 24 24 0 00-48 0z" fill="#FF75AD"/><path fill-rule="evenodd" clip-rule="evenodd" d="M11.58 29.55c-.35.16-.6.35-.58.42.03.07.33 0 .68-.15l11.75-5.38c.34-.15.6-.34.57-.41-.03-.07-.33 0-.67.15l-11.75 5.37z" fill="#FF75AD"/><path fill-rule="evenodd" clip-rule="evenodd" d="M23 22.66c0 .74.45 1.34 1 1.34s1-.6 1-1.34V11.34c0-.74-.45-1.34-1-1.34s-1 .6-1 1.34v11.32z" fill="#FF75AD"/><path fill-rule="evenodd" clip-rule="evenodd" d="M24.15 23c-.64 0-1.15.45-1.15 1s.51 1 1.15 1h9.7c.64 0 1.15-.45 1.15-1s-.51-1-1.15-1h-9.7z" fill="#FF75AD"/><path fill-rule="evenodd" clip-rule="evenodd" d="M22 24a2 2 0 104 0 2 2 0 00-4 0z" fill="#FF75AD"/></svg>