<svg width="89" height="90" fill="none" xmlns="http://www.w3.org/2000/svg"><path fill-rule="evenodd" clip-rule="evenodd" d="M44.08 6.96L44 44.74h38S82.62 25.78 67.53 15c-5.63-4.02-11.54-7.68-23.45-8.04" fill="#8184EB"/><path fill-rule="evenodd" clip-rule="evenodd" d="M68 45.33a23.5 23.5 0 11-47 0 23.5 23.5 0 0147 0" fill="#0CC"/><path d="M68 45.33a23.5 23.5 0 11-47 0 23.5 23.5 0 0147 0" stroke="#0CC" stroke-width="2"/><path fill-rule="evenodd" clip-rule="evenodd" d="M35.57 33.62c-.5.2-.99.32-1.48.32-1.13 0-2.09-.8-2.09-1.97 0-.88.55-1.79 1.81-2.13l4.05-1.07a2 2 0 011.92 1.25c.14.2.22.78.22 1.63v14.9c0 1.29-.88 2.22-2.2 2.22a2.12 2.12 0 01-2.23-2.21V33.62zM53.86 28.83c1.3 0 2.06 1 2.06 2.19 0 1.37-.66 2.05-2.06 2.05H49.5c-.08.6-.14.95-.32 2.03 4.67 0 6.83 3.27 6.83 6.64 0 3.48-2.32 7.09-6.96 7.09-3.4 0-6.04-2.37-6.04-4.14 0-1.32.95-2.03 1.92-2.03.58 0 1.24.32 1.67.9a3.49 3.49 0 002.55 1.16c1.59 0 2.61-1.37 2.61-2.77 0-1.37-.87-2.8-2.66-2.8-.87 0-1.55.4-2.35.4-1.18 0-2.1-.44-2.1-2.03 0-.13.02-.55 1.23-6.77.24-1.18 1.11-1.92 2.46-1.92h5.53zM48 53.28c0-.32.14-.48.43-.48.3 0 .44.16.44.48v.46a1.99 1.99 0 011.8-1.06A2.3 2.3 0 0153 55v4.2c0 .3-.14.44-.44.44-.29 0-.43-.15-.43-.44V55.4c0-1.23-.8-1.82-1.6-1.82-.83 0-1.66.62-1.66 1.82v3.81c0 .3-.14.44-.44.44-.29 0-.43-.15-.43-.44v-5.92zM45.65 52.92c0-.32.13-.47.37-.47.25 0 .39.15.39.47v6.25c0 .32-.13.47-.38.47s-.38-.15-.38-.47v-6.25zM46 49.7c.28 0 .5.28.5.63 0 .36-.22.63-.5.63s-.5-.27-.5-.63c0-.35.22-.63.5-.63zM34 53.33c0-.36.16-.54.5-.54.33 0 .51.17.51.5v.47a2.33 2.33 0 014.04.2 2.76 2.76 0 012.4-1.28c1.39 0 2.55.88 2.55 2.15v4.36c0 .3-.16.44-.5.44-.35 0-.52-.15-.52-.44v-3.97c0-.87-.59-1.6-1.59-1.6-1.16 0-1.9.89-1.9 1.9v3.67c0 .3-.17.45-.5.45-.34 0-.5-.15-.5-.45v-3.97c0-.88-.6-1.58-1.6-1.58-1.16 0-1.9.87-1.9 1.89v3.66c0 .3-.16.45-.49.45-.34 0-.5-.15-.5-.45v-5.86z" fill="#fff"/></svg>