<svg width="89" height="89" fill="none" xmlns="http://www.w3.org/2000/svg"><mask id="a" maskUnits="userSpaceOnUse" x="0" y="0" width="89" height="89"><path fill-rule="evenodd" clip-rule="evenodd" d="M0 .3h88.7V89H0V.3z" fill="#fff"/></mask><g mask="url(#a)"><path fill-rule="evenodd" clip-rule="evenodd" d="M88.7 44.65a44.35 44.35 0 11-88.7 0 44.35 44.35 0 0188.7 0z" fill="#B4B9F6"/></g><path fill-rule="evenodd" clip-rule="evenodd" d="M82 44.73c0 20.87-17.01 37.78-38 37.78S6 65.6 6 44.73C6 23.87 23.01 6.96 44 6.96s38 16.91 38 37.77z" fill="#fff"/><path clip-rule="evenodd" d="M82 44.73c0 20.87-17.01 37.78-38 37.78S6 65.6 6 44.73C6 23.87 23.01 6.96 44 6.96s38 16.91 38 37.77z" stroke="#8184EB"/><path fill-rule="evenodd" clip-rule="evenodd" d="M60.7 16.9l-.7-.46 2.3-3.52.7.46-2.3 3.52zM72.44 28.83l-.44-.74 3.56-2.24.44.73-3.56 2.25zM73 61.4l.42-.76L77 62.86l-.42.76L73 61.4zM60 73l.75-.43L63 76.12l-.75.43L60 73zM44 77.56l.91-.02.09 3.96-.91.02-.09-3.96zM27.38 72.57l.62.32-1.38 3.66-.62-.33 1.38-3.65zM16.66 60.64l.34.6-3.66 1.39-.34-.6 3.66-1.39zM12 44.86l-.02.87L8 45.6l.02-.87 3.98.13zM17 28.1l-.44.73L13 26.58l.44-.73L17 28.1zM29 16.45l-.72.45L26 13.37l.72-.45L29 16.45zM77 45.68v-.95l4 .05v.95l-4-.05z" fill="#ED1E79"/><path fill-rule="evenodd" clip-rule="evenodd" d="M77.2 51.7l-.2.6 2.8.39.2-.6-2.8-.4zM76.3 54.67l-.3 1.01 2.7.98.3-1-2.7-.98zM75.39 57.66l-.39.85 2.61 1.14.39-.86-2.61-1.13zM72.39 64.62l-.39.62 1.61 1.36.39-.62-1.61-1.36zM69.46 66.6l-.46.54 1.54 1.45.46-.53-1.54-1.46zM67.54 69.59l-.54.45 1.46 1.53.54-.45-1.46-1.53zM64.63 71.57l-.63.4 1.37 1.6.63-.4-1.37-1.6zM58.86 74.56l-.86.38 1.14 2.6.86-.38-1.14-2.6zM55.01 76.55l-1.01.29.99 2.69 1.01-.3-.99-2.68zM51.61 77.54l-.61.2.39 2.78.61-.2-.39-2.78zM48.76 77.54l-.76.1.24 2.88.76-.1-.24-2.88zM41 77.64l-.76-.1-.24 2.88.76.1.24-2.88zM38 77.74l-.61-.2-.39 2.78.61.2.39-2.78zM35 76.84l-1.01-.3-.99 2.7 1.01.29.99-2.7zM31 74.94l-.86-.38-1.14 2.6.86.38 1.14-2.6zM25 71.96l-.63-.39-1.37 1.6.63.4 1.37-1.6zM22 70.04l-.54-.45L20 71.12l.54.45L22 70.04zM78.1 47.72l-.1.75 2.9.24.1-.76-2.9-.23zM17 65.24l-.39-.62L15 65.98l.39.62L17 65.24zM14 58.5l-.39-.84L11 58.79l.39.86L14 58.5zM13 55.68l-.3-1-2.7.98.3 1 2.7-.98zM12 52.3l-.2-.6-2.8.38.2.6 2.8-.38zM11 48.47l-.1-.75-2.9.23.1.76 2.9-.24zM10.9 41.75L11 41l-2.9-.24-.1.75 2.9.24zM11.8 37.78l.2-.61-2.8-.39-.2.6 2.8.4zM12.7 34.8l.3-1.01-2.7-.98-.3 1 2.7.98zM13.61 31.81l.39-.85-2.61-1.14-.39.85 2.61 1.14zM16.61 24.85l.39-.62-1.61-1.37-.39.63 1.61 1.36zM18.54 22.86l.46-.53-1.54-1.45-.46.53 1.54 1.45zM21.46 19.88l.54-.46-1.46-1.53-.54.46 1.46 1.53zM24.37 17.9l.63-.4-1.37-1.6-.63.4 1.37 1.6zM30.14 13.92l.86-.39-1.14-2.6-.86.39 1.14 2.6zM33.99 12.92l1.01-.29-.99-2.69-1.01.3.99 2.68zM37.39 11.93l.61-.2-.39-2.78-.61.2.39 2.78zM40.24 11.93l.76-.1-.24-2.88-.76.1.24 2.88zM78 41l.1.75 2.9-.24-.1-.75L78 41zM77 37.17l.2.6 2.8-.38-.2-.6-2.8.38zM76 33.79l.3 1 2.7-.98-.3-1-2.7.98zM75 30.96l.39.85L78 30.67l-.39-.85L75 30.96zM72 24.23l.39.62L74 23.5l-.39-.63L72 24.23zM69 22.33l.46.53L71 21.41l-.46-.53L69 22.33zM67 19.42l.54.46L69 18.35l-.54-.46L67 19.42zM64 17.5l.63.4L66 16.3l-.63-.4L64 17.5zM58 13.53l.86.39 1.14-2.6-.86-.38-1.14 2.6zM54 12.63l1.01.3.99-2.7-1.01-.29-.99 2.7zM51 11.73l.61.2.39-2.79-.61-.2-.39 2.8zM19 67.14l-.46-.54L17 68.06l.46.53L19 67.14zM48 11.83l.76.1.24-2.88-.76-.1-.24 2.88z" fill="#666767"/><path fill-rule="evenodd" clip-rule="evenodd" d="M44 11.93h1V8.95h-1v2.98z" fill="#ED1E79"/><path fill-rule="evenodd" clip-rule="evenodd" d="M44.12 6.96L44 43.74l20-31.13s-5.58-4.89-19.88-5.65z" fill="#8184EB"/><path fill-rule="evenodd" clip-rule="evenodd" d="M69 45.23A24.43 24.43 0 0144.5 69.6 24.43 24.43 0 0120 45.23a24.43 24.43 0 0124.5-24.35c13.53 0 24.5 10.9 24.5 24.35z" fill="#0CC"/><path fill-rule="evenodd" clip-rule="evenodd" d="M48 54.28c0-.32.14-.48.43-.48.3 0 .44.16.44.48v.46a1.99 1.99 0 011.8-1.06A2.3 2.3 0 0153 56v4.2c0 .3-.14.44-.44.44-.29 0-.43-.15-.43-.44V56.4c0-1.23-.8-1.82-1.6-1.82-.83 0-1.66.62-1.66 1.82v3.81c0 .3-.14.44-.44.44-.29 0-.43-.15-.43-.44v-5.92zM45.65 53.92c0-.32.13-.47.37-.47.25 0 .39.15.39.47v6.25c0 .32-.13.47-.38.47s-.38-.15-.38-.47v-6.25zM46 50.7c.28 0 .5.28.5.63 0 .36-.22.63-.5.63s-.5-.27-.5-.63c0-.35.22-.63.5-.63zM34 54.33c0-.36.16-.54.5-.54.33 0 .51.17.51.5v.47a2.33 2.33 0 014.04.2 2.76 2.76 0 012.4-1.28c1.39 0 2.55.88 2.55 2.15v4.36c0 .3-.16.44-.5.44-.35 0-.52-.15-.52-.44v-3.97c0-.87-.59-1.6-1.59-1.6-1.16 0-1.9.89-1.9 1.9v3.67c0 .3-.17.45-.5.45-.34 0-.5-.15-.5-.45v-3.97c0-.88-.6-1.58-1.6-1.58-1.16 0-1.9.87-1.9 1.89v3.66c0 .3-.16.45-.49.45-.34 0-.5-.15-.5-.45v-5.86zM47.86 28.83c1.3 0 2.06 1 2.06 2.17 0 1.36-.66 2.05-2.06 2.05H43.5c-.08.6-.14.94-.32 2.01 4.67 0 6.83 3.25 6.83 6.6 0 3.46-2.32 7.05-6.96 7.05-3.4 0-6.04-2.36-6.04-4.11 0-1.31.95-2.02 1.92-2.02.58 0 1.24.31 1.67.9a3.5 3.5 0 002.55 1.14c1.59 0 2.61-1.36 2.61-2.75 0-1.36-.87-2.77-2.66-2.77-.87 0-1.55.39-2.35.39-1.18 0-2.1-.45-2.1-2.02 0-.13.02-.55 1.23-6.73.24-1.18 1.11-1.91 2.46-1.91h5.53z" fill="#fff"/></svg>