<svg width="59" height="37" fill="none" xmlns="http://www.w3.org/2000/svg"><path fill-rule="evenodd" clip-rule="evenodd" d="M12.73 3A9.63 9.63 0 003 12.5c0 5.24 4.36 9.5 9.73 9.5 3.5 0 6.55-1.81 8.27-4.52-1.34-2.13-3.09-6-1.04-11.31A9.8 9.8 0 0012.73 3z" fill="#FF75AD"/><path fill-rule="evenodd" clip-rule="evenodd" d="M19.87 20.38l-.42.31a6.7 6.7 0 01-6.27 4.28 6.7 6.7 0 01-6.3-4.34c-.3-.21-.53-.4-.67-.5L6.07 20l-.09.07C-.09 25.24 0 34.3 0 34.67V35h15.46c.23-3.5 1.28-9.75 5.54-14.37-.3-.27-.57-.47-.74-.58l-.26.22-.13.1z" fill="#FF75AD"/><path fill-rule="evenodd" clip-rule="evenodd" d="M34.57 28.08l-4.07-2.07-4.07 2.07v-5.04l4.07 2.18 4.07-2.18v5.04zm4.03-8.02l-.29.25-.14.12c-.93.74-3.07 2.13-5.89 2.58-.28.04-.55.08-.84.1l-.73.02c-.88 0-1.75-.1-2.58-.3a14.02 14.02 0 01-5.2-2.69l-.16-.14-.1.08C15.9 25.94 16 36.2 16 36.64V37h29l-.02-.38c-.48-11.86-5.21-15.78-6.38-16.56z" fill="#FF75AD"/><path fill-rule="evenodd" clip-rule="evenodd" d="M20 11c0 6.07 4.94 11 11 11 2.94 0 5.7-1.15 7.78-3.23A11.01 11.01 0 0031 0c-6.07 0-11 4.94-11 11zM46.35 35H59v-.29c0-.34-.12-8-5.62-12.65l-.07-.06-.55.46-3.92 7.42-.7-4.35 1.12-1.76a9.71 9.71 0 01-4.26.04l1.1 1.72-.73 4.14c.58 2.03.85 3.98.98 5.33z" fill="#FF75AD"/><path fill-rule="evenodd" clip-rule="evenodd" d="M47.32 22A8.6 8.6 0 0056 13.5 8.6 8.6 0 0047.33 5c-1.95 0-3.75.63-5.2 1.7A11.2 11.2 0 0140 18.04 8.71 8.71 0 0047.32 22z" fill="#FF75AD"/></svg>