<svg width="41" height="41" fill="none" xmlns="http://www.w3.org/2000/svg"><path fill-rule="evenodd" clip-rule="evenodd" d="M38.64.48C37.54.25 36.12.1 34.4.03c-1.78-.08-3.02 0-3.82.24-.79.24-2.06.97-3.89 2.25a64.6 64.6 0 00-7 6.03 115.69 115.69 0 00-7.68 8.1c-2 2.34-4.1 4.93-6.22 7.72l-.02-.04c-.21.2-.4.42-.59.64l-.05.07c-2.05 2.47-4.9 7.02-3.95 10.53l.15.28c.32.2.64.4.95.62.39.15.78.3 1.17.43l1.2.1c2.15-.29 4.1-.87 6-1.83.32-.3.63-.61.96-.9l.07-.1c3.4-5.18 7.65-10.45 12.65-15.67 4.99-5.2 9.64-9.14 13.8-11.68a10.39 10.39 0 002.02-1.42 3 3 0 00.78-1.53 2.84 2.84 0 00-2.3-3.4z" fill="#FF75AD"/><mask id="a" maskUnits="userSpaceOnUse" x="0" y="1" width="35" height="39"><path fill-rule="evenodd" clip-rule="evenodd" d="M0 1.53h34.61V40H0V1.53z" fill="#fff"/></mask><g mask="url(#a)"><path fill-rule="evenodd" clip-rule="evenodd" d="M32.25 26.26a61.76 61.76 0 00-5.64-6.73 109.33 109.33 0 00-7.57-7.4 161.77 161.77 0 00-6.84-5.67 1.02 1.02 0 01-.42-.27C9.7 4.08 7.4 2.96 4.7 1.9a1.16 1.16 0 01-.23-.13 6.09 6.09 0 00-3.31 0L.77 2l-.6 1.67a5.5 5.5 0 01-.1.47L0 5.06c.24 1.82.7 3.5 1.41 5.12.28.52.6 1.01.97 1.46l.27.18C7.5 15.1 12.42 19.18 17.31 24c4.87 4.79 8.54 9.26 10.92 13.27.57.98 1 1.6 1.33 1.93a2.81 2.81 0 003.44.37c.61-.4 1-1.02 1.17-1.83.21-1.06.35-2.42.42-4.07.07-1.7 0-2.9-.23-3.67-.22-.76-.91-1.98-2.1-3.73z" fill="#FF75AD"/></g></svg>