<svg width="89" height="90" fill="none" xmlns="http://www.w3.org/2000/svg"><path fill-rule="evenodd" clip-rule="evenodd" d="M44.12 6.96L44 44.66l33-17.8s-4.17-9.07-12.96-14.05C58 9.39 49.92 6.74 44.1 6.96z" fill="#8184EB"/><path fill-rule="evenodd" clip-rule="evenodd" d="M68 45.33a23.5 23.5 0 11-47 0 23.5 23.5 0 0147 0" fill="#0CC"/><path d="M68 45.33a23.5 23.5 0 11-47 0 23.5 23.5 0 0147 0" stroke="#0CC" stroke-width="2"/><path fill-rule="evenodd" clip-rule="evenodd" d="M35.57 33.62c-.5.2-.99.32-1.48.32-1.13 0-2.09-.8-2.09-1.97 0-.88.55-1.79 1.81-2.13l4.05-1.07a2 2 0 011.92 1.25c.14.2.22.78.22 1.63v14.9c0 1.29-.88 2.22-2.2 2.22a2.12 2.12 0 01-2.23-2.21V33.62zM51.7 38.84c0-2.4-.69-6-2.62-6-2.17 0-2.73 3.82-2.73 5.95 0 2.3.71 5.83 2.7 5.83 1.96 0 2.65-3.75 2.65-5.78zm-2.6-10.06c5.2 0 6.9 5.78 6.9 9.93 0 4.06-1.83 9.91-6.95 9.91-5.33 0-7.05-5.6-7.05-9.85 0-4.14 1.8-10 7-10h.1zM48 53.28c0-.32.14-.48.43-.48.3 0 .44.16.44.48v.46a1.99 1.99 0 011.8-1.06A2.3 2.3 0 0153 55v4.2c0 .3-.14.44-.44.44-.29 0-.43-.15-.43-.44V55.4c0-1.23-.8-1.82-1.6-1.82-.83 0-1.66.62-1.66 1.82v3.81c0 .3-.14.44-.44.44-.29 0-.43-.15-.43-.44v-5.92zM45.65 52.92c0-.32.13-.47.37-.47.25 0 .39.15.39.47v6.25c0 .32-.13.47-.38.47s-.38-.15-.38-.47v-6.25zM46 49.7c.28 0 .5.28.5.63 0 .36-.22.63-.5.63s-.5-.27-.5-.63c0-.35.22-.63.5-.63zM34 53.33c0-.36.16-.54.5-.54.33 0 .51.17.51.5v.47a2.33 2.33 0 014.04.2 2.76 2.76 0 012.4-1.28c1.39 0 2.55.88 2.55 2.15v4.36c0 .3-.16.44-.5.44-.35 0-.52-.15-.52-.44v-3.97c0-.87-.59-1.6-1.59-1.6-1.16 0-1.9.89-1.9 1.9v3.67c0 .3-.17.45-.5.45-.34 0-.5-.15-.5-.45v-3.97c0-.88-.6-1.58-1.6-1.58-1.16 0-1.9.87-1.9 1.89v3.66c0 .3-.16.45-.49.45-.34 0-.5-.15-.5-.45v-5.86z" fill="#fff"/></svg>