<svg width="41" height="42" fill="none" xmlns="http://www.w3.org/2000/svg"><mask id="a" maskUnits="userSpaceOnUse" x="0" y="0" width="41" height="42"><path fill-rule="evenodd" clip-rule="evenodd" d="M0 0h41v42H0V0z" fill="#fff"/></mask><g mask="url(#a)"><path fill-rule="evenodd" clip-rule="evenodd" d="M38.31 0c-1.03 0-2.34.13-3.89.38-1.6.26-2.72.57-3.39.93-.67.36-1.68 1.26-3.09 2.76a59.93 59.93 0 00-5.19 6.75c-2.08 3.02-3.9 5.96-5.44 8.74a161.06 161.06 0 00-4.18 8.13 14.46 14.46 0 00-3.08-3 6.87 6.87 0 00-3.85-1.42c-1.22 0-2.56.55-3.98 1.61C.75 26 0 27.26 0 28.63c0 1.04.64 2.25 1.95 3.7a46.35 46.35 0 014.58 5.85A23.9 23.9 0 008.3 40.7c.4.44.89.77 1.48 1 .57.2 1.52.3 2.9.3 1.88 0 3.17-.2 3.93-.62a4.51 4.51 0 001.78-1.77c.38-.68.98-2.04 1.83-4.16 2.1-5.3 4.98-10.86 8.52-16.5 3.54-5.64 7-10.05 10.3-13.13.8-.74 1.3-1.26 1.54-1.66.28-.44.42-.95.42-1.52A2.59 2.59 0 0038.31 0z" fill="#FF75AD"/></g></svg>