<svg width="270" height="200" fill="none" xmlns="http://www.w3.org/2000/svg"><path fill-rule="evenodd" clip-rule="evenodd" d="M135 167.6c-53.8 0-97.4-20-97.4-44.5 0-24.6 43.6-44.5 97.4-44.5 53.8 0 97.4 20 97.4 44.5 0 24.6-43.6 44.5-97.4 44.5m0-118.4C60.4 49.2 0 82.3 0 123.1 0 163.9 60.4 197 135 197s135-33.1 135-73.9c0-40.8-60.4-73.9-135-73.9" fill="#323232" fill-opacity=".1"/><path fill-rule="evenodd" clip-rule="evenodd" d="M135.5 163.5c-52.5 0-95-19.4-95-43.3S83 77 135.5 77c52.4 0 95 19.4 95 43.3 0 24-42.6 43.3-95 43.3zm131.6-91.3s-20-49.5-131.6-49.5C23.8 22.7 3.9 95.3 3.9 95.3v25C4 159.8 63 192 135.5 192c72.7 0 131.6-32.2 131.6-71.9v-48z" fill="#8285DF"/><mask id="a" maskUnits="userSpaceOnUse" x="4" y="0" width="263" height="145"><path fill-rule="evenodd" clip-rule="evenodd" d="M4.3 0h262.6v144H4.3V0z" fill="#fff"/></mask><g mask="url(#a)"><path fill-rule="evenodd" clip-rule="evenodd" d="M135.6 115.4C83.3 115.4 40.8 96 40.8 72s42.5-43.4 94.8-43.4 94.8 19.5 94.8 43.4c0 24-42.5 43.4-94.8 43.4m0-115.4C63.1 0 4.3 32.3 4.3 72c0 39.8 58.8 72 131.3 72 72.5 0 131.3-32.2 131.3-72 0-39.7-58.8-72-131.3-72" fill="#B3B8F6"/></g><path fill-rule="evenodd" clip-rule="evenodd" d="M214.2 115.7c-16.9 11.8-46 19.6-79.2 19.6h-2.5V192h2.5c49.1 0 92-14.8 114.4-36.7v-48s-31.4 9.5-35.2 8.3" fill="#F6BF03"/><path fill-rule="evenodd" clip-rule="evenodd" d="M214.2 95.6c-16.9 11.8-46 19.6-79.2 19.6h-2.5v28.6h2.5c49.1 0 92-14.8 114.4-36.7l-24-8-11.2-3.5" fill="#F6DD03"/><path fill-rule="evenodd" clip-rule="evenodd" d="M133.5 143.5c-45.7 1.6-95-24.4-92.9-49.8C28.4 93.7 4 73.9 4 73.9v46.3c0 39.4 57.9 71.4 129.6 72v-48.7z" fill="#00CDC4"/><path fill-rule="evenodd" clip-rule="evenodd" d="M133.5 115.3c-50.2-.4-90.8-18.6-93-41.4H4c1.8 38.5 59 69.4 129.6 70v-28.6z" fill="#01E4D0"/><path fill-rule="evenodd" clip-rule="evenodd" d="M159.5 36.5c-.7 4.4-2.3 11.5-3 16-.3 1.5-.5 3-.3 4.6.2 1.6.8 3.1 2.1 4 1.7 1.2 4 1 6 .9l9.1-1c1.6 0 3.2-.3 4.6-.8a5.7 5.7 0 003.4-3.2c.6-1.8 0-3.8-.8-5.7l-3.6-9.6a43 43 0 00-1.9-4.4" fill="#3D00BD"/><mask id="b" maskUnits="userSpaceOnUse" x="215" y="179" width="20" height="21"><path fill-rule="evenodd" clip-rule="evenodd" d="M215.5 179.9h19V200h-19v-20.1z" fill="#fff"/></mask><g mask="url(#b)"><path fill-rule="evenodd" clip-rule="evenodd" d="M216 182l-.5 9.7 19 8.3-9.2-14.4-2.5-5.7-6.9 2z" fill="#130159"/></g><path fill-rule="evenodd" clip-rule="evenodd" d="M230.2 176.4l-.5 9.5 20.7 2.3-11-8.3-2.4-5.5-6.8 2z" fill="#130159"/><path fill-rule="evenodd" clip-rule="evenodd" d="M170.6 99.8c-3.2 13.7 4 16.8 12.4 19.8 9 3.2 26.9 5.9 26.9 5.9l19.2 52.4c3.3 2.4 6.8 1.6 10.5-1.5l-16.3-59.8-32.1-18-20.6 1.2z" fill="#5601F3"/><path fill-rule="evenodd" clip-rule="evenodd" d="M162.8 106.7c-3.2 13.6 4 16.6 12.3 19.7a188 188 0 0026.7 5.8l13.2 51.3c2.7 2.5 6.5 2.1 10.8 0L213.2 124l-28.8-18.6-21.6 1.2z" fill="#681EF7"/><path fill-rule="evenodd" clip-rule="evenodd" d="M194.4 100c-.6-3.6-7.9-2.7-7.2-18.5.5-10.2-1.2-23.4-7-26.5-4.8-2.5-14.7 2-17.3 3.6-5.6 3.5-2.8 5.6-4 12.1-1.2 6.5-.8 35.2-.8 41.8 0 2.5 22.8 7.6 35-8.1" fill="#F70083"/><path fill-rule="evenodd" clip-rule="evenodd" d="M193 123.1l-17-9.8c-.3-.1-.3-.5 0-.6l31.3-18h.3l17 9.8c.3.1.3.5 0 .6l-31.3 18h-.3" fill="#827FDE"/><path fill-rule="evenodd" clip-rule="evenodd" d="M224.6 104.2l-31.3 18h-.4l-17-9.8a.4.4 0 010-.7l31.3-18h.5l17 9.8c.2.1.2.5 0 .7" fill="#DFE3FF"/><path fill-rule="evenodd" clip-rule="evenodd" d="M203.8 95.7c2.7.6 7.8 4.3 7.3 5.4-.6 1-3.2 3.6-9.5-2.7-6.2-6.4 2.2-2.7 2.2-2.7" fill="#FED4BD"/><path fill-rule="evenodd" clip-rule="evenodd" d="M190.3 95.8l10.4 4.7c.2-2.4 2.7-3.6 5.5-3.6L189 85.5l-2.4-8.6v8.2c.1 4.5 1.3 8.5 3.7 10.7" fill="#F1539A"/><path fill-rule="evenodd" clip-rule="evenodd" d="M167.9 58c-.2 2.3 6.7.9 5.8-1l-1.4-7.2c-.1-.8-.3-1.6-.8-2.3-1.9-2.4-3.3-.5-3.5 1.4l-.1 9" fill="#FED4BD"/><path fill-rule="evenodd" clip-rule="evenodd" d="M176 43.4c.8-2.4 1-5.1 0-7.5a6.9 6.9 0 00-5.8-4.3c-2.8 0-5.3 2-6.4 4.5a13 13 0 00-.4 8c.5 2.1 1.4 4.4 3.2 5.8 5.2 4.3 8-2.6 9.4-6.5" fill="#FED4BD"/><path fill-rule="evenodd" clip-rule="evenodd" d="M170.3 40.2a2 2 0 001.6 2 2 2 0 002.2-1.3c.2 1 1.3 1.6 2.3 1.4 1-.2 1.8-1 2-2 .4-1 .3-2 .1-3-.2-1-.4-2-.8-3-.5-.9-1-1.8-1.7-2.6-1.8-1.9-7-3.1-9.5-.9-5.2-.6-6.4 4.3-6.4 8.5-.4 2.4 1.3 4.2 2 6.5.5 1.2 1.5 1.7 2.8 1.5 1-.2-1.9-2.5-1.2-5.4.3-1.6 1.8 1.8 2.3 1.7l.5-3.6c1 .8 2.7 2 3.8.2" fill="#3D00BD"/><path fill-rule="evenodd" clip-rule="evenodd" d="M184.1 107.5c2.8.6 7.8 4.3 7.3 5.4-.5 1-3.2 3.7-9.4-2.7-6.3-6.4 2.1-2.7 2.1-2.7" fill="#FED4BD"/><path fill-rule="evenodd" clip-rule="evenodd" d="M162.2 60.2c-8 1.4-6.8 31.4-4 37.5 2.8 6 23.3 13.7 23.3 13.7.8-2.8 2.2-4.2 4-4.5L166 92.4v-18c.2-3.2 3-15.3-3.8-14.2" fill="#F1539A"/><path fill-rule="evenodd" clip-rule="evenodd" d="M192.5 121.6a217219.8 217219.8 0 016-19.2L229 84.8c.4-.2.9.2.7.6l-5.5 18.6-.5.5-30.5 17.6c-.4.3-.9-.1-.7-.5" fill="#8285DF"/><path fill-rule="evenodd" clip-rule="evenodd" d="M193.4 121.6L199 103c0-.3.2-.4.4-.6L230 84.8c.4-.2.8.2.7.6l-5.6 18.6c0 .2-.2.4-.4.5l-30.5 17.6c-.4.3-.9-.1-.8-.5" fill="#D9DFF6"/></svg>