<svg width="506" height="416" fill="none" xmlns="http://www.w3.org/2000/svg"><path fill-rule="evenodd" clip-rule="evenodd" d="M22.5 180.1C8.7 188.6-2 204.3.3 220.4c3.4 22.4 29.4 36 33 58.3 3.5 21.6-15.2 40.5-18.2 62.2-3.3 23.8 14 47 35.7 56.9 21.8 10 46.8 9.3 70.5 5.9 23.6-3.5 47-9.6 71-9.8 26-.2 51.6 6.6 77 12.7 25.4 6 51.5 11.5 77.4 8.6 26-2.9 52.1-15.4 65.4-38 15.9-27 11-63.6 29.7-88.8 10.5-14.1 26.8-22.5 39.2-34.9a85.9 85.9 0 0023.8-74.4 85.5 85.5 0 00-47.5-62c-23.4-10.8-52.2-11-71.3-28.5-12-11-18-27.1-27.1-40.7a98.6 98.6 0 00-70.3-42.4c-28-3-57.1 7-77.5 26.6-15 14.5-28 35.3-48.7 37.2-15 1.4-28.8-7.8-43.6-10.3a51.5 51.5 0 00-56.4 37 59.5 59.5 0 003.2 32.1c12.3 39.3-31.2 44.9-43 52" fill="#F0EFFF"/><path fill-rule="evenodd" clip-rule="evenodd" d="M162.7 243.5l45.3 26.7 45.5-26.3-45.7-26.8-45.1 26.4z" fill="#9997E9"/><path fill-rule="evenodd" clip-rule="evenodd" d="M219.7 278.2l45.4 26.6 45.4-26.2-45.7-26.8-45 26.4zM278 311.5l45.4 26.6 45.4-26.3-45.7-26.8-45 26.5z" fill="#BBB8F6"/><path fill-rule="evenodd" clip-rule="evenodd" d="M169.7 243.6l34.9 20.4 35-20V20.2l-70-.3v223.6z" fill="#8184EB"/><path fill-rule="evenodd" clip-rule="evenodd" d="M204.4 0l-34.7 20.4L204.6 41l35-20.3L204.3 0z" fill="#D9DFF7"/><path fill-rule="evenodd" clip-rule="evenodd" d="M204.6 265V41.1l35-20.1v223.9l-35 20.1z" fill="#BBB8F6"/><path fill-rule="evenodd" clip-rule="evenodd" d="M228.5 278.6l35 20.4 35-20.1V86.3l-70-.3v192.6z" fill="#8184EB"/><path fill-rule="evenodd" clip-rule="evenodd" d="M228.5 86.4l35 20.6 35-20.3L263.1 66l-34.7 20.4z" fill="#D9DFF7"/><path fill-rule="evenodd" clip-rule="evenodd" d="M263.5 299V106.1l35-20.1v192.9l-35 20.1z" fill="#B4B9F6"/><path fill-rule="evenodd" clip-rule="evenodd" d="M287.4 313.5l35 20.5 34.9-20.2V164.3l-69.9-.3v149.5z" fill="#8184EB"/><path fill-rule="evenodd" clip-rule="evenodd" d="M287.4 164.4l35 20.6 34.9-20.3L322 144l-34.7 20.4z" fill="#D9DFF7"/><path fill-rule="evenodd" clip-rule="evenodd" d="M322.4 334V185l34.9-20v148.9l-35 20.1z" fill="#B4B9F6"/><mask id="a" maskUnits="userSpaceOnUse" x="228" y="337" width="68" height="36"><path fill-rule="evenodd" clip-rule="evenodd" d="M228.3 337.2h66.8V373h-66.8v-35.8z" fill="#fff"/></mask><g mask="url(#a)"><path fill-rule="evenodd" clip-rule="evenodd" d="M228.3 355c0 10 15 18 33.4 18s33.4-8 33.4-18c0-9.8-15-17.8-33.4-17.8s-33.4 8-33.4 17.9" fill="#BBB8F6"/></g><path fill-rule="evenodd" clip-rule="evenodd" d="M224.1 305.1l7.3 45c.7 10.6 14 18.8 30 18.8 15.8 0 29.2-8.2 29.9-18.7l7.3-45H224z" fill="#B3B8F6"/><path fill-rule="evenodd" clip-rule="evenodd" d="M224.1 296.7v11.6c0 12.5 16.7 22.6 37.2 22.6 20.6 0 37.3-10.1 37.3-22.6v-11.6H224z" fill="#9796F7"/><path fill-rule="evenodd" clip-rule="evenodd" d="M298.6 296.7c0 12.4-16.7 22.5-37.3 22.5-20.5 0-37.2-10-37.2-22.5 0-12.4 16.7-22.5 37.2-22.5 20.6 0 37.3 10 37.3 22.5" fill="#D9DFF6"/><path fill-rule="evenodd" clip-rule="evenodd" d="M261.3 315.4c-20.2 0-34.4-9.9-34.4-18.7 0-8.8 14.2-18.7 34.4-18.7 20.3 0 34.5 9.9 34.5 18.7 0 8.8-14.2 18.7-34.5 18.7" fill="#fff"/><path fill-rule="evenodd" clip-rule="evenodd" d="M261.3 315.4c-20.2 0-34.4-9.9-34.4-18.7 0-8.8 14.2-18.7 34.4-18.7 20.3 0 34.5 9.9 34.5 18.7 0 8.8-14.2 18.7-34.5 18.7" fill="#B3B8F6"/><path fill-rule="evenodd" clip-rule="evenodd" d="M261.3 290.8c-15.4 0-27.3 5.7-32 12.3 4.7 6.6 16.6 12.3 32 12.3 15.5 0 27.3-5.7 32.1-12.3-4.8-6.6-16.6-12.3-32-12.3" fill="#8285DF"/><path fill-rule="evenodd" clip-rule="evenodd" d="M246.8 261c.4-4 1-8 2.8-11.5 1.8-3.5 5-6.5 9-7 4.1-.5 8.2 2.1 10.7 5.6 2.4 3.4 3.5 7.6 4.4 11.8 2.4 10.8 3.5 21.8 3.5 32.9 0 4-.3 8.2-2.5 11.6-2.6 4.1-7.8 6-12.7 6-3.5.1-11.5-.5-14-3.2-2.6-2.7-1.9-10-2-13.5-.7-11-.4-21.9.8-32.8" fill="#603EFF"/><path fill-rule="evenodd" clip-rule="evenodd" d="M236.3 273.2a25 25 0 01-1.8-17.7c.5-1.7 1.7-3.8 3.5-3.7 1.6 0 2.6 1.7 2.7 3.3.1 1.6-.4 3.2-.6 4.8-.4 4 1.7 8.2 5.2 10.2 1.7 1 3.8 1.5 5.5 2.8 1.9 1.5 3 4.1 2.6 6.6-1.8 12.3-14.7-1.5-17.1-6.3M282 278.6c3.7-3.5 6.2-8.3 6.9-13.3.2-2 .2-4.1-1.3-5.4-1.6-1.4-4.2-1-5.7.6a10 10 0 00-2.5 5.8c-.3 2-.4 4.3-1.1 6.3-.7 2-2.2 3.9-4.3 4.3-2.3.4-5-1-7 .4-3.7 2.8-.1 7 3.1 7 4.1.1 9-3 12-5.7" fill="#603EFF"/><path fill-rule="evenodd" clip-rule="evenodd" d="M112.8 288c0 6.6 9.8 12 22 12 12 0 21.9-5.4 21.9-12s-9.8-12-22-12c-12 0-22 5.4-22 12" fill="#BBB8F6"/><path fill-rule="evenodd" clip-rule="evenodd" d="M140.7 275c0 6.6 9.9 12 22 12s22-5.4 22-12-9.9-12-22-12-22 5.4-22 12" fill="#BBB8F6"/><mask id="b" maskUnits="userSpaceOnUse" x="160" y="283" width="46" height="24"><path fill-rule="evenodd" clip-rule="evenodd" d="M160.7 283.1h44.4V307h-44.4v-23.9z" fill="#fff"/></mask><g mask="url(#b)"><path fill-rule="evenodd" clip-rule="evenodd" d="M160.7 295c0 6.7 10 12 22.2 12 12.3 0 22.2-5.3 22.2-12 0-6.5-10-11.9-22.2-11.9s-22.2 5.4-22.2 12" fill="#BBB8F6"/></g><path fill-rule="evenodd" clip-rule="evenodd" d="M181.6 268v4.6c0 6.3-9.1 11.4-20.4 11.4-11.3 0-20.5-5-20.5-11.4V268h41z" fill="#9796F7"/><path fill-rule="evenodd" clip-rule="evenodd" d="M177 280c1.6-1 2.8-2.2 3.6-3.5V269H177v11zm-26.3 2.4l2 .6v-11.3h-2v10.7zm21 0l-2.1.6v-11.3h2v10.7z" fill="#6782EA"/><path fill-rule="evenodd" clip-rule="evenodd" d="M140.7 268c0 6 9.2 11 20.5 11s20.4-5 20.4-11-9.1-11-20.4-11c-11.3 0-20.5 5-20.5 11" fill="#D9DFF6"/><path fill-rule="evenodd" clip-rule="evenodd" d="M181.6 261v4.6c0 6.3-9.1 11.4-20.4 11.4-11.3 0-20.5-5-20.5-11.4V261h41z" fill="#9796F7"/><path fill-rule="evenodd" clip-rule="evenodd" d="M177 273c1.6-1 2.8-2.2 3.6-3.5V262H177v11zm-26.3 2.4l2 .6v-11.3h-2v10.7zm21 0l-2.1.6v-11.3h2v10.7z" fill="#6782EA"/><path fill-rule="evenodd" clip-rule="evenodd" d="M140.7 261c0 6 9.2 11 20.5 11s20.4-5 20.4-11-9.1-11-20.4-11c-11.3 0-20.5 5-20.5 11" fill="#D9DFF6"/><path fill-rule="evenodd" clip-rule="evenodd" d="M181.6 254v4.6c0 6.3-9.1 11.4-20.4 11.4-11.3 0-20.5-5-20.5-11.4V254h41z" fill="#9796F7"/><path fill-rule="evenodd" clip-rule="evenodd" d="M177 266c1.6-1 2.8-2.2 3.6-3.5V255H177v11zm-26.3 2.4l2 .6v-11.3h-2v10.7zm21 0l-2.1.6v-11.3h2v10.7z" fill="#6782EA"/><path fill-rule="evenodd" clip-rule="evenodd" d="M140.7 254c0 6 9.2 11 20.5 11s20.4-5 20.4-11-9.1-11-20.4-11c-11.3 0-20.5 5-20.5 11" fill="#D9DFF6"/><path fill-rule="evenodd" clip-rule="evenodd" d="M181.6 247v4.6c0 6.3-9.1 11.4-20.4 11.4-11.3 0-20.5-5-20.5-11.4V247h41z" fill="#9796F7"/><path fill-rule="evenodd" clip-rule="evenodd" d="M177 259c1.6-1 2.8-2.2 3.6-3.5V248H177v11zm-26.3 2.4l2 .6v-11.3h-2v10.7zm21 0l-2.1.6v-11.3h2v10.7z" fill="#6782EA"/><path fill-rule="evenodd" clip-rule="evenodd" d="M140.7 248c0 6 9.2 11 20.5 11s20.4-5 20.4-11-9.1-11-20.4-11c-11.3 0-20.5 5-20.5 11" fill="#D9DFF6"/><path fill-rule="evenodd" clip-rule="evenodd" d="M181.6 240v4.6c0 6.3-9.1 11.4-20.4 11.4-11.3 0-20.5-5-20.5-11.4V240h41z" fill="#9796F7"/><path fill-rule="evenodd" clip-rule="evenodd" d="M177 252c1.6-1 2.8-2.2 3.6-3.5V241H177v11zm-26.3 2.4l2 .6v-11.3h-2v10.7zm21 0l-2.1.6v-11.3h2v10.7z" fill="#6782EA"/><mask id="c" maskUnits="userSpaceOnUse" x="140" y="228" width="42" height="24"><path fill-rule="evenodd" clip-rule="evenodd" d="M140.9 229h40.4v22.5h-40.4v-22.6z" fill="#fff"/></mask><g mask="url(#c)"><path fill-rule="evenodd" clip-rule="evenodd" d="M140.9 240.2c0 6.2 9 11.3 20.2 11.3 11.1 0 20.2-5 20.2-11.3 0-6.2-9-11.3-20.2-11.3s-20.2 5-20.2 11.3" fill="#D9DFF6"/></g><path fill-rule="evenodd" clip-rule="evenodd" d="M145.7 240.5c0 4.7 7 8.5 15.5 8.5s15.5-3.8 15.5-8.5-7-8.5-15.5-8.5c-8.6 0-15.5 3.8-15.5 8.5" fill="#B4B9F6"/><path fill-rule="evenodd" clip-rule="evenodd" d="M161.2 233.2c8.2 0 14.8 3.4 15.4 7.8v-.6c0-4.6-6.9-8.4-15.4-8.4-8.6 0-15.5 3.8-15.5 8.4v.6c.6-4.4 7.3-7.8 15.5-7.8" fill="#9796F7"/><path fill-rule="evenodd" clip-rule="evenodd" d="M162.7 239.8c-.4-.5-.4-1 .2-1.3.7-.4 1.5-.4 2.3 0l-2.5 1.3zm-2 3.7a3 3 0 01-2.5 0l2.6-1.4c.4.6.5 1-.1 1.4zm8-5.7l1.5-.9-1.2-.6-1.4.8c-2.6-1.2-5.9-1.5-8.1-.3-2.9 1.5-1 3.2.5 4.5L157 243c-.4-.5-.3-1 .3-1.4l-3.3-1.8c-2.2 1.4-1.7 3 .6 4.5l-1.5.8 1.1.7 1.5-.8c3 1.5 6.3 1.4 8.2.3 2.8-1.5.9-3.2-.5-4.5l2.8-1.6c.3.4.2.8-.4 1.2l3.3 1.8c2.2-1.3 1.8-2.9-.5-4.3z" fill="#9796F7"/><path fill-rule="evenodd" clip-rule="evenodd" d="M162.7 238.8c-.4-.5-.4-1 .2-1.3.7-.4 1.5-.4 2.3 0l-2.5 1.3zm-2 3.7a3 3 0 01-2.5 0l2.6-1.4c.4.6.5 1-.1 1.4zm8-5.7l1.5-.9-1.2-.6-1.4.8c-2.6-1.2-5.9-1.5-8.1-.3-2.9 1.5-1 3.2.5 4.5L157 242c-.4-.5-.3-1 .3-1.4l-3.3-1.8c-2.2 1.4-1.7 3 .6 4.5l-1.5.8 1.1.7 1.5-.8c3 1.5 6.3 1.4 8.2.3 2.8-1.5.9-3.2-.5-4.5l2.8-1.6c.3.4.2.8-.4 1.2l3.3 1.8c2.2-1.3 1.8-2.9-.5-4.3z" fill="#D9DFF6"/><path fill-rule="evenodd" clip-rule="evenodd" d="M203.6 288v4.6c0 6.3-9.2 11.4-20.5 11.4s-20.4-5-20.4-11.4V288h40.9z" fill="#9796F7"/><path fill-rule="evenodd" clip-rule="evenodd" d="M199 300c1.6-1 2.8-2.2 3.6-3.5V289H199v11zm-26.3 2.4l2 .6v-11.3h-2v10.7zm21 0l-2.1.6v-11.3h2v10.7z" fill="#6782EA"/><path fill-rule="evenodd" clip-rule="evenodd" d="M162.7 288c0 6 9.1 11 20.4 11 11.3 0 20.5-5 20.5-11s-9.2-11-20.5-11-20.4 5-20.4 11" fill="#D9DFF6"/><path fill-rule="evenodd" clip-rule="evenodd" d="M203.6 281v4.6c0 6.3-9.2 11.4-20.5 11.4s-20.4-5-20.4-11.4V281h40.9z" fill="#9796F7"/><path fill-rule="evenodd" clip-rule="evenodd" d="M199 293c1.6-1 2.8-2.2 3.6-3.5V282H199v11zm-26.3 2.4l2 .6v-11.3h-2v10.7zm21 0l-2.1.6v-11.3h2v10.7z" fill="#6782EA"/><path fill-rule="evenodd" clip-rule="evenodd" d="M162.7 281c0 6 9.1 11 20.4 11 11.3 0 20.5-5 20.5-11s-9.2-11-20.5-11-20.4 5-20.4 11" fill="#D9DFF6"/><path fill-rule="evenodd" clip-rule="evenodd" d="M167.7 281.5c0 4.7 6.9 8.5 15.4 8.5 8.6 0 15.5-3.8 15.5-8.5s-7-8.5-15.5-8.5-15.4 3.8-15.4 8.5" fill="#B4B9F6"/><path fill-rule="evenodd" clip-rule="evenodd" d="M183.1 274.2c8.2 0 14.9 3.4 15.5 7.8v-.6c0-4.6-7-8.4-15.5-8.4s-15.4 3.8-15.4 8.4v.6c.6-4.4 7.3-7.8 15.4-7.8" fill="#9796F7"/><path fill-rule="evenodd" clip-rule="evenodd" d="M183.6 280.8c-.3-.5-.4-1 .2-1.3.7-.4 1.6-.4 2.3 0l-2.5 1.3zm-2 3.7a3 3 0 01-2.4 0l2.5-1.4c.5.6.6 1 0 1.4zm8.1-5.7l1.5-.9-1.2-.6-1.5.8c-2.6-1.2-5.8-1.5-8-.3-3 1.5-1 3.2.4 4.5l-2.8 1.6c-.5-.5-.4-1 .3-1.4l-3.3-1.8c-2.2 1.4-1.7 3 .5 4.5l-1.4.8 1.1.7 1.5-.8c3 1.5 6.2 1.4 8.2.3 2.8-1.5.8-3.2-.6-4.5l2.8-1.6c.3.4.3.8-.3 1.2l3.3 1.8c2.1-1.3 1.8-2.9-.5-4.3z" fill="#9796F7"/><path fill-rule="evenodd" clip-rule="evenodd" d="M183.6 279.8c-.3-.5-.4-1 .2-1.3.7-.4 1.6-.4 2.3 0l-2.5 1.3zm-2 3.7a3 3 0 01-2.4 0l2.5-1.4c.5.6.6 1 0 1.4zm8.1-5.7l1.5-.9-1.2-.6-1.5.8c-2.6-1.2-5.8-1.5-8-.3-3 1.5-1 3.2.4 4.5l-2.8 1.6c-.5-.5-.4-1 .3-1.4l-3.3-1.8c-2.2 1.4-1.7 3 .5 4.5l-1.4.8 1.1.7 1.5-.8c3 1.5 6.2 1.4 8.2.3 2.8-1.5.8-3.2-.6-4.5l2.8-1.6c.3.4.3.8-.3 1.2l3.3 1.8c2.1-1.3 1.8-2.9-.5-4.3z" fill="#D9DFF6"/><path fill-rule="evenodd" clip-rule="evenodd" d="M155.7 281v4.6c0 6.3-9.2 11.4-20.5 11.4s-20.4-5-20.4-11.4V281h40.9z" fill="#9796F7"/><path fill-rule="evenodd" clip-rule="evenodd" d="M151.1 292c1.6-1 2.8-2.2 3.6-3.5V281H151v11zm-26.3 2.4l2 .6v-11.3h-2v10.7zm20.9 0l-2 .6v-11.3h2v10.7z" fill="#6782EA"/><path fill-rule="evenodd" clip-rule="evenodd" d="M114.8 281c0 6 9.1 11 20.4 11 11.3 0 20.5-5 20.5-11s-9.2-11-20.5-11-20.4 5-20.4 11" fill="#D9DFF6"/><path fill-rule="evenodd" clip-rule="evenodd" d="M155.7 274v4.6c0 6.3-9.2 11.4-20.5 11.4s-20.4-5-20.4-11.4V274h40.9z" fill="#9796F7"/><path fill-rule="evenodd" clip-rule="evenodd" d="M151.1 285c1.6-1 2.8-2.2 3.6-3.5V274H151v11zm-26.3 2.4l2 .6v-11.3h-2v10.7zm20.9 0l-2 .6v-11.3h2v10.7z" fill="#6782EA"/><path fill-rule="evenodd" clip-rule="evenodd" d="M114.8 274c0 6 9.1 11 20.4 11 11.3 0 20.5-5 20.5-11s-9.2-11-20.5-11-20.4 5-20.4 11" fill="#D9DFF6"/><path fill-rule="evenodd" clip-rule="evenodd" d="M119.8 273.5c0 4.7 6.9 8.5 15.4 8.5 8.6 0 15.5-3.8 15.5-8.5s-7-8.5-15.5-8.5-15.4 3.8-15.4 8.5" fill="#B4B9F6"/><path fill-rule="evenodd" clip-rule="evenodd" d="M135.2 266.2c8.2 0 14.9 3.4 15.4 7.8l.1-.6c0-4.6-7-8.4-15.5-8.4s-15.4 3.8-15.4 8.4v.6c.6-4.4 7.3-7.8 15.4-7.8" fill="#9796F7"/><path fill-rule="evenodd" clip-rule="evenodd" d="M135.7 272.8c-.3-.5-.4-1 .2-1.3.7-.4 1.6-.4 2.3 0l-2.5 1.3zm-2 3.7a3 3 0 01-2.4 0l2.5-1.4c.5.6.6 1 0 1.4zm8-5.7l1.6-.9-1.2-.6-1.5.8c-2.6-1.2-5.8-1.5-8-.3-3 1.5-1 3.2.4 4.5l-2.8 1.6c-.5-.5-.4-1 .3-1.4l-3.3-1.8c-2.2 1.4-1.7 3 .5 4.5l-1.5.8 1.2.7 1.5-.8c3 1.5 6.2 1.4 8.2.3 2.8-1.5.8-3.2-.6-4.5l2.8-1.6c.3.4.3.8-.3 1.2l3.3 1.8c2.1-1.3 1.8-2.9-.5-4.3z" fill="#9796F7"/><path fill-rule="evenodd" clip-rule="evenodd" d="M135.7 271.8c-.3-.5-.4-1 .2-1.3.7-.4 1.6-.4 2.3 0l-2.5 1.3zm-2 3.7a3 3 0 01-2.4 0l2.5-1.4c.5.6.6 1 0 1.4zm8-5.7l1.6-.9-1.2-.6-1.5.8c-2.6-1.2-5.8-1.5-8-.3-3 1.5-1 3.2.4 4.5l-2.8 1.6c-.5-.5-.4-1 .3-1.4l-3.3-1.8c-2.2 1.4-1.7 3 .5 4.5l-1.5.8 1.2.7 1.5-.8c3 1.5 6.2 1.4 8.2.3 2.8-1.5.8-3.2-.6-4.5l2.8-1.6c.3.4.3.8-.3 1.2l3.3 1.8c2.1-1.3 1.8-2.9-.5-4.3z" fill="#D9DFF6"/></svg>