<svg width="555" height="499" fill="none" xmlns="http://www.w3.org/2000/svg"><mask id="a" maskUnits="userSpaceOnUse" x="0" y="0" width="555" height="457"><path fill-rule="evenodd" clip-rule="evenodd" d="M0 18.8L539.7 0 555 437.7 15.3 456.6 0 18.8z" fill="#fff"/></mask><g mask="url(#a)"><path fill-rule="evenodd" clip-rule="evenodd" d="M548.7 258.1c4.5 129.9-183.6 186.3-308 190.6-124.5 4.4-228.2-71-232.7-200.9C3.5 118 152.3 13.5 276.8 9.2c124.4-4.4 267.3 119 271.9 249" fill="#F0EFFF"/></g><mask id="b" maskUnits="userSpaceOnUse" x="114" y="329" width="292" height="170"><path fill-rule="evenodd" clip-rule="evenodd" d="M114.4 329.8h290.7v168.5H114.4V329.8z" fill="#fff"/></mask><g mask="url(#b)"><path fill-rule="evenodd" clip-rule="evenodd" d="M201.7 331c2.8-1.6 7.4-1.6 10.2 0L403 442c2.8 1.6 2.8 4.2 0 5.9L317.9 497a11.2 11.2 0 01-10.2 0L116.5 386c-2.8-1.6-2.8-4.3 0-5.9l85.2-49.2z" fill="#BBB8F6"/></g><path fill-rule="evenodd" clip-rule="evenodd" d="M403.9 438l-5.7-3.6v1.3L209.6 326.4a11 11 0 00-10 0l-80.4 46.5v-.7l-5.7 3.2v2.5c0 1 .7 2 2 2.8l192.3 111.4a11 11 0 009.9 0l84.1-48.6c2-1.2 2-2.1 2-3.4v-2" fill="#9796F7"/><path fill-rule="evenodd" clip-rule="evenodd" d="M199.7 324a11 11 0 019.9 0l192.2 111.3c2.8 1.6 2.8 4.2 0 5.8l-84.1 48.6a11 11 0 01-10 0L115.6 378.2c-2.7-1.5-2.7-4.1 0-5.7l84.2-48.6z" fill="#D9DFF6"/><path fill-rule="evenodd" clip-rule="evenodd" d="M308.5 474.7c-.7.5-.7 1.1 0 1.5l6.8 4c.7.4 1.9.4 2.6 0l6.8-4c.7-.3.7-1 0-1.4l-6.8-4c-.7-.4-1.9-.4-2.6 0l-6.8 4zm-12.6-7.3c-.7.5-.7 1.1 0 1.5l8.8 5.1c.7.4 1.9.4 2.6 0l6.8-3.9c.7-.4.7-1 0-1.5l-8.8-5c-.7-.5-1.9-.5-2.6 0l-6.8 3.8zm-12.6-7.3c-.7.4-.7 1.1 0 1.5l8.8 5.1c.7.4 1.9.4 2.6 0l6.8-3.9c.7-.4.7-1 0-1.5l-8.8-5c-.7-.5-1.9-.5-2.6 0l-6.8 3.8zm-12.6-7.3c-.7.4-.7 1.1 0 1.5l8.8 5.1c.7.4 1.8.4 2.6 0l6.8-3.9c.7-.4.7-1 0-1.5l-8.8-5c-.8-.5-2-.5-2.6 0l-6.8 3.8zm-12.6-7.3c-.7.4-.7 1 0 1.5l8.8 5.1c.7.4 1.8.4 2.6 0l6.7-4c.7-.3.7-1 0-1.4l-8.8-5.1c-.7-.4-1.8-.4-2.5 0l-6.8 4zM195 409c-.7.4-.7 1 0 1.4l59.3 34.4c.7.4 1.8.4 2.5 0l6.8-4c.7-.3.7-1 0-1.4L204.3 405c-.7-.4-1.8-.4-2.5 0l-6.8 4zm-12.6-7.4c-.7.4-.7 1.1 0 1.5l8.8 5.1c.7.4 1.8.4 2.5 0l6.8-3.9c.7-.4.7-1 0-1.5l-8.8-5c-.7-.5-1.8-.5-2.5 0l-6.8 3.8zm-12.6-7.3c-.7.4-.8 1.1 0 1.5l8.8 5.1c.7.4 1.8.4 2.5 0l6.8-3.9c.7-.4.7-1 0-1.5l-8.8-5c-.7-.5-1.8-.5-2.5 0l-6.8 3.8zM157 387c-.7.5-.7 1.1 0 1.5l8.8 5.1c.7.4 1.9.4 2.6 0l6.8-3.9c.7-.4.7-1 0-1.5l-8.8-5c-.7-.5-1.9-.5-2.6 0l-6.8 3.8zm-12.6-7.3c-.7.5-.7 1.1 0 1.5l8.8 5.1c.7.4 1.9.4 2.6 0l6.8-3.9c.7-.4.7-1 0-1.5l-8.8-5c-.7-.5-1.9-.5-2.6 0l-6.8 3.8zm170.4 86.8c-.7.4-.7 1 0 1.4l8.8 5.1c.7.5 1.9.5 2.6 0l6.8-3.9c.7-.4.7-1 0-1.4l-8.8-5.2c-.7-.4-1.9-.4-2.6 0l-6.8 4zm-12.6-7.3c-.7.4-.7 1 0 1.4l8.8 5.1c.7.5 1.9.4 2.6 0l6.8-3.9c.7-.4.7-1 0-1.5l-8.8-5c-.7-.5-1.9-.5-2.6 0l-6.8 3.9zm-12.6-7.4c-.7.4-.7 1.1 0 1.5l8.8 5.1c.7.4 1.9.4 2.6 0l6.8-3.9c.7-.4.7-1 0-1.5l-8.8-5c-.7-.5-1.9-.5-2.6 0l-6.8 3.8zm-12.6-7.3c-.7.4-.7 1.1 0 1.5l8.8 5.1c.7.4 1.9.4 2.6 0l6.8-3.9c.7-.4.7-1 0-1.5l-8.8-5c-.7-.5-1.9-.5-2.6 0l-6.8 3.8zm-12.6-7.3c-.7.4-.7 1 0 1.5l8.8 5.1c.7.4 1.8.4 2.5 0l6.8-3.9c.7-.4.8-1 0-1.5l-8.8-5c-.7-.5-1.8-.5-2.5 0l-6.8 3.8zm-12.6-7.3c-.7.4-.7 1 0 1.5l8.8 5.1c.7.4 1.8.4 2.5 0l6.8-3.9c.7-.4.7-1 0-1.5l-8.8-5c-.7-.5-1.8-.5-2.5 0l-6.8 3.8zm-12.7-7.3c-.7.4-.7 1 0 1.5l8.8 5c.7.5 1.9.5 2.6 0l6.8-3.8c.7-.4.7-1.1 0-1.5l-8.8-5.1c-.7-.4-1.9-.4-2.6 0l-6.8 3.9zm-12.6-7.3c-.7.4-.7 1 0 1.5l8.8 5c.7.5 1.9.5 2.6 0l6.8-3.8c.7-.4.7-1.1 0-1.5l-8.8-5.1c-.7-.4-1.9-.4-2.6 0l-6.8 3.9zm-12.6-7.3c-.7.4-.7 1 0 1.5l8.8 5c.7.5 1.9.5 2.6 0l6.8-3.8c.7-.5.7-1.1 0-1.5l-8.8-5.1c-.7-.4-1.9-.4-2.6 0l-6.8 3.9zm-12.6-7.3c-.7.4-.7 1 0 1.4l8.8 5.2c.7.4 1.9.4 2.6 0l6.8-4c.7-.4.7-1 0-1.4l-8.8-5.1c-.7-.5-1.9-.5-2.6 0l-6.8 3.9zM183 390c-.7.4-.7 1 0 1.5l14.5 8.3c.7.4 1.8.4 2.6 0l6.7-3.9c.8-.4.8-1 0-1.5l-14.4-8.3c-.7-.4-1.8-.4-2.6 0L183 390zm-9.1-5.3c-.7.4-.8 1 0 1.4l5.2 3c.7.5 1.8.5 2.5 0l6.8-3.8c.7-.5.7-1.1 0-1.5l-5.2-3c-.7-.5-1.8-.5-2.6 0l-6.7 3.9zm-9.3-5.4c-.7.4-.7 1.1 0 1.5l5 2.9c.7.4 1.9.4 2.6 0l6.8-4c.7-.3.7-1 0-1.4l-5-2.9c-.7-.4-1.9-.4-2.6 0l-6.8 4zm-13.9-8c-.7.4-.7 1 0 1.4l10 5.9c.8.4 2 .4 2.6 0l6.8-4c.7-.3.8-1 0-1.4l-10-5.9c-.7-.4-1.9-.4-2.6 0l-6.8 4zm-20.6 0c-.7.4-.7 1.1 0 1.5l6.7 3.9c.7.4 1.8.4 2.5 0l17.2-10c.7-.3.8-1 0-1.4l-6.6-3.9c-.7-.4-1.9-.4-2.6 0l-17.2 10zm187 84.2c-.8.4-.8 1 0 1.5l19.2 11.1c.7.4 1.8.4 2.5 0l6.8-3.9c.8-.4.8-1 0-1.5l-19.2-11.1c-.7-.4-1.9-.4-2.6 0l-6.8 3.9zm-12.9-7.4c-.7.4-.7 1 0 1.5l8.8 5c.7.5 1.9.5 2.6 0l6.8-3.8c.7-.5.7-1.1 0-1.5l-8.8-5.1c-.7-.4-1.9-.4-2.6 0l-6.8 3.9zm-12.6-7.3c-.7.4-.7 1 0 1.5l8.8 5c.7.5 1.9.5 2.6 0l6.8-3.9c.7-.4.7-1 0-1.4l-8.8-5.1c-.7-.5-1.9-.4-2.6 0l-6.8 3.9zm-12.6-7.3c-.7.4-.7 1 0 1.4l8.8 5.1c.7.5 1.9.5 2.6 0l6.8-3.9c.7-.4.7-1 0-1.5l-8.8-5c-.7-.5-1.9-.5-2.6 0l-6.8 3.9zm-12.6-7.4c-.7.5-.7 1.1 0 1.5l8.8 5.1c.7.5 1.9.4 2.6 0l6.8-3.9c.7-.4.7-1 0-1.5l-8.8-5c-.7-.5-1.9-.5-2.6 0l-6.8 3.8zm-12.6-7.3c-.7.4-.8 1 0 1.5l8.8 5.1c.7.4 1.8.4 2.5 0l6.8-3.9c.7-.4.7-1 0-1.5l-8.8-5c-.7-.5-1.8-.5-2.6 0l-6.7 3.8zm-12.7-7.3c-.7.4-.7 1 0 1.5l8.9 5.1c.7.4 1.8.4 2.5 0l6.8-3.9c.7-.4.7-1 0-1.5l-8.8-5.1c-.7-.4-1.8-.4-2.6 0l-6.8 4zm-12.6-7.3c-.7.4-.7 1 0 1.5l8.8 5c.7.5 1.9.5 2.6 0l6.8-3.8c.7-.4.7-1 0-1.5l-8.8-5.1c-.7-.4-1.9-.4-2.6 0l-6.8 3.9zm-12.6-7.3c-.7.4-.7 1 0 1.5l8.8 5c.7.5 1.9.5 2.6 0l6.8-3.8c.7-.4.7-1.1 0-1.5l-8.8-5.1c-.7-.4-1.9-.4-2.6 0l-6.8 3.9zm-12.6-7.3c-.7.4-.7 1 0 1.5l8.8 5c.7.5 1.9.5 2.6 0l6.8-3.8c.7-.4.7-1.1 0-1.5l-8.8-5.1c-.7-.4-1.9-.4-2.6 0l-6.8 3.9zm-12.6-7.3c-.7.4-.7 1 0 1.5l8.8 5c.7.5 1.9.5 2.6 0l6.8-3.8c.7-.5.7-1.1 0-1.5l-8.8-5.1c-.7-.4-1.9-.4-2.6 0l-6.8 3.9zm-15.5-9c-.8.4-.8 1 0 1.5l11.6 6.7c.7.4 1.8.4 2.5 0l6.8-4c.7-.3.7-1 0-1.4l-11.6-6.7c-.7-.5-1.8-.5-2.6 0l-6.7 3.9zm-13.7-7.9c-.8.4-.8 1 0 1.5l9.5 5.5c.7.4 1.8.4 2.5 0l6.8-4c.7-.3.7-1 0-1.4l-9.5-5.5c-.7-.4-1.8-.4-2.6 0l-6.7 3.9zm174.2 89c-.7.3-.7 1 0 1.4l11 6.4c.7.4 1.8.4 2.5 0l6.8-4c.7-.4.7-1 0-1.4l-10.9-6.4c-.7-.4-1.9-.4-2.6 0l-6.8 4zm-12.6-7.4c-.7.4-.7 1 0 1.5l8.8 5.1c.7.4 1.9.4 2.6 0l6.8-4c.7-.3.7-1 0-1.4l-8.8-5c-.7-.5-1.9-.5-2.6 0l-6.8 3.8zm-12.6-7.3c-.7.4-.7 1 0 1.5l8.8 5c.7.5 1.9.5 2.6 0l6.8-3.8c.7-.4.7-1 0-1.5l-8.8-5.1c-.7-.4-1.9-.4-2.6 0l-6.8 3.9zm-12.6-7.3c-.7.4-.7 1 0 1.5l8.8 5c.7.5 1.9.5 2.6 0l6.8-3.8c.7-.4.7-1.1 0-1.5l-8.8-5.1c-.7-.4-1.9-.4-2.6 0l-6.8 3.9zm-12.6-7.3c-.7.4-.7 1 0 1.5l8.8 5c.7.5 1.8.5 2.6 0l6.7-3.8c.7-.4.8-1.1 0-1.5l-8.8-5.1c-.7-.4-1.8-.4-2.5 0l-6.8 3.9zm-12.6-7.3c-.7.4-.7 1 0 1.5l8.8 5c.7.5 1.8.5 2.6 0l6.7-3.8c.7-.4.8-1.1 0-1.5l-8.8-5.1c-.7-.4-1.8-.4-2.5 0l-6.8 3.9zm-12.7-7.3c-.7.4-.7 1 0 1.4l8.8 5.1c.7.5 1.9.4 2.6 0l6.8-3.9c.7-.4.7-1 0-1.5l-8.8-5c-.7-.5-1.9-.5-2.6 0l-6.8 3.9zm-12.6-7.4c-.7.5-.7 1.1 0 1.5l8.8 5.1c.7.4 1.9.4 2.6 0l6.8-3.9c.7-.4.7-1 0-1.5l-8.8-5c-.7-.5-1.9-.5-2.6 0l-6.8 3.8zm-12.6-7.3c-.7.4-.7 1.1 0 1.5l8.8 5.1c.7.4 1.9.4 2.6 0l6.8-3.9c.7-.4.7-1 0-1.5l-8.8-5c-.7-.5-1.9-.5-2.6 0l-6.8 3.8zm-12.6-7.3c-.7.4-.7 1.1 0 1.5l8.8 5.1c.7.4 1.9.4 2.6 0l6.8-3.9c.7-.4.7-1 0-1.5l-8.8-5c-.7-.5-1.9-.5-2.6 0l-6.8 3.8zm-12.6-7.3c-.7.4-.7 1 0 1.5l8.8 5.1c.7.4 1.8.4 2.6 0l6.8-4c.7-.3.7-1 0-1.4l-8.9-5c-.7-.5-1.8-.5-2.5 0l-6.8 3.8zm128.2 62.3c-.7.4-.7 1 0 1.5l19.3 11.2c.7.4 1.8.4 2.5 0l6.8-4c.7-.4.8-1 0-1.4l-19.2-11.2c-.7-.4-1.9-.4-2.6 0l-6.8 4zm-12.8-7.4c-.7.4-.7 1 0 1.5l8.8 5c.7.5 1.9.5 2.6 0l6.8-3.8c.7-.4.7-1.1 0-1.5l-8.8-5.1c-.7-.4-1.9-.4-2.6 0L325 436zm-12.6-7.3c-.7.4-.7 1 0 1.5l8.8 5c.7.5 1.9.5 2.6 0l6.8-3.8c.7-.4.7-1.1 0-1.5l-8.8-5.1c-.7-.4-1.9-.4-2.6 0l-6.8 3.9zm-12.6-7.3c-.7.4-.7 1 0 1.5l8.8 5c.7.5 1.9.5 2.6 0l6.8-3.8c.7-.4.7-1.1 0-1.5l-8.8-5.1c-.7-.4-1.9-.4-2.6 0l-6.8 3.9zm-12.6-7.3c-.7.4-.7 1 0 1.5l8.8 5c.7.5 1.9.5 2.6 0l6.8-3.8c.7-.5.7-1.1 0-1.5l-8.8-5.1c-.7-.4-1.9-.4-2.6 0l-6.8 3.9zm-12.6-7.3c-.7.4-.8 1 0 1.4l8.8 5.1c.7.4 1.8.4 2.5 0l6.8-3.9c.7-.4.7-1 0-1.5l-8.8-5c-.7-.5-1.8-.5-2.6 0l-6.7 3.9zm-12.7-7.4c-.7.4-.7 1.1 0 1.5l8.9 5.1c.7.4 1.8.4 2.5 0l6.8-3.9c.7-.4.7-1 0-1.5l-8.8-5c-.7-.5-1.9-.5-2.6 0l-6.8 3.8zm-12.6-7.3c-.7.4-.7 1.1 0 1.5l8.8 5.1c.7.4 1.9.4 2.6 0l6.8-3.9c.7-.4.7-1 0-1.5l-8.8-5c-.7-.5-1.9-.5-2.6 0l-6.8 3.8zm-12.6-7.3c-.7.4-.7 1.1 0 1.5l8.8 5.1c.7.4 1.9.4 2.6 0l6.8-3.9c.7-.4.7-1 0-1.5l-8.8-5c-.7-.5-1.9-.5-2.6 0l-6.8 3.8zm-12.6-7.3c-.7.4-.7 1 0 1.5l8.8 5.1c.7.4 1.9.4 2.6 0l6.8-4c.7-.3.7-1 0-1.4l-8.8-5.1c-.7-.4-1.9-.4-2.6 0l-6.8 4zm-35.7-8.7c-.8.4-.8 1 0 1.5l17.4 10.1c.7.4 1.8.4 2.6 0l6.7-4c.7-.3.8-1 0-1.4l-7.3-4.2 9.1-5.3c.7-.4.7-1 0-1.5l-8.8-5c-.7-.5-1.8-.5-2.6 0l-10.3 5.9-2.5 1.4-4.3 2.5zm23.1 1.4c-.7.4-.7 1 0 1.5l8.8 5c.7.5 1.9.5 2.6 0l6.8-3.8c.7-.4.7-1 0-1.5l-8.8-5.1c-.7-.4-1.9-.4-2.6 0l-6.8 4zm-39.7-10.9c-.7.4-.7 1.1 0 1.5l9.5 5.5c.7.4 1.9.4 2.6 0l6.8-3.9c.7-.4.7-1 0-1.5l-9.5-5.5c-.8-.4-1.9-.4-2.6 0l-6.8 4zm-20.8 0c-.7.3-.7 1 0 1.4l6.6 3.9c.7.4 1.9.4 2.6 0l17.1-9.9c.7-.4.8-1 0-1.5l-6.6-3.8c-.7-.5-1.9-.5-2.6 0l-17.1 9.8zm33.9-4.4c-.7.4-.7 1 0 1.4l9.5 5.6c.7.4 1.9.4 2.6 0l6.8-4c.7-.4.7-1 0-1.4l-9.5-5.6c-.8-.4-2-.4-2.6 0l-6.8 4zm-13.1-7.7c-.7.5-.7 1.1 0 1.5l9.5 5.5c.7.5 1.8.5 2.5 0l6.8-3.9c.7-.4.7-1 0-1.4l-9.5-5.6c-.7-.4-1.8-.4-2.5 0l-6.8 4zm182.8 93.9c-.7.4-.7 1 0 1.5l8.8 5c.7.5 1.8.5 2.6 0l6.7-3.8c.8-.4.8-1.1 0-1.5l-8.8-5.1c-.7-.4-1.8-.4-2.5 0l-6.8 3.9zm-12.6-7.3c-.7.4-.7 1 0 1.5l8.8 5c.7.5 1.8.5 2.5 0l6.8-3.8c.7-.5.8-1.1 0-1.5l-8.8-5.1c-.7-.4-1.8-.4-2.5 0l-6.8 3.9zm-12.6-7.3c-.8.4-.8 1 0 1.4l8.8 5.2c.7.4 1.8.4 2.5 0l6.8-4c.7-.4.7-1 0-1.4l-8.8-5.1c-.7-.5-1.8-.5-2.6 0l-6.7 3.9zm-12.6-7.3c-.8.4-.8 1 0 1.4l8.8 5.1c.7.5 1.8.5 2.5 0l6.8-3.9c.7-.4.7-1 0-1.4l-8.8-5.1c-.7-.5-1.8-.5-2.6 0l-6.7 3.9zM304 412c-.7.4-.7 1 0 1.4l8.8 5.1c.8.4 1.9.4 2.6 0l6.8-3.9c.7-.4.7-1 0-1.5l-8.8-5c-.7-.5-1.9-.5-2.6 0l-6.8 3.9zm-12.6-7.4c-.7.5-.7 1.1 0 1.5l8.8 5.1c.7.4 1.9.4 2.6 0l6.8-3.9c.7-.4.7-1 0-1.5l-8.8-5c-.7-.5-1.9-.5-2.6 0l-6.8 3.8zm-12.6-7.3c-.7.4-.7 1 0 1.5l8.8 5.1c.7.4 1.8.4 2.6 0l6.7-4c.8-.3.7-1 0-1.4l-8.8-5c-.7-.5-1.8-.5-2.5-.1l-6.8 4zm-12.6-7.3c-.7.4-.7 1 0 1.5l8.8 5c.7.5 1.8.5 2.5 0l6.8-3.8c.7-.4.7-1 0-1.5l-8.8-5.1c-.7-.4-1.8-.4-2.5 0l-6.8 4zm-12.6-7.3c-.8.4-.7 1 0 1.5l8.8 5c.7.5 1.8.5 2.5 0l6.8-3.8c.7-.4.7-1.1 0-1.5l-8.8-5.1c-.7-.4-1.8-.4-2.6 0l-6.7 3.9zm-12.6-7.3c-.8.4-.8 1 0 1.5l8.8 5c.7.5 1.8.5 2.5 0l6.8-3.8c.7-.4.7-1.1 0-1.5l-8.8-5.1c-.7-.4-1.8-.4-2.6 0l-6.7 3.9zm-12.7-7.3c-.7.4-.7 1 0 1.5l8.8 5c.7.5 1.9.5 2.6 0l6.8-3.8c.7-.5.7-1.1 0-1.5l-8.8-5.1c-.7-.4-1.9-.4-2.6 0l-6.8 3.9zm-12.6-7.3c-.7.4-.7 1 0 1.5l8.8 5c.7.5 1.9.5 2.6 0l6.8-3.8c.7-.5.7-1.1 0-1.5l-8.8-5.1c-.7-.4-1.9-.5-2.6 0l-6.8 3.9zm-33.5-19.5c-.8.4-.8 1 0 1.5l29.6 17.2c.8.4 1.9.4 2.6 0l6.8-3.9c.7-.4.7-1 0-1.5l-29.7-17.2c-.7-.4-1.8-.4-2.6 0l-6.7 4zM369 437.6c-.7.4-.7 1 0 1.5l8.8 5c.7.5 1.9.5 2.6 0l6.8-3.8c.7-.4.7-1.1 0-1.5l-8.8-5.1c-.7-.4-1.9-.4-2.6 0l-6.8 3.9zm-12.6-7.3c-.7.4-.7 1 0 1.5l8.8 5c.7.5 1.9.5 2.6 0l6.8-3.9c.7-.4.7-1 0-1.4l-8.8-5.1c-.8-.4-1.9-.4-2.6 0l-6.8 3.9zM344 423c-.7.4-.7 1 0 1.4l8.8 5.1c.7.5 1.8.5 2.6 0l6.7-3.9c.8-.4.8-1 0-1.4l-8.8-5.1c-.7-.5-1.8-.5-2.5 0l-6.8 3.9zm-12.6-7.3c-.7.4-.7 1 0 1.4l8.8 5.1c.7.5 1.8.5 2.5 0l6.8-3.9c.7-.4.8-1 0-1.4l-8.8-5.2c-.7-.4-1.8-.4-2.5 0l-6.8 4zm-12.6-7.4c-.8.5-.8 1.1 0 1.5l8.8 5.1c.7.4 1.8.4 2.5 0l6.8-3.9c.7-.4.7-1 0-1.5l-8.8-5c-.7-.5-1.8-.5-2.5 0l-6.8 3.8zM306 401c-.8.4-.8 1.1 0 1.5l8.8 5.1c.7.4 1.8.4 2.5 0l6.8-3.9c.7-.4.7-1 0-1.5l-8.8-5c-.7-.5-1.9-.5-2.6 0l-6.7 3.8zm-12.7-7.3c-.7.4-.7 1 0 1.5l8.8 5.1c.7.4 1.9.4 2.6 0l6.8-4c.7-.3.7-1 0-1.4l-8.8-5.1c-.7-.4-1.9-.4-2.6 0l-6.8 4zm-12.6-7.3c-.7.4-.7 1 0 1.5l8.8 5c.7.5 1.9.5 2.6 0l6.8-3.8c.7-.4.7-1 0-1.5l-8.8-5.1c-.7-.4-1.9-.4-2.6 0l-6.8 3.9zm-12.6-7.3c-.7.4-.7 1 0 1.5l8.8 5c.7.5 1.8.5 2.6 0l6.7-3.8c.7-.4.8-1.1 0-1.5l-8.8-5.1c-.7-.4-1.8-.4-2.5 0l-6.8 3.9zm-12.6-7.3c-.7.4-.7 1 0 1.5l8.8 5c.7.5 1.8.5 2.5 0l6.8-3.8c.7-.4.8-1.1 0-1.5l-8.8-5.1c-.7-.4-1.8-.4-2.5 0l-6.8 3.9zm-12.6-7.3c-.8.4-.8 1 0 1.5l8.8 5c.7.5 1.8.5 2.5 0l6.8-3.9c.7-.4.7-1 0-1.4l-8.8-5.1c-.7-.4-1.8-.4-2.6 0l-6.7 3.9zm-12.6-7.3c-.8.4-.8 1 0 1.5l8.8 5c.7.5 1.8.5 2.5 0l6.8-3.9c.7-.4.7-1 0-1.4l-8.8-5.1c-.7-.5-1.8-.4-2.6 0l-6.7 3.9zm-12.8-7.4c-.7.4-.7 1 0 1.5l8.8 5c.7.5 1.9.5 2.6 0l6.8-3.8c.7-.4.7-1.1 0-1.5l-8.8-5.1c-.7-.4-1.9-.4-2.6 0l-6.8 3.9zm-12.6-7.3c-.7.4-.7 1 0 1.5l8.8 5c.7.5 1.9.5 2.6 0l6.8-3.8c.7-.5.7-1.1 0-1.5l-8.8-5.1c-.7-.4-1.9-.4-2.6 0l-6.8 3.9zm-5.6-11c.8-.5 1.9-.5 2.6 0l8.8 5c.7.4.7 1 0 1.5l-6.8 3.9c-.7.4-1.8.4-2.6 0l-8.8-5.1c-.7-.4-.7-1 0-1.5l6.8-3.9z" fill="#B4B9F6"/><path fill-rule="evenodd" clip-rule="evenodd" d="M275.1 319.9c1.8-1 4.7-1 6.5 0l125.3 72.6c1.8 1 1.8 2.7 0 3.7L380.2 411c-1.8 1-4.7 1-6.5 0l-125.4-72.6c-1.7-1-1.7-2.7 0-3.7l26.8-14.7z" fill="#BBB8F6"/><path fill-rule="evenodd" clip-rule="evenodd" d="M276.8 318.7a7 7 0 016.3 0l122.6 67.8v4.3c0 .6-.5 1.3-1.3 1.8l-26 14.2a7 7 0 01-6.2 0L251 336.5c-.8-.5-1.3-1.1-1.3-1.8l.1-4.5 27.1-11.5z" fill="#9796F7"/><path fill-rule="evenodd" clip-rule="evenodd" d="M276.8 314.6a7 7 0 016.3 0L404.4 385c1.7 1 1.7 2.7 0 3.7l-26 14.2a7 7 0 01-6.2 0L251 332.5c-1.7-1-1.7-2.6 0-3.6l26-14.3z" fill="#D9DFF6"/><mask id="c" maskUnits="userSpaceOnUse" x="210" y="69" width="254" height="339"><path fill-rule="evenodd" clip-rule="evenodd" d="M210.7 69.2h252.7v338.6H210.7V69.2z" fill="#fff"/></mask><g mask="url(#c)"><path fill-rule="evenodd" clip-rule="evenodd" d="M457.3 206.7L220 70c-1.7-1-3.3-1-4.4-.3l-4.8 2.8 3.1 1.7-.5 183.2c0 3.9 2.7 8.6 6 10.5l236 135.9-2.8 1.7 3.9 2.3 4.8-2.8c1-.7 1.7-2 1.7-3.9l.5-183.9c0-3.9-2.7-8.6-6-10.5" fill="#9796F7"/></g><path d="M363 373l-4 2.5V354l4 2.5V373z" fill="#9796F7"/><path fill-rule="evenodd" clip-rule="evenodd" d="M359 354.5v21l-55.5-31.7v-21.3l55.5 32z" fill="#B4B9F6"/><path fill-rule="evenodd" clip-rule="evenodd" d="M451.6 209.5c3.4 2 6.1 6.7 6.1 10.5l-.5 184c0 3.8-2.8 5.4-6.1 3.4L213.7 270.8c-3.4-2-6.1-6.7-6.1-10.6l.5-183.9c0-3.9 2.8-5.4 6.1-3.5l237.4 136.7z" fill="#D9DFF6"/><path fill-rule="evenodd" clip-rule="evenodd" d="M215 241.5c0 4.5 3.2 10 7.1 12.3l134 77 86.6 50c4 2.2 7.2.4 7.2-4.1l.4-145.4c0-4.5-3.2-10-7.1-12.3l-108.7-62.6-112-64.4c-3.8-2.2-7-.4-7 4.1l-.5 145.4z" fill="#F7F7F7"/><path fill-rule="evenodd" clip-rule="evenodd" d="M250.5 124.2L416.7 220a5 5 0 012.5 4.3l.1 117.7a5 5 0 01-7.5 4.3l-166.3-96.2a5 5 0 01-2.5-4.4l-.1-117.3a5 5 0 017.6-4.3" fill="#D9DFF6"/><path fill-rule="evenodd" clip-rule="evenodd" d="M408.4 289.5l-161-93.3v1.4l161 93.3v-1.4zM408.4 304.6l-161-93.3v1.4l161 93.3v-1.4zM408.5 319.7l-161.1-93.3v1.5l161 93.2v-1.4zM408.3 229.2l-161-93.3v1.4l161 93.3v-1.4zM408.5 334.8l-161.1-93.3v1.5l161 93.3v-1.5zM408.4 244l-161.1-93.2v1.5l161 93.2v-1.4zM408.4 259.2l-161-93.3v1.5l161 93.3v-1.5zM408.4 274.3l-161-93.2v1.4l161 93.3v-1.5z" fill="#fff"/><path fill-rule="evenodd" clip-rule="evenodd" d="M247.3 136.5l.1 105 1.3.8-.1-105-1.3-.8zM263.3 145.8l.1 105 1.3.8-.1-105-1.3-.8zM279.3 155.1l.1 105 1.3.8-.1-105-1.3-.8zM295.3 164.4l.1 105 1.3.8-.1-105-1.3-.8zM311.3 173.7l.1 105 1.3.8-.1-105-1.3-.8zM327.3 183l.1 105 1.3.8-.1-105-1.3-.8zM343.3 192.3l.1 105 1.3.8-.1-105-1.3-.8zM359.3 201.6l.1 105 1.3.8-.1-105-1.3-.8zM375.3 210.9l.1 105 1.3.8-.1-105-1.3-.8zM391.3 220.2l.1 105 1.3.8-.1-105-1.3-.8zM407.3 228.5l.1 107.1 1.3.8-.1-107.1-1.3-.8z" fill="#fff"/><path fill-rule="evenodd" clip-rule="evenodd" d="M359.3 279.4L330 218 300.3 243l-12.8-20.3-36.5 22.6-1.3-1.2 38.2-24.2 13 20.6 30.2-25.7 29.1 60.2 45.5-45.6 1.5.9-47.9 49.1z" fill="#9796F7"/><path fill-rule="evenodd" clip-rule="evenodd" d="M188.9 150.8l36.8 21.2a4.2 4.2 0 006.3-3.6v-49c0-1.6-.8-3-2.1-3.7l-36.8-21.2a4.2 4.2 0 00-6.3 3.6v49c0 1.5.8 3 2 3.7" fill="#B4B9F6"/><path fill-rule="evenodd" clip-rule="evenodd" d="M209.4 131.5l-17.8-10.3a1 1 0 111-1.6l17.7 10.3c.5.3.6.8.4 1.3-.2.3-.5.4-.8.4a1 1 0 01-.5 0m0-4.2l-17.8-10.3a1 1 0 111-1.6l17.7 10.4c.5.2.6.8.4 1.2a1 1 0 01-1.3.3m0-4L191.6 113a1 1 0 011-1.5l17.7 10.3c.5.3.6.8.4 1.2a.9.9 0 01-1.3.4m0-4L191.6 109a1 1 0 111-1.6l17.7 10.3c.5.3.6.8.4 1.3a.9.9 0 01-1.3.3m.5-4c.3 0 .6-.1.8-.4.2-.4 0-1-.4-1.2l-17.8-10.4a1 1 0 10-1 1.6l18 10.3.4.2m1.9 17.4V117c0-1.3 1.4-2.2 2.6-1.5l11.6 6.7c.6.3 1 .9 1 1.5v15.7c0 1.3-1.5 2.2-2.7 1.5l-11.7-6.7c-.5-.4-.8-1-.8-1.5M209.4 156l-17.8-10.4a1 1 0 111-1.6l17.7 10.3c.5.3.6.9.4 1.3a.9.9 0 01-1.3.3m0-4l-17.8-10.4a1 1 0 111-1.6l17.7 10.4c.5.2.6.8.4 1.2a.9.9 0 01-1.3.4m0-4.1l-17.8-10.4a1 1 0 111-1.5l17.7 10.3c.5.3.6.8.4 1.3a.9.9 0 01-1.3.3m0-4l-17.8-10.4a1 1 0 111-1.6l17.7 10.3c.5.3.6.9.4 1.3a.9.9 0 01-1.3.3m.5-4c.3 0 .6 0 .8-.4.2-.4 0-1-.4-1.2l-17.8-10.4a1 1 0 10-1 1.6l18 10.3.4.2m1.9 17.4v-15.7c0-1.3 1.4-2.2 2.6-1.5l11.6 6.7c.6.3 1 1 1 1.5V164c0 1.3-1.5 2.2-2.7 1.5l-11.7-6.7c-.5-.3-.8-1-.8-1.5" fill="#FFFAFF"/><path fill-rule="evenodd" clip-rule="evenodd" d="M187.5 220.4l36.8 21.3a4.2 4.2 0 006.3-3.7v-49c0-1.5-.8-2.9-2.1-3.6L191.7 164a4.2 4.2 0 00-6.3 3.7v49c0 1.5.8 2.9 2 3.6" fill="#B4B9F6"/><path fill-rule="evenodd" clip-rule="evenodd" d="M208 201.2l-17.8-10.4a1 1 0 111-1.5l17.7 10.3c.5.3.6.8.4 1.3a.9.9 0 01-1.3.3m0-4l-17.8-10.4a1 1 0 111-1.6l17.7 10.3c.5.3.6.9.4 1.3a1 1 0 01-1.3.3m0-4l-17.8-10.4a1 1 0 111-1.6l17.7 10.4c.5.2.6.8.4 1.2a.9.9 0 01-1.3.3m0-4l-17.8-10.4a1 1 0 111-1.5l17.7 10.3c.5.3.6.8.4 1.2a.9.9 0 01-1.3.4m.5-4c.3 0 .6-.1.8-.4.2-.5 0-1-.4-1.3L191.1 173a1 1 0 10-1 1.6l18 10.3.4.1m1.8 17.4v-15.6c0-1.4 1.5-2.2 2.7-1.5l11.6 6.7c.6.3.9.9.9 1.5V209c0 1.4-1.5 2.2-2.6 1.6l-11.7-6.8c-.5-.3-.9-.9-.9-1.5M208 225.6l-17.8-10.4a1 1 0 111-1.5l17.7 10.3c.5.3.6.8.4 1.3a.9.9 0 01-1.3.3m0-4l-17.8-10.4a1 1 0 111-1.6l17.7 10.4c.5.2.6.8.4 1.2a1 1 0 01-1.3.3m0-4L190.2 207a1 1 0 111-1.6l17.7 10.4c.5.2.6.8.4 1.2a.9.9 0 01-1.3.4m0-4.1L190.2 203a1 1 0 111-1.5l17.7 10.3c.5.3.6.8.4 1.3a1 1 0 01-1.3.3m.5-4c.3 0 .6-.1.8-.4.2-.4 0-1-.4-1.3l-17.8-10.3a1 1 0 10-1 1.6l18 10.3.4.1m1.8 17.4v-15.6c0-1.4 1.5-2.2 2.7-1.5l11.6 6.7c.6.3.9.9.9 1.5v15.7c0 1.3-1.5 2.1-2.6 1.5l-11.7-6.8c-.5-.3-.9-.9-.9-1.5" fill="#FFFAFF"/><path fill-rule="evenodd" clip-rule="evenodd" d="M247.8 259.5l45 26c3.5 2 7.8-.5 7.8-4.5v-60c0-1.8-1-3.5-2.6-4.4l-45-26c-3.5-2-7.8.5-7.8 4.4v60c0 1.9 1 3.6 2.6 4.5" fill="#B4B9F6"/><path fill-rule="evenodd" clip-rule="evenodd" d="M259 266l25.7 14.8s0-19.2-3.9-26.5c-3.8-7.2-13-10.4-17-6.6-5 4.7-4.8 18.2-4.8 18.2m4.7-47.2c5-3.3 12.7-.3 17.1 6.5 4.5 6.8 4.1 15-.9 18.2-5 3.3-12.6.3-17-6.5-4.5-6.9-4.1-15 .8-18.2" fill="#FFFAFF"/><mask id="d" maskUnits="userSpaceOnUse" x="399" y="210" width="39" height="54"><path fill-rule="evenodd" clip-rule="evenodd" d="M400 212.4v29.8c0 .7.3 1.3.8 1.6l34.1 19.5c1.2.7 2.8-.2 2.8-1.6V232c0-.6-.4-1.2-1-1.5l-34-19.5a1.8 1.8 0 00-2.7 1.6z" fill="#fff"/></mask><g mask="url(#d)"><path fill-rule="evenodd" clip-rule="evenodd" d="M400 243.3l37.7 21.6v-34l-37.8-21.6v34z" fill="#D1D3FF"/></g><mask id="e" maskUnits="userSpaceOnUse" x="399" y="210" width="39" height="54"><path fill-rule="evenodd" clip-rule="evenodd" d="M400 212.4v29.8c0 .7.3 1.3.8 1.6l34.1 19.5c1.2.7 2.8-.2 2.8-1.6V232c0-.6-.4-1.2-1-1.5l-34-19.5a1.8 1.8 0 00-2.7 1.6z" fill="#fff"/></mask><g mask="url(#e)"><path fill-rule="evenodd" clip-rule="evenodd" d="M400 243.3l37.7 21.6-20-30.3-17.8 8.7z" fill="#D9DFF6"/></g><mask id="f" maskUnits="userSpaceOnUse" x="399" y="210" width="39" height="54"><path fill-rule="evenodd" clip-rule="evenodd" d="M400 212.4v29.8c0 .7.3 1.3.8 1.6l34.1 19.5c1.2.7 2.8-.2 2.8-1.6V232c0-.6-.4-1.2-1-1.5l-34-19.5a1.8 1.8 0 00-2.7 1.6" fill="#fff"/></mask><g mask="url(#f)"><path fill-rule="evenodd" clip-rule="evenodd" d="M419.5 237l18.2-6.1-37.8-21.6 16.2 26.6a2.9 2.9 0 003.4 1.2" fill="#D9DFF6"/></g><path fill-rule="evenodd" clip-rule="evenodd" d="M223.4 368s.9-3 6.3-2c1 .2 1.9 4 1.9 4l10 3s-19 7-18.8 4l.6-9" fill="#130159"/><path fill-rule="evenodd" clip-rule="evenodd" d="M220.4 289.1l3 79.8c1.8 2.5 8 .4 8 .4l6-75.9-17-4.3z" fill="#5601F3"/><path fill-rule="evenodd" clip-rule="evenodd" d="M258.7 241.1c1.2.6 1.5-.9 1.6-2l.5-1.7c.2-.1.5 1.3.7.9.2-.3 2.7-4 4.6-1.8 1 1.1-1.9 4.7-3 5.2-2.1 1-2.5 0-4 1.7l-.4-2.3z" fill="#F4C5A2"/><path fill-rule="evenodd" clip-rule="evenodd" d="M238.4 243.9c5.3 3.5 9.7 4 9.7 4l11.7-8.3s1.6-.7 2.2 3.2c0 0-12 13.5-14.7 13.9-2.6.3-6.5-1.6-12.8-5-10.6-6-1.6-11.5 3.9-7.8" fill="#00CDC4"/><path fill-rule="evenodd" clip-rule="evenodd" d="M233 372s1-3 6.4-2c1 .2 1.9 4 1.9 4l10 2.9s-19 7-18.8 4l.6-8.8" fill="#130159"/><path fill-rule="evenodd" clip-rule="evenodd" d="M230.1 295.4l3 77.3c1.8 2.5 8 .4 8 .4.3-2.3 6-75.9 6-75.9l-17-1.8z" fill="#681EF7"/><path fill-rule="evenodd" clip-rule="evenodd" d="M238.9 234.7l1.2 7.3-7-.5 1.4-6.1 4.4-.7z" fill="#FED4BD"/><path fill-rule="evenodd" clip-rule="evenodd" d="M242.3 240.5l-9.9-1.3-1 4 11.3.5-.4-3.2z" fill="#fff"/><path fill-rule="evenodd" clip-rule="evenodd" d="M241.3 229.2c.5 3.5-.5 7.3-4.2 7-3-.1-5.6-2-6.1-5.5s1.4-6.6 4.2-7c2.9-.4 5.6 2 6 5.5" fill="#FED4BD"/><path fill-rule="evenodd" clip-rule="evenodd" d="M234 236.9s1.3 1 3-.6c0 0 1-2.3 1-3.4 0-.9-1.3-2-1-2.8.6-1.5 2-1.2 2.4 1.7.2-1.3 7.6-5 3-8.2-6-4.4-15.1-.6-12 5-2.6.8 1.3 5.8 3.6 8.3" fill="#3D00BD"/><path fill-rule="evenodd" clip-rule="evenodd" d="M245.7 247c1.2 3.9 2.9 36.5 5.5 48.6-4.8 6.1-27 7.4-33.3.3 0 0 1.8-24 8.4-46.3 2.8-9.5 11.4-12.7 19.4-2.6" fill="#01E4D0"/><path fill-rule="evenodd" clip-rule="evenodd" d="M270.4 249.3c1.9.4 2.5-1.9 3-3 1.8-3.8 1.4-1 1.7-1 .7.2 4-1.4 4.3.3.5 2-2 3.4-3.5 4.1-2.8 1.5-2.8 0-4.4 2l-1-2.4z" fill="#F4C5A2"/><path fill-rule="evenodd" clip-rule="evenodd" d="M243.6 244.3c9 9.6 9.9 10.8 9.9 10.8l18.7-7.8s3.6.5 2.3 4.4c0 0-17.3 14.6-21.6 14.4-4.3-.3-9.9-6.7-16-13.7-8.4-9.3.8-14.3 6.7-8.2" fill="#01E4D0"/><path fill-rule="evenodd" clip-rule="evenodd" d="M292.1 307.2s-4-2-4.6-2.6c-.5-.5-2.3-2.6-3.4-2.7-.8 0-.2.6.3 1.4 1.2 1.8-3-1.8-4-.3-.7 1-.1 4.4 4.8 5.3 2.1.4 4.2 2.1 5.1 2.4l1.8-3.5z" fill="#F4C5A2"/><path fill-rule="evenodd" clip-rule="evenodd" d="M303.8 298.3a77.6 77.6 0 004.3 15.8l-20.4-10s-4.3-.9-2.4 4.9c0 0 26 17.2 34.7 11.6 4.7-3-1.3-25.2-8.5-28.8-3.9-1.2-9.3-2.2-7.7 6.5" fill="#F6DD03"/><path fill-rule="evenodd" clip-rule="evenodd" d="M298.3 284.6v7.5l6-.7-2.3-7.7-3.7.9z" fill="#FED4BD"/><path fill-rule="evenodd" clip-rule="evenodd" d="M298.3 288.6l5.8-.9 1.4 3.3-8.5 1.2 1.3-3.6z" fill="#FFFAFF"/><path fill-rule="evenodd" clip-rule="evenodd" d="M311.8 408.2s-2.3-1-7.2.4a304 304 0 00-10.6 3.7s17.8 4.8 17.9 2v-6.1" fill="#130159"/><path fill-rule="evenodd" clip-rule="evenodd" d="M301.6 413.4s-2.2-.1-7.2.5c-2.2.3-10.7 3.6-10.7 3.6s17.9 4.9 18 2.1l-.1-6.2" fill="#130159"/><path fill-rule="evenodd" clip-rule="evenodd" d="M317.4 334.4l-4.2 74.5s-3.9 1.9-9.4-.6l-.6-72.5 14.2-1.4z" fill="#5601F3"/><path fill-rule="evenodd" clip-rule="evenodd" d="M308.6 337l-5.8 78c-8.2.9-8.6-1.6-8.6-1.6.4-4.5-1.7-79.7-1.7-79.7l16.1 3.4z" fill="#681EF7"/><path fill-rule="evenodd" clip-rule="evenodd" d="M294.2 279.5c.3 3.5 2.2 7 5.8 5.8a6.3 6.3 0 004.5-6.8c-.4-3.5-3-6.1-5.8-5.9-2.8.3-4.9 3.4-4.5 6.9" fill="#FED4BD"/><path fill-rule="evenodd" clip-rule="evenodd" d="M303 285.1s-1 1.3-3 .2c0 0-1.6-2-1.8-3-.2-1 .8-2.3.3-3-1-1.3-2.2-.7-1.9 2.2-.5-1.3-8.5-3-4.8-7.3 4.7-5.6 14.4-4 12.7 2 2.8.2.2 6-1.4 8.9" fill="#3D00BD"/><path fill-rule="evenodd" clip-rule="evenodd" d="M291 295.4s1.6 29.7 1.6 45.8c6 5.4 25.6.8 27-2.4 1.3-3.1-.7-5.8-1.2-9.5-1.6-11.8 0-27.4-3.3-33.3-4.3-8-14.4-8.6-24-.6" fill="#F6BF03"/><path fill-rule="evenodd" clip-rule="evenodd" d="M298 353.2l-19.5-11.7V360l19.1 11.2.4-18z" fill="#3D00BD"/><path fill-rule="evenodd" clip-rule="evenodd" d="M279 348.6s-1-.7-1-.5v6l1 .5v-6z" fill="#7676E5"/><path fill-rule="evenodd" clip-rule="evenodd" d="M285 349.6c-1.7 2.1-3 8.6 1 9.4 1.2.2 3.4-4.3 3.6-7.8" fill="#F4C5A2"/><path fill-rule="evenodd" clip-rule="evenodd" d="M288.5 300.7c1.6-8.6 8-8.8 9 5.5.4 7.3.2 11.2-.8 20.2-.8 6.8-6.2 26.4-6.2 26.4-.7.7-6.3-2-6.5-4.1a78.6 78.6 0 004.4-23.2c.7-9.8-1.2-18.2 0-24.8" fill="#F6DD03"/></svg>