<svg width="181" height="30" fill="none" xmlns="http://www.w3.org/2000/svg"><path d="M44.43 24h-2.3c-.24 0-.34-.14-.34-.39V6.35c0-.24.1-.39.35-.39h2.75c.21 0 .32.11.39.29l3.07 5.71c.64 1.2 1.34 2.69 2.15 4.42h.1a58.49 58.49 0 012.16-4.42l3.04-5.71c.1-.18.24-.29.42-.29h2.72c.25 0 .39.15.39.4V23.6c0 .25-.14.39-.4.39h-2.29c-.24 0-.35-.14-.35-.39v-5.08c0-1.98.07-4.62.21-7.9l-.07-.04c-.5 1.1-1.27 2.65-2.26 4.66l-2.22 4.3a.43.43 0 01-.42.29h-1.9a.43.43 0 01-.43-.29l-2.23-4.3a114.77 114.77 0 01-2.25-4.66l-.08.03c.15 3.29.22 5.93.22 7.9v5.1c-.07.24-.18.38-.43.38zM73.3 19.2c0 1.55-.53 2.79-1.55 3.7a6.05 6.05 0 01-4.16 1.38 6.05 6.05 0 01-4.17-1.37 4.74 4.74 0 01-1.55-3.71v-3.35a4.9 4.9 0 011.55-3.78 5.9 5.9 0 014.17-1.41 5.9 5.9 0 014.16 1.41 4.9 4.9 0 011.55 3.78v3.35zm-8.54 0c0 1.66.92 2.47 2.8 2.47.9 0 1.58-.21 2.07-.63.5-.43.7-1.03.7-1.84v-3.35c0-.81-.24-1.45-.73-1.9-.5-.47-1.17-.68-2.05-.68-.92 0-1.59.21-2.08.67-.5.42-.7 1.06-.7 1.9v3.36zM77.08 27.35h-2.05c-.24 0-.35-.1-.35-.35v-5.26c0-.25.1-.35.35-.35h.57c.56-.39.99-1.27 1.27-2.61.32-1.38.6-3.85.88-7.49.04-.24.18-.35.39-.35h8.36c.25 0 .4.1.4.35v10.1h1.26c.25 0 .39.14.39.39V27c0 .25-.14.35-.39.35h-2.04c-.25 0-.4-.1-.4-.35v-3h-8.25v3.04c0 .2-.14.31-.39.31zm3.39-13.83c-.35 4.16-.92 6.77-1.73 7.9h5.22v-7.9h-3.5zM98.43 20.43V11.3c0-.24.14-.35.4-.35h2.14c.25 0 .4.1.4.35v11.86c0 3.92-1.88 5.86-5.62 5.86a7.48 7.48 0 01-4.94-1.59c-.18-.14-.21-.31-.07-.5l1.1-1.5c.13-.22.28-.26.49-.15a5.97 5.97 0 003.42 1.16c.95 0 1.66-.24 2.12-.74.46-.49.67-1.34.63-2.54-.98.32-1.87.46-2.68.46a5.82 5.82 0 01-3.78-1.34 4.68 4.68 0 01-1.62-3.78v-7.2c0-.24.14-.35.39-.35H93c.24 0 .35.1.35.35v7.06c0 .92.28 1.56.81 1.98.53.42 1.24.63 2.05.63a4.5 4.5 0 002.22-.53zM108.24 19.7c-.31 1.58-.8 2.71-1.44 3.35-.67.63-1.7.99-3.1 1.06-.26 0-.36-.15-.36-.4v-1.83c0-.2.1-.35.35-.39.5-.03.88-.24 1.13-.6.28-.35.5-1.02.7-1.97.29-1.66.5-4.2.64-7.6.04-.24.18-.34.39-.34h8.54c.25 0 .39.1.39.35v12.32c0 .24-.14.39-.39.39h-2.15c-.25 0-.39-.15-.39-.4V13.53h-3.67c-.14 2.4-.32 4.44-.64 6.17zM123.56 24h-5.22c-.25 0-.39-.14-.39-.39V11.3c0-.24.14-.35.39-.35h2.15c.25 0 .39.1.39.35v3.89h2.68c1.55 0 2.79.38 3.74 1.16a3.98 3.98 0 011.42 3.28c0 1.49-.46 2.58-1.38 3.29-.92.74-2.15 1.09-3.78 1.09zm-2.68-6.42v3.98h2.15c1.8 0 2.72-.67 2.72-1.97 0-.67-.21-1.2-.67-1.52a3.57 3.57 0 00-2.05-.5h-2.15zM132.67 13.2h4.73c2.04 0 3.6.42 4.55 1.3.99.89 1.48 2.23 1.48 4.06 0 1.73-.53 3.08-1.59 4.03A6.42 6.42 0 01137.5 24h-6.07c-.14 0-.2-.07-.2-.21V6.18c0-.14.06-.22.2-.22h10.6c.13 0 .2.08.2.22v.88c0 .14-.07.21-.2.21h-9.4v5.93h.04zm0 9.5h4.87a5 5 0 003.35-1.03c.78-.67 1.17-1.73 1.17-3.1 0-1.42-.36-2.44-1.1-3.11-.74-.67-1.9-.99-3.5-.99h-4.76v8.22h-.03zM145.9 12.04a7.74 7.74 0 014.6-1.31c1.54 0 2.7.42 3.56 1.23.84.82 1.23 2.02 1.23 3.53v7.66c0 .1-.07.21-.17.25-1.49.56-3.04.85-4.7.85a6.36 6.36 0 01-3.77-1.06 3.47 3.47 0 01-1.49-3.04c0-1.27.46-2.26 1.41-2.93a6.59 6.59 0 013.89-1.02c.88 0 2.04.14 3.53.39v-1.06c0-2.37-1.17-3.53-3.53-3.53-1.45 0-2.76.35-3.85 1.02-.1.07-.18.07-.28-.03l-.43-.67c-.07-.14-.07-.21 0-.28zm.64 8.15c0 .88.35 1.59 1.1 2.12.7.49 1.65.77 2.85.77 1.17 0 2.33-.2 3.53-.6v-4.73a16.9 16.9 0 00-3.53-.39c-2.65 0-3.95.96-3.95 2.83zM159 24h-.92c-.14 0-.21-.07-.21-.21V11.26c0-.14.07-.21.21-.21h.92c.14 0 .21.07.21.2v5.4h7.2v-5.4c0-.13.07-.2.21-.2h.92c.14 0 .21.07.21.2V23.8c0 .14-.07.21-.21.21h-.92c-.14 0-.21-.07-.21-.21v-5.93h-7.2v5.93c0 .14-.07.21-.21.21zM180.35 24h-1.13c-.1 0-.18-.04-.25-.14l-5.47-6.18-1.9 1.77v4.3c0 .14-.07.21-.21.21h-.89c-.14 0-.2-.07-.2-.2V11.21c0-.14.06-.2.2-.2h.89c.14 0 .2.06.2.2v6.6l7-6.74c.07-.07.14-.1.28-.1H180c.07 0 .14.03.17.07.04.03 0 .1-.07.17l-5.71 5.54 6.07 6.96c.14.17.03.28-.11.28z" fill="#243B76"/><g clip-path="url(#clip0)" fill="#243B76"><path d="M18 18v-6h-6V6H6V0H0v12h6v6H0v12h6v-6h6v-6h6zM24 18h-6v6h6v-6zM30 24h-6v6h6v-6z"/><path d="M18 24h-6v6h6v-6zM24 6V0H12v6h6v6h6v6h6V6h-6z"/></g><defs><clipPath id="clip0"><path fill="#fff" d="M0 0h30v30H0z"/></clipPath></defs></svg>