<svg width="261" height="271" fill="none" xmlns="http://www.w3.org/2000/svg"><path fill-rule="evenodd" clip-rule="evenodd" d="M64.6 245.4C3.8 205-16.9 127.2 23.7 66.9 64.4 6.6 142-17.6 202.7 22.7c60.8 40.3 72 129 31.4 189.3-40.7 60.2-108.7 73.7-169.5 33.4" fill="#fff"/><mask id="a" maskUnits="userSpaceOnUse" x="158" y="153" width="39" height="23"><path fill-rule="evenodd" clip-rule="evenodd" d="M158.4 153H197v22.1h-38.5v-22z" fill="#fff"/></mask><g mask="url(#a)"><path fill-rule="evenodd" clip-rule="evenodd" d="M196.9 164l-19.2 11.1-19.3-11 19.4-11 19 11z" fill="#9997E9"/></g><path fill-rule="evenodd" clip-rule="evenodd" d="M172.7 178.5l-19.2 11-19.2-10.9 19.3-11.1 19.1 11zM148 192.3l-19.2 11-19.2-10.9 19.4-11.1 19 11zM122.5 206.8l-19.2 11L84 207l19.3-11.2 19 11z" fill="#9997E9"/><path fill-rule="evenodd" clip-rule="evenodd" d="M194.2 164.5l-14.8 8.6-14.9-8.5V71l29.7-.1v93.7z" fill="#9391EA"/><path fill-rule="evenodd" clip-rule="evenodd" d="M194.2 70.4l-14.8 8.5-14.9-8.4 15-8.6 14.7 8.5z" fill="#D7CBFF"/><path fill-rule="evenodd" clip-rule="evenodd" d="M179.4 173V79.3l-14.9-8.4v93.8l14.9 8.5z" fill="#B9AFF4"/><path fill-rule="evenodd" clip-rule="evenodd" d="M169 178.5L154 187l-14.8-8.4V98.1L169 98v80.5z" fill="#9391EA"/><path fill-rule="evenodd" clip-rule="evenodd" d="M169 98.3l-14.9 8.5-14.8-8.3 15-8.6 14.7 8.4z" fill="#D7CBFF"/><path fill-rule="evenodd" clip-rule="evenodd" d="M154.1 187v-80.6L139.3 98v80.6L154 187z" fill="#B9AFF4"/><path fill-rule="evenodd" clip-rule="evenodd" d="M144.5 193.3l-14.9 8.4-14.8-8.3v-62.2h29.7v62z" fill="#9391EA"/><path fill-rule="evenodd" clip-rule="evenodd" d="M144.5 130.7l-14.9 8.5-14.8-8.4 15-8.5 14.7 8.4z" fill="#D7CBFF"/><path fill-rule="evenodd" clip-rule="evenodd" d="M129.6 201.7v-62.2l-14.8-8.4v62.2l14.8 8.4z" fill="#B9AFF4"/><path fill-rule="evenodd" clip-rule="evenodd" d="M119.2 208l-14.8 8.5-14.9-8.5v-43.7h29.7v43.6z" fill="#9391EA"/><path fill-rule="evenodd" clip-rule="evenodd" d="M119.2 163.8l-14.8 8.5-14.9-8.4 15-8.5 14.7 8.4z" fill="#D7CBFF"/><path fill-rule="evenodd" clip-rule="evenodd" d="M104.4 216.5v-43.8l-14.9-8.5V208l14.9 8.5z" fill="#B9AFF4"/><path fill-rule="evenodd" clip-rule="evenodd" d="M119.2 149.1l-14.8 8.5-14.9-8.4 15-8.5 14.7 8.4z" fill="#FFADB5"/><path fill-rule="evenodd" clip-rule="evenodd" d="M64.3 218.3l14.6 8.5 25.5-68.9-14.7-8.4-25.4 68.8zM119 149.5l9.9-24.7-14.8-8.4-9.7 24.6 14.6 8.5zM143.6 116.4L154 91.8l-14.7-8.5-10.5 24.6 14.7 8.5z" fill="#FF8D99"/><path fill-rule="evenodd" clip-rule="evenodd" d="M143.7 116l-14.8 8.5L114 116l15-8.5 14.7 8.4zM169 83.6L154 92.1l-14.8-8.4 15-8.5 14.7 8.4z" fill="#FFADB5"/><path fill-rule="evenodd" clip-rule="evenodd" d="M154.9 74.7l8.4-20.1 14.6 8.5-8.5 20.2-14.5-8.6z" fill="#FF8D99"/><path fill-rule="evenodd" clip-rule="evenodd" d="M187.5 47.2l-30.4 4.4 26.2 14.8 4.2-19.2z" fill="#FFADB5"/><path fill-rule="evenodd" clip-rule="evenodd" d="M128.2 111.7l7.8 4.5a2 2 0 010 3.5l-1.3.7c-1.3.7-2.9.7-4.1 0l-7.9-4.5a2 2 0 010-3.4l1.4-.8c1.3-.7 2.8-.7 4.1 0" fill="#FF8D99"/><path fill-rule="evenodd" clip-rule="evenodd" d="M142.3 72l-.5-.1L144 57h.4L142.3 72z" fill="#311D87"/><path fill-rule="evenodd" clip-rule="evenodd" d="M144.6 56.3l-5.7 6 5-1 .7-5z" fill="#E94369"/><path fill-rule="evenodd" clip-rule="evenodd" d="M107.8 76c-.8 0-.8.6-.7 1.1.1.6-.3.3-.3.6 0 .1 0 .7-1.4.3-.7-.2-.6-.8 0-1.3.9-.9 1.3-.6 1.7-1.6l.7.8z" fill="#F4C5A2"/><path fill-rule="evenodd" clip-rule="evenodd" d="M100.7 78.9l9.9-.9.5.3-3.6 6.9-9.4 1.5-1-1.2 3.6-6.6z" fill="#311D87"/><path fill-rule="evenodd" clip-rule="evenodd" d="M101.2 79.2l10-.9-3.1 7.2-10 1.2 3.1-7.5z" fill="#39258C"/><path fill-rule="evenodd" clip-rule="evenodd" d="M104.2 78.8h-.5c.2-1.3 1-1.8 2.3-1.8.6 0 1 .2 1.3.5.4.5.4 1 .4 1h-.5s.1-.4-.2-.7c-.2-.3-.5-.4-1-.4-1 0-1.7.3-1.8 1.4" fill="#311D87"/><path fill-rule="evenodd" clip-rule="evenodd" d="M120.4 69.8c-3.4-.2-6.6.5-6.6.5l-6 6.8s-1.2.2-2.2-1.2c0 0 5.1-8.1 6.5-8.8 1.3-.8 5-1.2 9-1.2 6.6 0 2.8 4.2-.7 4" fill="#402DAD"/><path fill-rule="evenodd" clip-rule="evenodd" d="M127.9 64.8l-1.6 2.8-2-1.1 1.8-2 1.8.3z" fill="#FED4BD"/><path fill-rule="evenodd" clip-rule="evenodd" d="M128.2 67.4l-3.7-1.9-1 1.4 4.3 1.8.4-1.3z" fill="#fff"/><path fill-rule="evenodd" clip-rule="evenodd" d="M140.1 71.8c.8.1 1-.9 1.3-1.3.7-1 .6-.4.7-.4.3 0 .8-.4 1 .3.1.8 0 1.2-.7 1.6-1.1.6-1.1 0-1.8.7l-.5-1z" fill="#F4C5A2"/><path fill-rule="evenodd" clip-rule="evenodd" d="M125.5 112.9s.4-1.3 2.7-.9c.3.1.7 1.7.7 1.7l4.1 1.2s-7.8 2.9-7.7 1.6l.2-3.6M90.1 97.3s1.2 1 1 3.2c-.1.3-1.8.6-1.8.6l-3.7 5.1s-.6-8.2.7-8.2c1.9 0 3.8-.7 3.8-.7" fill="#20006C"/><path fill-rule="evenodd" clip-rule="evenodd" d="M111.7 79.8l-8.9 13.4-14.1 4.4s1.8 1.3 1.2 3.4l16.2-3.7 11.3-11.4-5.7-6.1z" fill="#311D87"/><path fill-rule="evenodd" clip-rule="evenodd" d="M111.4 82l10.3 16 3.7 15.3c.8 1 3.1-.6 3.1-.6.2-1.1-1.8-16-1.8-16l-4.5-11-10.8-3.7z" fill="#3C279D"/><path fill-rule="evenodd" clip-rule="evenodd" d="M129.3 62.8c-.3 1.4-1.2 2.7-2.6 2-1.1-.4-1.9-1.5-1.6-3 .4-1.4 1.6-2.3 2.7-2 1.2.2 1.9 1.6 1.5 3" fill="#FED4BD"/><path fill-rule="evenodd" clip-rule="evenodd" d="M125.4 64.6s.3.6 1.3.3c0 0 .7-.8.8-1.2.2-.3-.2-1 0-1.2.5-.5 1-.2.7 1 .3-.5 3.7-.8 2.4-2.8-1.7-2.5-5.8-2.4-5.4.2-1.1 0-.3 2.5.2 3.7" fill="#311D87"/><path fill-rule="evenodd" clip-rule="evenodd" d="M128.8 69.6c-1 .7-5.1 16.3-4.1 20.7-2.8 1.5-12.9-2.3-14.2-4.3l1.3-3.4-2.4 3.1c-1.1-.4-1.5-1.3-1.6-1.5 0 0 3.8-10.2 11-16.6 3.2-2.8 7-2 10 2" fill="#402DAD"/><path fill-rule="evenodd" clip-rule="evenodd" d="M129 69.7c3.8 4 4.1 4.5 4.1 4.5L141 71s1.5.2 1 1.8c0 0-7.2 6-9 5.9-1.8-.1-4.1-2.8-6.7-5.6-3.4-3.9.4-6 2.8-3.4" fill="#402DAD"/><path fill-rule="evenodd" clip-rule="evenodd" d="M86.3 98c1.5-.2-.7 8.2-.7 8.2s-1.7-7.9.7-8.2" fill="#3C279D"/><path fill-rule="evenodd" clip-rule="evenodd" d="M104.9 77.3c-.2.1-.3.3-.2.5l.3.3h.4l.6.1h.6c.2-.2.3-.5.2-.8a.8.8 0 00-.6-.4c-.4 0-1 0-1.3.3" fill="#F4C5A2"/></svg>